<?xml version="1.0" standalone="no"?>
 <!DOCTYPE svg PUBLIC "-//W3C//DTD SVG 1.1//EN" 
 "http://www.w3.org/Graphics/SVG/1.1/DTD/svg11.dtd"> 
<svg xmlns="http://www.w3.org/2000/svg" version="1.1" 
    width="29.7002cm" height="21.0007cm" viewBox="0 0 116930 82680 ">
<title>SVG Picture created as motor-control-F_SilkS.svg date 2020/03/24 01:26:02 </title>
  <desc>Picture generated by PCBNEW </desc>
<g style="fill:#000000; fill-opacity:1;stroke:#000000; stroke-opacity:1;
stroke-linecap:round; stroke-linejoin:round; "
 transform="translate(0 0) scale(1 1)">
</g>
<g style="fill:#000000; fill-opacity:0.0; 
stroke:#000000; stroke-width:-0.000393701; stroke-opacity:1; 
stroke-linecap:round; stroke-linejoin:round;">
</g>
<g style="fill:#000000; fill-opacity:0.0; 
stroke:#000000; stroke-width:39.3701; stroke-opacity:1; 
stroke-linecap:round; stroke-linejoin:round;">
</g>
<g style="fill:#000000; fill-opacity:0.0; 
stroke:#000000; stroke-width:59.0551; stroke-opacity:1; 
stroke-linecap:round; stroke-linejoin:round;">
<rect x="69685.9" y="65357.2" width="42519.7" height="12598.4" rx="0" />
</g>
<g style="fill:#000000; fill-opacity:0.0; 
stroke:#000000; stroke-width:39.3701; stroke-opacity:1; 
stroke-linecap:round; stroke-linejoin:round;">
</g>
<g style="fill:#000000; fill-opacity:0.0; 
stroke:#000000; stroke-width:59.0551; stroke-opacity:1; 
stroke-linecap:round; stroke-linejoin:round;">
<rect x="3937.01" y="3937.01" width="109056" height="74806" rx="0" />
</g>
<g style="fill:#000000; fill-opacity:0.0; 
stroke:#000000; stroke-width:39.3701; stroke-opacity:1; 
stroke-linecap:round; stroke-linejoin:round;">
</g>
<g style="fill:#000000; fill-opacity:0.0; 
stroke:#000000; stroke-width:59.0551; stroke-opacity:1; 
stroke-linecap:round; stroke-linejoin:round;">
<rect x="4724.41" y="4724.41" width="107481" height="73231.2" rx="0" />
</g>
<g style="fill:#000000; fill-opacity:0.0; 
stroke:#000000; stroke-width:39.3701; stroke-opacity:1; 
stroke-linecap:round; stroke-linejoin:round;">
</g>
<g style="fill:#000000; fill-opacity:0.0; 
stroke:#000000; stroke-width:59.0551; stroke-opacity:1; 
stroke-linecap:round; stroke-linejoin:round;">
<path d="M23622 4724
L23622 3937
" />
</g>
<g style="fill:#000000; fill-opacity:0.0; 
stroke:#000000; stroke-width:39.3701; stroke-opacity:1; 
stroke-linecap:round; stroke-linejoin:round;">
</g>
<g style="fill:#000000; fill-opacity:0.0; 
stroke:#000000; stroke-width:59.0551; stroke-opacity:1; 
stroke-linecap:round; stroke-linejoin:round;">
<path d="M43307 4724
L43307 3937
" />
</g>
<g style="fill:#000000; fill-opacity:0.0; 
stroke:#000000; stroke-width:39.3701; stroke-opacity:1; 
stroke-linecap:round; stroke-linejoin:round;">
</g>
<g style="fill:#000000; fill-opacity:0.0; 
stroke:#000000; stroke-width:59.0551; stroke-opacity:1; 
stroke-linecap:round; stroke-linejoin:round;">
<path d="M62992 4724
L62992 3937
" />
</g>
<g style="fill:#000000; fill-opacity:0.0; 
stroke:#000000; stroke-width:39.3701; stroke-opacity:1; 
stroke-linecap:round; stroke-linejoin:round;">
</g>
<g style="fill:#000000; fill-opacity:0.0; 
stroke:#000000; stroke-width:59.0551; stroke-opacity:1; 
stroke-linecap:round; stroke-linejoin:round;">
<path d="M82677 4724
L82677 3937
" />
</g>
<g style="fill:#000000; fill-opacity:0.0; 
stroke:#000000; stroke-width:39.3701; stroke-opacity:1; 
stroke-linecap:round; stroke-linejoin:round;">
</g>
<g style="fill:#000000; fill-opacity:0.0; 
stroke:#000000; stroke-width:59.0551; stroke-opacity:1; 
stroke-linecap:round; stroke-linejoin:round;">
<path d="M102362 4724
L102362 3937
" />
</g>
<g style="fill:#000000; fill-opacity:0.0; 
stroke:#000000; stroke-width:39.3701; stroke-opacity:1; 
stroke-linecap:round; stroke-linejoin:round;">
</g>
<g style="fill:#000000; fill-opacity:0.0; 
stroke:#000000; stroke-width:59.0551; stroke-opacity:1; 
stroke-linecap:round; stroke-linejoin:round;">
<text x="13779.5" y="4586.61"
textLength="546.494" font-size="682.415" lengthAdjust="spacingAndGlyphs"
text-anchor="start" opacity="0">1</text>
<path d="M14199 4562
L13906 4562
" />
<path d="M14052 4562
L14052 4050
L14004 4123
L13955 4172
L13906 4196
" />
</g>
<g style="fill:#000000; fill-opacity:0.0; 
stroke:#000000; stroke-width:39.3701; stroke-opacity:1; 
stroke-linecap:round; stroke-linejoin:round;">
</g>
<g style="fill:#000000; fill-opacity:0.0; 
stroke:#000000; stroke-width:59.0551; stroke-opacity:1; 
stroke-linecap:round; stroke-linejoin:round;">
<text x="33464.6" y="4586.61"
textLength="546.494" font-size="682.415" lengthAdjust="spacingAndGlyphs"
text-anchor="start" opacity="0">2</text>
<path d="M33591 4099
L33615 4074
L33664 4050
L33786 4050
L33835 4074
L33859 4099
L33884 4147
L33884 4196
L33859 4269
L33567 4562
L33884 4562
" />
</g>
<g style="fill:#000000; fill-opacity:0.0; 
stroke:#000000; stroke-width:39.3701; stroke-opacity:1; 
stroke-linecap:round; stroke-linejoin:round;">
</g>
<g style="fill:#000000; fill-opacity:0.0; 
stroke:#000000; stroke-width:59.0551; stroke-opacity:1; 
stroke-linecap:round; stroke-linejoin:round;">
<text x="53149.6" y="4586.61"
textLength="546.494" font-size="682.415" lengthAdjust="spacingAndGlyphs"
text-anchor="start" opacity="0">3</text>
<path d="M53252 4050
L53569 4050
L53398 4245
L53471 4245
L53520 4269
L53544 4294
L53569 4342
L53569 4464
L53544 4513
L53520 4537
L53471 4562
L53325 4562
L53276 4537
L53252 4513
" />
</g>
<g style="fill:#000000; fill-opacity:0.0; 
stroke:#000000; stroke-width:39.3701; stroke-opacity:1; 
stroke-linecap:round; stroke-linejoin:round;">
</g>
<g style="fill:#000000; fill-opacity:0.0; 
stroke:#000000; stroke-width:59.0551; stroke-opacity:1; 
stroke-linecap:round; stroke-linejoin:round;">
<text x="72834.6" y="4586.61"
textLength="546.494" font-size="682.415" lengthAdjust="spacingAndGlyphs"
text-anchor="start" opacity="0">4</text>
<path d="M73205 4221
L73205 4562
" />
<path d="M73083 4026
L72961 4391
L73278 4391
" />
</g>
<g style="fill:#000000; fill-opacity:0.0; 
stroke:#000000; stroke-width:39.3701; stroke-opacity:1; 
stroke-linecap:round; stroke-linejoin:round;">
</g>
<g style="fill:#000000; fill-opacity:0.0; 
stroke:#000000; stroke-width:59.0551; stroke-opacity:1; 
stroke-linecap:round; stroke-linejoin:round;">
<text x="92519.7" y="4586.61"
textLength="546.494" font-size="682.415" lengthAdjust="spacingAndGlyphs"
text-anchor="start" opacity="0">5</text>
<path d="M92914 4050
L92671 4050
L92646 4294
L92671 4269
L92719 4245
L92841 4245
L92890 4269
L92914 4294
L92939 4342
L92939 4464
L92914 4513
L92890 4537
L92841 4562
L92719 4562
L92671 4537
L92646 4513
" />
</g>
<g style="fill:#000000; fill-opacity:0.0; 
stroke:#000000; stroke-width:39.3701; stroke-opacity:1; 
stroke-linecap:round; stroke-linejoin:round;">
</g>
<g style="fill:#000000; fill-opacity:0.0; 
stroke:#000000; stroke-width:59.0551; stroke-opacity:1; 
stroke-linecap:round; stroke-linejoin:round;">
<text x="112205" y="4586.61"
textLength="546.494" font-size="682.415" lengthAdjust="spacingAndGlyphs"
text-anchor="start" opacity="0">6</text>
<path d="M112575 4050
L112477 4050
L112429 4074
L112404 4099
L112356 4172
L112331 4269
L112331 4464
L112356 4513
L112380 4537
L112429 4562
L112526 4562
L112575 4537
L112599 4513
L112624 4464
L112624 4342
L112599 4294
L112575 4269
L112526 4245
L112429 4245
L112380 4269
L112356 4294
L112331 4342
" />
</g>
<g style="fill:#000000; fill-opacity:0.0; 
stroke:#000000; stroke-width:39.3701; stroke-opacity:1; 
stroke-linecap:round; stroke-linejoin:round;">
</g>
<g style="fill:#000000; fill-opacity:0.0; 
stroke:#000000; stroke-width:59.0551; stroke-opacity:1; 
stroke-linecap:round; stroke-linejoin:round;">
<path d="M23622 77955
L23622 78742
" />
</g>
<g style="fill:#000000; fill-opacity:0.0; 
stroke:#000000; stroke-width:39.3701; stroke-opacity:1; 
stroke-linecap:round; stroke-linejoin:round;">
</g>
<g style="fill:#000000; fill-opacity:0.0; 
stroke:#000000; stroke-width:59.0551; stroke-opacity:1; 
stroke-linecap:round; stroke-linejoin:round;">
<path d="M43307 77955
L43307 78742
" />
</g>
<g style="fill:#000000; fill-opacity:0.0; 
stroke:#000000; stroke-width:39.3701; stroke-opacity:1; 
stroke-linecap:round; stroke-linejoin:round;">
</g>
<g style="fill:#000000; fill-opacity:0.0; 
stroke:#000000; stroke-width:59.0551; stroke-opacity:1; 
stroke-linecap:round; stroke-linejoin:round;">
<path d="M62992 77955
L62992 78742
" />
</g>
<g style="fill:#000000; fill-opacity:0.0; 
stroke:#000000; stroke-width:39.3701; stroke-opacity:1; 
stroke-linecap:round; stroke-linejoin:round;">
</g>
<g style="fill:#000000; fill-opacity:0.0; 
stroke:#000000; stroke-width:59.0551; stroke-opacity:1; 
stroke-linecap:round; stroke-linejoin:round;">
<path d="M82677 77955
L82677 78742
" />
</g>
<g style="fill:#000000; fill-opacity:0.0; 
stroke:#000000; stroke-width:39.3701; stroke-opacity:1; 
stroke-linecap:round; stroke-linejoin:round;">
</g>
<g style="fill:#000000; fill-opacity:0.0; 
stroke:#000000; stroke-width:59.0551; stroke-opacity:1; 
stroke-linecap:round; stroke-linejoin:round;">
<path d="M102362 77955
L102362 78742
" />
</g>
<g style="fill:#000000; fill-opacity:0.0; 
stroke:#000000; stroke-width:39.3701; stroke-opacity:1; 
stroke-linecap:round; stroke-linejoin:round;">
</g>
<g style="fill:#000000; fill-opacity:0.0; 
stroke:#000000; stroke-width:59.0551; stroke-opacity:1; 
stroke-linecap:round; stroke-linejoin:round;">
<text x="13779.5" y="78605.2"
textLength="546.494" font-size="682.415" lengthAdjust="spacingAndGlyphs"
text-anchor="start" opacity="0">1</text>
<path d="M14199 78580
L13906 78580
" />
<path d="M14052 78580
L14052 78069
L14004 78142
L13955 78190
L13906 78215
" />
</g>
<g style="fill:#000000; fill-opacity:0.0; 
stroke:#000000; stroke-width:39.3701; stroke-opacity:1; 
stroke-linecap:round; stroke-linejoin:round;">
</g>
<g style="fill:#000000; fill-opacity:0.0; 
stroke:#000000; stroke-width:59.0551; stroke-opacity:1; 
stroke-linecap:round; stroke-linejoin:round;">
<text x="33464.6" y="78605.2"
textLength="546.494" font-size="682.415" lengthAdjust="spacingAndGlyphs"
text-anchor="start" opacity="0">2</text>
<path d="M33591 78117
L33615 78093
L33664 78069
L33786 78069
L33835 78093
L33859 78117
L33884 78166
L33884 78215
L33859 78288
L33567 78580
L33884 78580
" />
</g>
<g style="fill:#000000; fill-opacity:0.0; 
stroke:#000000; stroke-width:39.3701; stroke-opacity:1; 
stroke-linecap:round; stroke-linejoin:round;">
</g>
<g style="fill:#000000; fill-opacity:0.0; 
stroke:#000000; stroke-width:59.0551; stroke-opacity:1; 
stroke-linecap:round; stroke-linejoin:round;">
<text x="53149.6" y="78605.2"
textLength="546.494" font-size="682.415" lengthAdjust="spacingAndGlyphs"
text-anchor="start" opacity="0">3</text>
<path d="M53252 78069
L53569 78069
L53398 78263
L53471 78263
L53520 78288
L53544 78312
L53569 78361
L53569 78483
L53544 78532
L53520 78556
L53471 78580
L53325 78580
L53276 78556
L53252 78532
" />
</g>
<g style="fill:#000000; fill-opacity:0.0; 
stroke:#000000; stroke-width:39.3701; stroke-opacity:1; 
stroke-linecap:round; stroke-linejoin:round;">
</g>
<g style="fill:#000000; fill-opacity:0.0; 
stroke:#000000; stroke-width:59.0551; stroke-opacity:1; 
stroke-linecap:round; stroke-linejoin:round;">
<text x="72834.6" y="78605.2"
textLength="546.494" font-size="682.415" lengthAdjust="spacingAndGlyphs"
text-anchor="start" opacity="0">4</text>
<path d="M73205 78239
L73205 78580
" />
<path d="M73083 78044
L72961 78410
L73278 78410
" />
</g>
<g style="fill:#000000; fill-opacity:0.0; 
stroke:#000000; stroke-width:39.3701; stroke-opacity:1; 
stroke-linecap:round; stroke-linejoin:round;">
</g>
<g style="fill:#000000; fill-opacity:0.0; 
stroke:#000000; stroke-width:59.0551; stroke-opacity:1; 
stroke-linecap:round; stroke-linejoin:round;">
<text x="92519.7" y="78605.2"
textLength="546.494" font-size="682.415" lengthAdjust="spacingAndGlyphs"
text-anchor="start" opacity="0">5</text>
<path d="M92914 78069
L92671 78069
L92646 78312
L92671 78288
L92719 78263
L92841 78263
L92890 78288
L92914 78312
L92939 78361
L92939 78483
L92914 78532
L92890 78556
L92841 78580
L92719 78580
L92671 78556
L92646 78532
" />
</g>
<g style="fill:#000000; fill-opacity:0.0; 
stroke:#000000; stroke-width:39.3701; stroke-opacity:1; 
stroke-linecap:round; stroke-linejoin:round;">
</g>
<g style="fill:#000000; fill-opacity:0.0; 
stroke:#000000; stroke-width:59.0551; stroke-opacity:1; 
stroke-linecap:round; stroke-linejoin:round;">
<text x="112205" y="78605.2"
textLength="546.494" font-size="682.415" lengthAdjust="spacingAndGlyphs"
text-anchor="start" opacity="0">6</text>
<path d="M112575 78069
L112477 78069
L112429 78093
L112404 78117
L112356 78190
L112331 78288
L112331 78483
L112356 78532
L112380 78556
L112429 78580
L112526 78580
L112575 78556
L112599 78532
L112624 78483
L112624 78361
L112599 78312
L112575 78288
L112526 78263
L112429 78263
L112380 78288
L112356 78312
L112331 78361
" />
</g>
<g style="fill:#000000; fill-opacity:0.0; 
stroke:#000000; stroke-width:39.3701; stroke-opacity:1; 
stroke-linecap:round; stroke-linejoin:round;">
</g>
<g style="fill:#000000; fill-opacity:0.0; 
stroke:#000000; stroke-width:59.0551; stroke-opacity:1; 
stroke-linecap:round; stroke-linejoin:round;">
<path d="M3937 23622
L4724 23622
" />
</g>
<g style="fill:#000000; fill-opacity:0.0; 
stroke:#000000; stroke-width:39.3701; stroke-opacity:1; 
stroke-linecap:round; stroke-linejoin:round;">
</g>
<g style="fill:#000000; fill-opacity:0.0; 
stroke:#000000; stroke-width:59.0551; stroke-opacity:1; 
stroke-linecap:round; stroke-linejoin:round;">
<path d="M3937 43307
L4724 43307
" />
</g>
<g style="fill:#000000; fill-opacity:0.0; 
stroke:#000000; stroke-width:39.3701; stroke-opacity:1; 
stroke-linecap:round; stroke-linejoin:round;">
</g>
<g style="fill:#000000; fill-opacity:0.0; 
stroke:#000000; stroke-width:59.0551; stroke-opacity:1; 
stroke-linecap:round; stroke-linejoin:round;">
<path d="M3937 62992
L4724 62992
" />
</g>
<g style="fill:#000000; fill-opacity:0.0; 
stroke:#000000; stroke-width:39.3701; stroke-opacity:1; 
stroke-linecap:round; stroke-linejoin:round;">
</g>
<g style="fill:#000000; fill-opacity:0.0; 
stroke:#000000; stroke-width:59.0551; stroke-opacity:1; 
stroke-linecap:round; stroke-linejoin:round;">
<text x="4330.71" y="14035.4"
textLength="497.75" font-size="682.415" lengthAdjust="spacingAndGlyphs"
text-anchor="middle" opacity="0">A</text>
<path d="M4208 13864
L4452 13864
" />
<path d="M4160 14011
L4330 13499
L4501 14011
" />
</g>
<g style="fill:#000000; fill-opacity:0.0; 
stroke:#000000; stroke-width:39.3701; stroke-opacity:1; 
stroke-linecap:round; stroke-linejoin:round;">
</g>
<g style="fill:#000000; fill-opacity:0.0; 
stroke:#000000; stroke-width:59.0551; stroke-opacity:1; 
stroke-linecap:round; stroke-linejoin:round;">
<text x="4330.71" y="33720.5"
textLength="570.866" font-size="682.415" lengthAdjust="spacingAndGlyphs"
text-anchor="middle" opacity="0">B</text>
<path d="M4367 33428
L4440 33452
L4464 33476
L4489 33525
L4489 33598
L4464 33647
L4440 33671
L4391 33696
L4196 33696
L4196 33184
L4367 33184
L4416 33208
L4440 33233
L4464 33281
L4464 33330
L4440 33379
L4416 33403
L4367 33428
L4196 33428
" />
</g>
<g style="fill:#000000; fill-opacity:0.0; 
stroke:#000000; stroke-width:39.3701; stroke-opacity:1; 
stroke-linecap:round; stroke-linejoin:round;">
</g>
<g style="fill:#000000; fill-opacity:0.0; 
stroke:#000000; stroke-width:59.0551; stroke-opacity:1; 
stroke-linecap:round; stroke-linejoin:round;">
<text x="4330.71" y="53405.5"
textLength="570.866" font-size="682.415" lengthAdjust="spacingAndGlyphs"
text-anchor="middle" opacity="0">C</text>
<path d="M4489 53332
L4464 53356
L4391 53381
L4342 53381
L4269 53356
L4221 53308
L4196 53259
L4172 53161
L4172 53088
L4196 52991
L4221 52942
L4269 52893
L4342 52869
L4391 52869
L4464 52893
L4489 52918
" />
</g>
<g style="fill:#000000; fill-opacity:0.0; 
stroke:#000000; stroke-width:39.3701; stroke-opacity:1; 
stroke-linecap:round; stroke-linejoin:round;">
</g>
<g style="fill:#000000; fill-opacity:0.0; 
stroke:#000000; stroke-width:59.0551; stroke-opacity:1; 
stroke-linecap:round; stroke-linejoin:round;">
<text x="4330.71" y="73090.6"
textLength="570.866" font-size="682.415" lengthAdjust="spacingAndGlyphs"
text-anchor="middle" opacity="0">D</text>
<path d="M4196 73066
L4196 72554
L4318 72554
L4391 72578
L4440 72627
L4464 72676
L4489 72773
L4489 72846
L4464 72944
L4440 72993
L4391 73041
L4318 73066
L4196 73066
" />
</g>
<g style="fill:#000000; fill-opacity:0.0; 
stroke:#000000; stroke-width:39.3701; stroke-opacity:1; 
stroke-linecap:round; stroke-linejoin:round;">
</g>
<g style="fill:#000000; fill-opacity:0.0; 
stroke:#000000; stroke-width:59.0551; stroke-opacity:1; 
stroke-linecap:round; stroke-linejoin:round;">
<path d="M112992 23622
L112205 23622
" />
</g>
<g style="fill:#000000; fill-opacity:0.0; 
stroke:#000000; stroke-width:39.3701; stroke-opacity:1; 
stroke-linecap:round; stroke-linejoin:round;">
</g>
<g style="fill:#000000; fill-opacity:0.0; 
stroke:#000000; stroke-width:59.0551; stroke-opacity:1; 
stroke-linecap:round; stroke-linejoin:round;">
<path d="M112992 43307
L112205 43307
" />
</g>
<g style="fill:#000000; fill-opacity:0.0; 
stroke:#000000; stroke-width:39.3701; stroke-opacity:1; 
stroke-linecap:round; stroke-linejoin:round;">
</g>
<g style="fill:#000000; fill-opacity:0.0; 
stroke:#000000; stroke-width:59.0551; stroke-opacity:1; 
stroke-linecap:round; stroke-linejoin:round;">
<path d="M112992 62992
L112205 62992
" />
</g>
<g style="fill:#000000; fill-opacity:0.0; 
stroke:#000000; stroke-width:39.3701; stroke-opacity:1; 
stroke-linecap:round; stroke-linejoin:round;">
</g>
<g style="fill:#000000; fill-opacity:0.0; 
stroke:#000000; stroke-width:59.0551; stroke-opacity:1; 
stroke-linecap:round; stroke-linejoin:round;">
<text x="112599" y="14035.4"
textLength="497.75" font-size="682.415" lengthAdjust="spacingAndGlyphs"
text-anchor="middle" opacity="0">A</text>
<path d="M112477 13864
L112721 13864
" />
<path d="M112428 14011
L112599 13499
L112769 14011
" />
</g>
<g style="fill:#000000; fill-opacity:0.0; 
stroke:#000000; stroke-width:39.3701; stroke-opacity:1; 
stroke-linecap:round; stroke-linejoin:round;">
</g>
<g style="fill:#000000; fill-opacity:0.0; 
stroke:#000000; stroke-width:59.0551; stroke-opacity:1; 
stroke-linecap:round; stroke-linejoin:round;">
<text x="112599" y="33720.5"
textLength="570.866" font-size="682.415" lengthAdjust="spacingAndGlyphs"
text-anchor="middle" opacity="0">B</text>
<path d="M112635 33428
L112708 33452
L112733 33476
L112757 33525
L112757 33598
L112733 33647
L112708 33671
L112660 33696
L112465 33696
L112465 33184
L112635 33184
L112684 33208
L112708 33233
L112733 33281
L112733 33330
L112708 33379
L112684 33403
L112635 33428
L112465 33428
" />
</g>
<g style="fill:#000000; fill-opacity:0.0; 
stroke:#000000; stroke-width:39.3701; stroke-opacity:1; 
stroke-linecap:round; stroke-linejoin:round;">
</g>
<g style="fill:#000000; fill-opacity:0.0; 
stroke:#000000; stroke-width:59.0551; stroke-opacity:1; 
stroke-linecap:round; stroke-linejoin:round;">
<text x="112599" y="53405.5"
textLength="570.866" font-size="682.415" lengthAdjust="spacingAndGlyphs"
text-anchor="middle" opacity="0">C</text>
<path d="M112757 53332
L112733 53356
L112660 53381
L112611 53381
L112538 53356
L112489 53308
L112465 53259
L112440 53161
L112440 53088
L112465 52991
L112489 52942
L112538 52893
L112611 52869
L112660 52869
L112733 52893
L112757 52918
" />
</g>
<g style="fill:#000000; fill-opacity:0.0; 
stroke:#000000; stroke-width:39.3701; stroke-opacity:1; 
stroke-linecap:round; stroke-linejoin:round;">
</g>
<g style="fill:#000000; fill-opacity:0.0; 
stroke:#000000; stroke-width:59.0551; stroke-opacity:1; 
stroke-linecap:round; stroke-linejoin:round;">
<text x="112599" y="73090.6"
textLength="570.866" font-size="682.415" lengthAdjust="spacingAndGlyphs"
text-anchor="middle" opacity="0">D</text>
<path d="M112465 73066
L112465 72554
L112587 72554
L112660 72578
L112708 72627
L112733 72676
L112757 72773
L112757 72846
L112733 72944
L112708 72993
L112660 73041
L112587 73066
L112465 73066
" />
</g>
<g style="fill:#000000; fill-opacity:0.0; 
stroke:#000000; stroke-width:39.3701; stroke-opacity:1; 
stroke-linecap:round; stroke-linejoin:round;">
</g>
<g style="fill:#000000; fill-opacity:0.0; 
stroke:#000000; stroke-width:59.0551; stroke-opacity:1; 
stroke-linecap:round; stroke-linejoin:round;">
<text x="78741" y="76321.7"
textLength="2758.72" font-size="787.402" lengthAdjust="spacingAndGlyphs"
text-anchor="start" opacity="0">Date: </text>
<path d="M78911 76293
L78911 75703
L79051 75703
L79136 75731
L79192 75787
L79220 75843
L79248 75956
L79248 76040
L79220 76153
L79192 76209
L79136 76265
L79051 76293
L78911 76293
" />
<path d="M79754 76293
L79754 75984
L79726 75928
L79670 75899
L79557 75899
L79501 75928
" />
<path d="M79754 76265
L79698 76293
L79557 76293
L79501 76265
L79473 76209
L79473 76153
L79501 76096
L79557 76068
L79698 76068
L79754 76040
" />
<path d="M79951 75899
L80176 75899
" />
<path d="M80036 75703
L80036 76209
L80064 76265
L80120 76293
L80176 76293
" />
<path d="M80598 76265
L80542 76293
L80429 76293
L80373 76265
L80345 76209
L80345 75984
L80373 75928
L80429 75899
L80542 75899
L80598 75928
L80626 75984
L80626 76040
L80345 76096
" />
<path d="M80879 76237
L80907 76265
L80879 76293
L80851 76265
L80879 76237
L80879 76293
" />
<path d="M80879 75928
L80907 75956
L80879 75984
L80851 75956
L80879 75928
L80879 75984
" />
</g>
<g style="fill:#000000; fill-opacity:0.0; 
stroke:#000000; stroke-width:39.3701; stroke-opacity:1; 
stroke-linecap:round; stroke-linejoin:round;">
</g>
<g style="fill:#000000; fill-opacity:0.0; 
stroke:#000000; stroke-width:59.0551; stroke-opacity:1; 
stroke-linecap:round; stroke-linejoin:round;">
<path d="M69685 76577
L112205 76577
" />
</g>
<g style="fill:#000000; fill-opacity:0.0; 
stroke:#000000; stroke-width:39.3701; stroke-opacity:1; 
stroke-linecap:round; stroke-linejoin:round;">
</g>
<g style="fill:#000000; fill-opacity:0.0; 
stroke:#000000; stroke-width:59.0551; stroke-opacity:1; 
stroke-linecap:round; stroke-linejoin:round;">
<text x="70079.6" y="77424.1"
textLength="23568.6" font-size="787.402" lengthAdjust="spacingAndGlyphs"
text-anchor="start" opacity="0">KiCad E.D.A.  kicad 5.1.5-52549c5~84~ubuntu18.04.1</text>
<path d="M70249 77395
L70249 76805
" />
<path d="M70587 77395
L70334 77058
" />
<path d="M70587 76805
L70249 77142
" />
<path d="M70840 77395
L70840 77002
" />
<path d="M70840 76805
L70812 76833
L70840 76861
L70868 76833
L70840 76805
L70840 76861
" />
<path d="M71458 77339
L71430 77367
L71346 77395
L71290 77395
L71205 77367
L71149 77311
L71121 77255
L71093 77142
L71093 77058
L71121 76946
L71149 76889
L71205 76833
L71290 76805
L71346 76805
L71430 76833
L71458 76861
" />
<path d="M71965 77395
L71965 77086
L71937 77030
L71880 77002
L71768 77002
L71712 77030
" />
<path d="M71965 77367
L71908 77395
L71768 77395
L71712 77367
L71683 77311
L71683 77255
L71712 77199
L71768 77171
L71908 77171
L71965 77142
" />
<path d="M72499 77395
L72499 76805
" />
<path d="M72499 77367
L72443 77395
L72330 77395
L72274 77367
L72246 77339
L72218 77283
L72218 77114
L72246 77058
L72274 77030
L72330 77002
L72443 77002
L72499 77030
" />
<path d="M73230 77086
L73427 77086
" />
<path d="M73511 77395
L73230 77395
L73230 76805
L73511 76805
" />
<path d="M73764 77339
L73793 77367
L73764 77395
L73736 77367
L73764 77339
L73764 77395
" />
<path d="M74046 77395
L74046 76805
L74186 76805
L74271 76833
L74327 76889
L74355 76946
L74383 77058
L74383 77142
L74355 77255
L74327 77311
L74271 77367
L74186 77395
L74046 77395
" />
<path d="M74636 77339
L74664 77367
L74636 77395
L74608 77367
L74636 77339
L74636 77395
" />
<path d="M74889 77227
L75171 77227
" />
<path d="M74833 77395
L75030 76805
L75227 77395
" />
<path d="M75424 77339
L75452 77367
L75424 77395
L75395 77367
L75424 77339
L75424 77395
" />
<path d="M76605 77395
L76605 76805
" />
<path d="M76661 77171
L76830 77395
" />
<path d="M76830 77002
L76605 77227
" />
<path d="M77083 77395
L77083 77002
" />
<path d="M77083 76805
L77055 76833
L77083 76861
L77111 76833
L77083 76805
L77083 76861
" />
<path d="M77617 77367
L77561 77395
L77448 77395
L77392 77367
L77364 77339
L77336 77283
L77336 77114
L77364 77058
L77392 77030
L77448 77002
L77561 77002
L77617 77030
" />
<path d="M78123 77395
L78123 77086
L78095 77030
L78039 77002
L77926 77002
L77870 77030
" />
<path d="M78123 77367
L78067 77395
L77926 77395
L77870 77367
L77842 77311
L77842 77255
L77870 77199
L77926 77171
L78067 77171
L78123 77142
" />
<path d="M78658 77395
L78658 76805
" />
<path d="M78658 77367
L78601 77395
L78489 77395
L78433 77367
L78404 77339
L78376 77283
L78376 77114
L78404 77058
L78433 77030
L78489 77002
L78601 77002
L78658 77030
" />
<path d="M79670 76805
L79389 76805
L79361 77086
L79389 77058
L79445 77030
L79586 77030
L79642 77058
L79670 77086
L79698 77142
L79698 77283
L79670 77339
L79642 77367
L79586 77395
L79445 77395
L79389 77367
L79361 77339
" />
<path d="M79951 77339
L79979 77367
L79951 77395
L79923 77367
L79951 77339
L79951 77395
" />
<path d="M80542 77395
L80204 77395
" />
<path d="M80373 77395
L80373 76805
L80317 76889
L80260 76946
L80204 76974
" />
<path d="M80795 77339
L80823 77367
L80795 77395
L80767 77367
L80795 77339
L80795 77395
" />
<path d="M81357 76805
L81076 76805
L81048 77086
L81076 77058
L81132 77030
L81273 77030
L81329 77058
L81357 77086
L81385 77142
L81385 77283
L81357 77339
L81329 77367
L81273 77395
L81132 77395
L81076 77367
L81048 77339
" />
<path d="M81638 77171
L82088 77171
" />
<path d="M82651 76805
L82370 76805
L82341 77086
L82370 77058
L82426 77030
L82566 77030
L82623 77058
L82651 77086
L82679 77142
L82679 77283
L82651 77339
L82623 77367
L82566 77395
L82426 77395
L82370 77367
L82341 77339
" />
<path d="M82904 76861
L82932 76833
L82988 76805
L83129 76805
L83185 76833
L83213 76861
L83241 76917
L83241 76974
L83213 77058
L82876 77395
L83241 77395
" />
<path d="M83776 76805
L83494 76805
L83466 77086
L83494 77058
L83551 77030
L83691 77030
L83748 77058
L83776 77086
L83804 77142
L83804 77283
L83776 77339
L83748 77367
L83691 77395
L83551 77395
L83494 77367
L83466 77339
" />
<path d="M84310 77002
L84310 77395
" />
<path d="M84169 76777
L84029 77199
L84394 77199
" />
<path d="M84647 77395
L84760 77395
L84816 77367
L84844 77339
L84901 77255
L84929 77142
L84929 76917
L84901 76861
L84872 76833
L84816 76805
L84704 76805
L84647 76833
L84619 76861
L84591 76917
L84591 77058
L84619 77114
L84647 77142
L84704 77171
L84816 77171
L84872 77142
L84901 77114
L84929 77058
" />
<path d="M85435 77367
L85379 77395
L85266 77395
L85210 77367
L85182 77339
L85154 77283
L85154 77114
L85182 77058
L85210 77030
L85266 77002
L85379 77002
L85435 77030
" />
<path d="M85969 76805
L85688 76805
L85660 77086
L85688 77058
L85744 77030
L85885 77030
L85941 77058
L85969 77086
L85997 77142
L85997 77283
L85969 77339
L85941 77367
L85885 77395
L85744 77395
L85688 77367
L85660 77339
" />
<path d="M86110 76644
L86672 76644
" />
<path d="M86335 77058
L86278 77030
L86250 77002
L86222 76946
L86222 76917
L86250 76861
L86278 76833
L86335 76805
L86447 76805
L86503 76833
L86532 76861
L86560 76917
L86560 76946
L86532 77002
L86503 77030
L86447 77058
L86335 77058
L86278 77086
L86250 77114
L86222 77171
L86222 77283
L86250 77339
L86278 77367
L86335 77395
L86447 77395
L86503 77367
L86532 77339
L86560 77283
L86560 77171
L86532 77114
L86503 77086
L86447 77058
" />
<path d="M86672 76644
L87235 76644
" />
<path d="M87066 77002
L87066 77395
" />
<path d="M86925 76777
L86785 77199
L87150 77199
" />
<path d="M87628 77002
L87628 77395
" />
<path d="M87375 77002
L87375 77311
L87403 77367
L87460 77395
L87544 77395
L87600 77367
L87628 77339
" />
<path d="M87910 77395
L87910 76805
" />
<path d="M87910 77030
L87966 77002
L88078 77002
L88135 77030
L88163 77058
L88191 77114
L88191 77283
L88163 77339
L88135 77367
L88078 77395
L87966 77395
L87910 77367
" />
<path d="M88697 77002
L88697 77395
" />
<path d="M88444 77002
L88444 77311
L88472 77367
L88528 77395
L88613 77395
L88669 77367
L88697 77339
" />
<path d="M88978 77002
L88978 77395
" />
<path d="M88978 77058
L89006 77030
L89063 77002
L89147 77002
L89203 77030
L89231 77086
L89231 77395
" />
<path d="M89428 77002
L89653 77002
" />
<path d="M89512 76805
L89512 77311
L89541 77367
L89597 77395
L89653 77395
" />
<path d="M90103 77002
L90103 77395
" />
<path d="M89850 77002
L89850 77311
L89878 77367
L89934 77395
L90019 77395
L90075 77367
L90103 77339
" />
<path d="M90694 77395
L90356 77395
" />
<path d="M90525 77395
L90525 76805
L90469 76889
L90412 76946
L90356 76974
" />
<path d="M91031 77058
L90975 77030
L90947 77002
L90919 76946
L90919 76917
L90947 76861
L90975 76833
L91031 76805
L91144 76805
L91200 76833
L91228 76861
L91256 76917
L91256 76946
L91228 77002
L91200 77030
L91144 77058
L91031 77058
L90975 77086
L90947 77114
L90919 77171
L90919 77283
L90947 77339
L90975 77367
L91031 77395
L91144 77395
L91200 77367
L91228 77339
L91256 77283
L91256 77171
L91228 77114
L91200 77086
L91144 77058
" />
<path d="M91509 77339
L91537 77367
L91509 77395
L91481 77367
L91509 77339
L91509 77395
" />
<path d="M91903 76805
L91959 76805
L92015 76833
L92043 76861
L92072 76917
L92100 77030
L92100 77171
L92072 77283
L92043 77339
L92015 77367
L91959 77395
L91903 77395
L91847 77367
L91818 77339
L91790 77283
L91762 77171
L91762 77030
L91790 76917
L91818 76861
L91847 76833
L91903 76805
" />
<path d="M92606 77002
L92606 77395
" />
<path d="M92465 76777
L92325 77199
L92690 77199
" />
<path d="M92915 77339
L92943 77367
L92915 77395
L92887 77367
L92915 77339
L92915 77395
" />
<path d="M93506 77395
L93168 77395
" />
<path d="M93337 77395
L93337 76805
L93281 76889
L93224 76946
L93168 76974
" />
</g>
<g style="fill:#000000; fill-opacity:0.0; 
stroke:#000000; stroke-width:39.3701; stroke-opacity:1; 
stroke-linecap:round; stroke-linejoin:round;">
</g>
<g style="fill:#000000; fill-opacity:0.0; 
stroke:#000000; stroke-width:59.0551; stroke-opacity:1; 
stroke-linecap:round; stroke-linejoin:round;">
<path d="M69685 75396
L112205 75396
" />
</g>
<g style="fill:#000000; fill-opacity:0.0; 
stroke:#000000; stroke-width:39.3701; stroke-opacity:1; 
stroke-linecap:round; stroke-linejoin:round;">
</g>
<g style="fill:#000000; fill-opacity:0.0; 
stroke:#000000; stroke-width:118.11; stroke-opacity:1; 
stroke-linecap:round; stroke-linejoin:round;">
<text x="103544" y="76321.7"
textLength="2336.9" font-size="787.402" lengthAdjust="spacingAndGlyphs"
text-anchor="start" opacity="0">Rev: </text>
<path d="M104099 76293
L103902 76012
" />
<path d="M103761 76293
L103761 75703
L103986 75703
L104042 75731
L104070 75759
L104099 75815
L104099 75899
L104070 75956
L104042 75984
L103986 76012
L103761 76012
" />
<path d="M104577 76265
L104520 76293
L104408 76293
L104352 76265
L104323 76209
L104323 75984
L104352 75928
L104408 75899
L104520 75899
L104577 75928
L104605 75984
L104605 76040
L104323 76096
" />
<path d="M104802 75899
L104942 76293
L105083 75899
" />
<path d="M105308 76237
L105336 76265
L105308 76293
L105280 76265
L105308 76237
L105308 76293
" />
<path d="M105308 75928
L105336 75956
L105308 75984
L105280 75956
L105308 75928
L105308 75984
" />
</g>
<g style="fill:#000000; fill-opacity:0.0; 
stroke:#000000; stroke-width:39.3701; stroke-opacity:1; 
stroke-linecap:round; stroke-linejoin:round;">
</g>
<g style="fill:#000000; fill-opacity:0.0; 
stroke:#000000; stroke-width:59.0551; stroke-opacity:1; 
stroke-linecap:round; stroke-linejoin:round;">
<text x="70079.6" y="76321.7"
textLength="3781.21" font-size="787.402" lengthAdjust="spacingAndGlyphs"
text-anchor="start" opacity="0">Size: A4</text>
<path d="M70221 76265
L70305 76293
L70446 76293
L70502 76265
L70530 76237
L70559 76181
L70559 76124
L70530 76068
L70502 76040
L70446 76012
L70334 75984
L70277 75956
L70249 75928
L70221 75871
L70221 75815
L70249 75759
L70277 75731
L70334 75703
L70474 75703
L70559 75731
" />
<path d="M70812 76293
L70812 75899
" />
<path d="M70812 75703
L70784 75731
L70812 75759
L70840 75731
L70812 75703
L70812 75759
" />
<path d="M71037 75899
L71346 75899
L71037 76293
L71346 76293
" />
<path d="M71796 76265
L71740 76293
L71627 76293
L71571 76265
L71543 76209
L71543 75984
L71571 75928
L71627 75899
L71740 75899
L71796 75928
L71824 75984
L71824 76040
L71543 76096
" />
<path d="M72077 76237
L72105 76265
L72077 76293
L72049 76265
L72077 76237
L72077 76293
" />
<path d="M72077 75928
L72105 75956
L72077 75984
L72049 75956
L72077 75928
L72077 75984
" />
<path d="M72780 76124
L73061 76124
" />
<path d="M72724 76293
L72921 75703
L73118 76293
" />
<path d="M73568 75899
L73568 76293
" />
<path d="M73427 75674
L73286 76096
L73652 76096
" />
</g>
<g style="fill:#000000; fill-opacity:0.0; 
stroke:#000000; stroke-width:39.3701; stroke-opacity:1; 
stroke-linecap:round; stroke-linejoin:round;">
</g>
<g style="fill:#000000; fill-opacity:0.0; 
stroke:#000000; stroke-width:59.0551; stroke-opacity:1; 
stroke-linecap:round; stroke-linejoin:round;">
<text x="103544" y="77424.1"
textLength="3349.27" font-size="787.402" lengthAdjust="spacingAndGlyphs"
text-anchor="start" opacity="0">Id: 1/1</text>
<path d="M103714 77395
L103714 76805
" />
<path d="M104248 77395
L104248 76805
" />
<path d="M104248 77367
L104192 77395
L104079 77395
L104023 77367
L103995 77339
L103967 77283
L103967 77114
L103995 77058
L104023 77030
L104079 77002
L104192 77002
L104248 77030
" />
<path d="M104529 77339
L104557 77367
L104529 77395
L104501 77367
L104529 77339
L104529 77395
" />
<path d="M104529 77030
L104557 77058
L104529 77086
L104501 77058
L104529 77030
L104529 77086
" />
<path d="M105570 77395
L105232 77395
" />
<path d="M105401 77395
L105401 76805
L105345 76889
L105289 76946
L105232 76974
" />
<path d="M106245 76777
L105739 77536
" />
<path d="M106751 77395
L106413 77395
" />
<path d="M106582 77395
L106582 76805
L106526 76889
L106470 76946
L106413 76974
" />
</g>
<g style="fill:#000000; fill-opacity:0.0; 
stroke:#000000; stroke-width:39.3701; stroke-opacity:1; 
stroke-linecap:round; stroke-linejoin:round;">
</g>
<g style="fill:#000000; fill-opacity:0.0; 
stroke:#000000; stroke-width:59.0551; stroke-opacity:1; 
stroke-linecap:round; stroke-linejoin:round;">
<path d="M69685 73821
L112205 73821
" />
</g>
<g style="fill:#000000; fill-opacity:0.0; 
stroke:#000000; stroke-width:39.3701; stroke-opacity:1; 
stroke-linecap:round; stroke-linejoin:round;">
</g>
<g style="fill:#000000; fill-opacity:0.0; 
stroke:#000000; stroke-width:157.48; stroke-opacity:1; 
stroke-linecap:round; stroke-linejoin:round;">
<text x="70079.6" y="74924.1"
textLength="3701.14" font-size="1049.87" lengthAdjust="spacingAndGlyphs"
text-anchor="start" opacity="0">Title: </text>
<path d="M70360 74099
L70810 74099
" />
<path d="M70486 74886
L70585 74099
" />
<path d="M70974 74886
L71039 74361
" />
<path d="M71072 74099
L71030 74136
L71063 74174
L71105 74136
L71072 74099
L71063 74174
" />
<path d="M71302 74361
L71602 74361
" />
<path d="M71447 74099
L71363 74774
L71391 74849
L71461 74886
L71536 74886
" />
<path d="M71911 74886
L71841 74849
L71813 74774
L71897 74099
" />
<path d="M72516 74849
L72436 74886
L72286 74886
L72216 74849
L72187 74774
L72225 74474
L72272 74399
L72352 74361
L72501 74361
L72572 74399
L72600 74474
L72591 74549
L72206 74624
" />
<path d="M72895 74811
L72928 74849
L72886 74886
L72853 74849
L72895 74811
L72886 74886
" />
<path d="M72947 74399
L72980 74436
L72937 74474
L72905 74436
L72947 74399
L72937 74474
" />
</g>
<g style="fill:#000000; fill-opacity:0.0; 
stroke:#000000; stroke-width:39.3701; stroke-opacity:1; 
stroke-linecap:round; stroke-linejoin:round;">
</g>
<g style="fill:#000000; fill-opacity:0.0; 
stroke:#000000; stroke-width:59.0551; stroke-opacity:1; 
stroke-linecap:round; stroke-linejoin:round;">
<text x="70079.6" y="73408.3"
textLength="13590.6" font-size="787.402" lengthAdjust="spacingAndGlyphs"
text-anchor="start" opacity="0">File: motor-control.kicad_pcb</text>
<path d="M70446 73070
L70249 73070
" />
<path d="M70249 73380
L70249 72789
L70530 72789
" />
<path d="M70755 73380
L70755 72986
" />
<path d="M70755 72789
L70727 72817
L70755 72845
L70784 72817
L70755 72789
L70755 72845
" />
<path d="M71121 73380
L71065 73352
L71037 73295
L71037 72789
" />
<path d="M71571 73352
L71515 73380
L71402 73380
L71346 73352
L71318 73295
L71318 73070
L71346 73014
L71402 72986
L71515 72986
L71571 73014
L71599 73070
L71599 73127
L71318 73183
" />
<path d="M71852 73323
L71880 73352
L71852 73380
L71824 73352
L71852 73323
L71852 73380
" />
<path d="M71852 73014
L71880 73042
L71852 73070
L71824 73042
L71852 73014
L71852 73070
" />
<path d="M72583 73380
L72583 72986
" />
<path d="M72583 73042
L72611 73014
L72668 72986
L72752 72986
L72808 73014
L72836 73070
L72836 73380
" />
<path d="M72836 73070
L72865 73014
L72921 72986
L73005 72986
L73061 73014
L73090 73070
L73090 73380
" />
<path d="M73455 73380
L73399 73352
L73371 73323
L73343 73267
L73343 73099
L73371 73042
L73399 73014
L73455 72986
L73539 72986
L73596 73014
L73624 73042
L73652 73099
L73652 73267
L73624 73323
L73596 73352
L73539 73380
L73455 73380
" />
<path d="M73821 72986
L74046 72986
" />
<path d="M73905 72789
L73905 73295
L73933 73352
L73989 73380
L74046 73380
" />
<path d="M74327 73380
L74271 73352
L74242 73323
L74214 73267
L74214 73099
L74242 73042
L74271 73014
L74327 72986
L74411 72986
L74467 73014
L74496 73042
L74524 73099
L74524 73267
L74496 73323
L74467 73352
L74411 73380
L74327 73380
" />
<path d="M74777 73380
L74777 72986
" />
<path d="M74777 73099
L74805 73042
L74833 73014
L74889 72986
L74946 72986
" />
<path d="M75142 73155
L75592 73155
" />
<path d="M76127 73352
L76070 73380
L75958 73380
L75902 73352
L75874 73323
L75845 73267
L75845 73099
L75874 73042
L75902 73014
L75958 72986
L76070 72986
L76127 73014
" />
<path d="M76464 73380
L76408 73352
L76380 73323
L76352 73267
L76352 73099
L76380 73042
L76408 73014
L76464 72986
L76548 72986
L76605 73014
L76633 73042
L76661 73099
L76661 73267
L76633 73323
L76605 73352
L76548 73380
L76464 73380
" />
<path d="M76914 72986
L76914 73380
" />
<path d="M76914 73042
L76942 73014
L76998 72986
L77083 72986
L77139 73014
L77167 73070
L77167 73380
" />
<path d="M77364 72986
L77589 72986
" />
<path d="M77448 72789
L77448 73295
L77476 73352
L77533 73380
L77589 73380
" />
<path d="M77786 73380
L77786 72986
" />
<path d="M77786 73099
L77814 73042
L77842 73014
L77898 72986
L77955 72986
" />
<path d="M78236 73380
L78180 73352
L78151 73323
L78123 73267
L78123 73099
L78151 73042
L78180 73014
L78236 72986
L78320 72986
L78376 73014
L78404 73042
L78433 73099
L78433 73267
L78404 73323
L78376 73352
L78320 73380
L78236 73380
" />
<path d="M78770 73380
L78714 73352
L78686 73295
L78686 72789
" />
<path d="M78995 73323
L79023 73352
L78995 73380
L78967 73352
L78995 73323
L78995 73380
" />
<path d="M79276 73380
L79276 72789
" />
<path d="M79332 73155
L79501 73380
" />
<path d="M79501 72986
L79276 73211
" />
<path d="M79754 73380
L79754 72986
" />
<path d="M79754 72789
L79726 72817
L79754 72845
L79782 72817
L79754 72789
L79754 72845
" />
<path d="M80289 73352
L80232 73380
L80120 73380
L80064 73352
L80036 73323
L80007 73267
L80007 73099
L80036 73042
L80064 73014
L80120 72986
L80232 72986
L80289 73014
" />
<path d="M80795 73380
L80795 73070
L80767 73014
L80710 72986
L80598 72986
L80542 73014
" />
<path d="M80795 73352
L80739 73380
L80598 73380
L80542 73352
L80514 73295
L80514 73239
L80542 73183
L80598 73155
L80739 73155
L80795 73127
" />
<path d="M81329 73380
L81329 72789
" />
<path d="M81329 73352
L81273 73380
L81160 73380
L81104 73352
L81076 73323
L81048 73267
L81048 73099
L81076 73042
L81104 73014
L81160 72986
L81273 72986
L81329 73014
" />
<path d="M81470 73436
L81920 73436
" />
<path d="M82060 72986
L82060 73577
" />
<path d="M82060 73014
L82117 72986
L82229 72986
L82285 73014
L82313 73042
L82341 73099
L82341 73267
L82313 73323
L82285 73352
L82229 73380
L82117 73380
L82060 73352
" />
<path d="M82848 73352
L82791 73380
L82679 73380
L82623 73352
L82595 73323
L82566 73267
L82566 73099
L82595 73042
L82623 73014
L82679 72986
L82791 72986
L82848 73014
" />
<path d="M83101 73380
L83101 72789
" />
<path d="M83101 73014
L83157 72986
L83269 72986
L83326 73014
L83354 73042
L83382 73099
L83382 73267
L83354 73323
L83326 73352
L83269 73380
L83157 73380
L83101 73352
" />
</g>
<g style="fill:#000000; fill-opacity:0.0; 
stroke:#000000; stroke-width:39.3701; stroke-opacity:1; 
stroke-linecap:round; stroke-linejoin:round;">
</g>
<g style="fill:#000000; fill-opacity:0.0; 
stroke:#000000; stroke-width:59.0551; stroke-opacity:1; 
stroke-linecap:round; stroke-linejoin:round;">
<path d="M69685 71459
L112205 71459
" />
</g>
<g style="fill:#000000; fill-opacity:0.0; 
stroke:#000000; stroke-width:39.3701; stroke-opacity:1; 
stroke-linecap:round; stroke-linejoin:round;">
</g>
<g style="fill:#000000; fill-opacity:0.0; 
stroke:#000000; stroke-width:59.0551; stroke-opacity:1; 
stroke-linecap:round; stroke-linejoin:round;">
<text x="70079.6" y="72345.4"
textLength="3236.78" font-size="787.402" lengthAdjust="spacingAndGlyphs"
text-anchor="start" opacity="0">Sheet: </text>
<path d="M70221 72289
L70305 72317
L70446 72317
L70502 72289
L70530 72260
L70559 72204
L70559 72148
L70530 72092
L70502 72064
L70446 72036
L70334 72007
L70277 71979
L70249 71951
L70221 71895
L70221 71839
L70249 71782
L70277 71754
L70334 71726
L70474 71726
L70559 71754
" />
<path d="M70812 72317
L70812 71726
" />
<path d="M71065 72317
L71065 72007
L71037 71951
L70980 71923
L70896 71923
L70840 71951
L70812 71979
" />
<path d="M71571 72289
L71515 72317
L71402 72317
L71346 72289
L71318 72232
L71318 72007
L71346 71951
L71402 71923
L71515 71923
L71571 71951
L71599 72007
L71599 72064
L71318 72120
" />
<path d="M72077 72289
L72021 72317
L71908 72317
L71852 72289
L71824 72232
L71824 72007
L71852 71951
L71908 71923
L72021 71923
L72077 71951
L72105 72007
L72105 72064
L71824 72120
" />
<path d="M72274 71923
L72499 71923
" />
<path d="M72358 71726
L72358 72232
L72386 72289
L72443 72317
L72499 72317
" />
<path d="M72696 72260
L72724 72289
L72696 72317
L72668 72289
L72696 72260
L72696 72317
" />
<path d="M72696 71951
L72724 71979
L72696 72007
L72668 71979
L72696 71951
L72696 72007
" />
</g>
<g style="fill:#000000; fill-opacity:0.0; 
stroke:#000000; stroke-width:39.3701; stroke-opacity:1; 
stroke-linecap:round; stroke-linejoin:round;">
</g>
<g style="fill:#000000; fill-opacity:0.0; 
stroke:#000000; stroke-width:59.0551; stroke-opacity:1; 
stroke-linecap:round; stroke-linejoin:round;">
<path d="M77559 75396
L77559 76577
" />
</g>
<g style="fill:#000000; fill-opacity:0.0; 
stroke:#000000; stroke-width:39.3701; stroke-opacity:1; 
stroke-linecap:round; stroke-linejoin:round;">
</g>
<g style="fill:#000000; fill-opacity:0.0; 
stroke:#000000; stroke-width:59.0551; stroke-opacity:1; 
stroke-linecap:round; stroke-linejoin:round;">
<path d="M102756 75396
L102756 77955
" />
</g>
<g style="fill:#000000; fill-opacity:0.0; 
stroke:#000000; stroke-width:78.7402; stroke-opacity:1; 
stroke-linecap:round; stroke-linejoin:round;">
<text x="47440.9" y="27165.4"
textLength="1108.92" font-size="524.934" lengthAdjust="spacingAndGlyphs"
text-anchor="middle" opacity="0">12v</text>
<path d="M47215 27146
L46991 27146
" />
<path d="M47103 27146
L47103 26752
L47065 26809
L47028 26846
L46991 26865
" />
<path d="M47365 26790
L47384 26771
L47422 26752
L47515 26752
L47553 26771
L47572 26790
L47590 26827
L47590 26865
L47572 26921
L47347 27146
L47590 27146
" />
<path d="M47722 26884
L47815 27146
L47909 26884
" />
<text x="45964.6" y="27165.4"
textLength="1302.21" font-size="524.934" lengthAdjust="spacingAndGlyphs"
text-anchor="middle" opacity="0">GND</text>
<path d="M45664 26771
L45627 26752
L45570 26752
L45514 26771
L45477 26809
L45458 26846
L45439 26921
L45439 26977
L45458 27052
L45477 27090
L45514 27127
L45570 27146
L45608 27146
L45664 27127
L45683 27109
L45683 26977
L45608 26977
" />
<path d="M45852 27146
L45852 26752
L46077 27146
L46077 26752
" />
<path d="M46264 27146
L46264 26752
L46358 26752
L46414 26771
L46452 26809
L46470 26846
L46489 26921
L46489 26977
L46470 27052
L46452 27090
L46414 27127
L46358 27146
L46264 27146
" />
<text x="44685" y="27165.4"
textLength="1302.21" font-size="524.934" lengthAdjust="spacingAndGlyphs"
text-anchor="middle" opacity="0">GND</text>
<path d="M44385 26771
L44347 26752
L44291 26752
L44235 26771
L44197 26809
L44178 26846
L44160 26921
L44160 26977
L44178 27052
L44197 27090
L44235 27127
L44291 27146
L44328 27146
L44385 27127
L44403 27109
L44403 26977
L44328 26977
" />
<path d="M44572 27146
L44572 26752
L44797 27146
L44797 26752
" />
<path d="M44985 27146
L44985 26752
L45078 26752
L45134 26771
L45172 26809
L45191 26846
L45209 26921
L45209 26977
L45191 27052
L45172 27090
L45134 27127
L45078 27146
L44985 27146
" />
<text x="43503.9" y="27165.4"
textLength="1245.97" font-size="524.934" lengthAdjust="spacingAndGlyphs"
text-anchor="middle" opacity="0">TMP</text>
<path d="M42969 26752
L43194 26752
" />
<path d="M43082 27146
L43082 26752
" />
<path d="M43325 27146
L43325 26752
L43457 27034
L43588 26752
L43588 27146
" />
<path d="M43775 27146
L43775 26752
L43925 26752
L43963 26771
L43982 26790
L44000 26827
L44000 26884
L43982 26921
L43963 26940
L43925 26959
L43775 26959
" />
<text x="42322.8" y="27165.4"
textLength="1152.23" font-size="524.934" lengthAdjust="spacingAndGlyphs"
text-anchor="middle" opacity="0">12v</text>
<path d="M42097 27146
L41872 27146
" />
<path d="M41985 27146
L41985 26752
L41947 26809
L41910 26846
L41872 26865
" />
<path d="M42247 26790
L42266 26771
L42304 26752
L42397 26752
L42435 26771
L42454 26790
L42472 26827
L42472 26865
L42454 26921
L42229 27146
L42472 27146
" />
<path d="M42604 26884
L42697 27146
L42791 26884
" />
<text x="40748" y="27165.4"
textLength="1508.44" font-size="524.934" lengthAdjust="spacingAndGlyphs"
text-anchor="middle" opacity="0">HEAT</text>
<path d="M40138 27146
L40138 26752
" />
<path d="M40138 26940
L40363 26940
" />
<path d="M40363 27146
L40363 26752
" />
<path d="M40551 26940
L40682 26940
" />
<path d="M40738 27146
L40551 27146
L40551 26752
L40738 26752
" />
<path d="M40888 27034
L41076 27034
" />
<path d="M40851 27146
L40982 26752
L41113 27146
" />
<path d="M41188 26752
L41413 26752
" />
<path d="M41301 27146
L41301 26752
" />
</g>
<g style="fill:#000000; fill-opacity:0.0; 
stroke:#000000; stroke-width:59.0551; stroke-opacity:1; 
stroke-linecap:round; stroke-linejoin:round;">
<path d="M49507 23917
L49901 23917
" />
<path d="M48228 23917
L47834 23917
" />
</g>
<g style="fill:#000000; fill-opacity:0.0; 
stroke:#000000; stroke-width:78.7402; stroke-opacity:1; 
stroke-linecap:round; stroke-linejoin:round;">
<text x="49311" y="22047.2"
textLength="927.259" font-size="524.934" lengthAdjust="spacingAndGlyphs"
text-anchor="middle" opacity="0">M1</text>
<path d="M48992 22028
L48992 21634
L49123 21916
L49254 21634
L49254 22028
" />
<path d="M49648 22028
L49423 22028
" />
<path d="M49535 22028
L49535 21634
L49498 21691
L49461 21728
L49423 21747
" />
<text x="49311" y="23129.9"
textLength="927.259" font-size="524.934" lengthAdjust="spacingAndGlyphs"
text-anchor="middle" opacity="0">M2</text>
<path d="M48992 23111
L48992 22717
L49123 22998
L49254 22717
L49254 23111
" />
<path d="M49423 22754
L49442 22736
L49479 22717
L49573 22717
L49610 22736
L49629 22754
L49648 22792
L49648 22829
L49629 22886
L49404 23111
L49648 23111
" />
<text x="49015.7" y="25000"
textLength="1302.21" font-size="524.934" lengthAdjust="spacingAndGlyphs"
text-anchor="middle" opacity="0">GND</text>
<path d="M48715 24606
L48678 24587
L48622 24587
L48565 24606
L48528 24643
L48509 24681
L48490 24756
L48490 24812
L48509 24887
L48528 24925
L48565 24962
L48622 24981
L48659 24981
L48715 24962
L48734 24943
L48734 24812
L48659 24812
" />
<path d="M48903 24981
L48903 24587
L49128 24981
L49128 24587
" />
<path d="M49315 24981
L49315 24587
L49409 24587
L49465 24606
L49503 24643
L49521 24681
L49540 24756
L49540 24812
L49521 24887
L49503 24925
L49465 24962
L49409 24981
L49315 24981
" />
<text x="49015.7" y="26082.7"
textLength="796.026" font-size="524.934" lengthAdjust="spacingAndGlyphs"
text-anchor="middle" opacity="0">EA</text>
<path d="M48762 25857
L48893 25857
" />
<path d="M48950 26063
L48762 26063
L48762 25670
L48950 25670
" />
<path d="M49100 25951
L49287 25951
" />
<path d="M49062 26063
L49193 25670
L49325 26063
" />
<text x="49015.7" y="27165.4"
textLength="852.269" font-size="524.934" lengthAdjust="spacingAndGlyphs"
text-anchor="middle" opacity="0">EB</text>
<path d="M48734 26940
L48865 26940
" />
<path d="M48922 27146
L48734 27146
L48734 26752
L48922 26752
" />
<path d="M49221 26940
L49278 26959
L49296 26977
L49315 27015
L49315 27071
L49296 27109
L49278 27127
L49240 27146
L49090 27146
L49090 26752
L49221 26752
L49259 26771
L49278 26790
L49296 26827
L49296 26865
L49278 26902
L49259 26921
L49221 26940
L49090 26940
" />
<text x="49015.7" y="28149.6"
textLength="852.269" font-size="524.934" lengthAdjust="spacingAndGlyphs"
text-anchor="middle" opacity="0">EC</text>
<path d="M48734 27924
L48865 27924
" />
<path d="M48922 28130
L48734 28130
L48734 27737
L48922 27737
" />
<path d="M49315 28093
L49296 28112
L49240 28130
L49203 28130
L49146 28112
L49109 28074
L49090 28037
L49071 27962
L49071 27905
L49090 27830
L49109 27793
L49146 27755
L49203 27737
L49240 27737
L49296 27755
L49315 27774
" />
<text x="63878" y="27559.1"
textLength="871.016" font-size="524.934" lengthAdjust="spacingAndGlyphs"
text-anchor="middle" opacity="0">SD</text>
<path d="M63568 27521
L63624 27540
L63718 27540
L63756 27521
L63774 27502
L63793 27465
L63793 27427
L63774 27390
L63756 27371
L63718 27352
L63643 27334
L63606 27315
L63587 27296
L63568 27259
L63568 27221
L63587 27184
L63606 27165
L63643 27146
L63737 27146
L63793 27165
" />
<path d="M63962 27540
L63962 27146
L64056 27146
L64112 27165
L64149 27202
L64168 27240
L64187 27315
L64187 27371
L64168 27446
L64149 27484
L64112 27521
L64056 27540
L63962 27540
" />
<text x="62992.1" y="27559.1"
textLength="871.016" font-size="524.934" lengthAdjust="spacingAndGlyphs"
text-anchor="middle" opacity="0">SC</text>
<path d="M62682 27521
L62739 27540
L62832 27540
L62870 27521
L62889 27502
L62907 27465
L62907 27427
L62889 27390
L62870 27371
L62832 27352
L62757 27334
L62720 27315
L62701 27296
L62682 27259
L62682 27221
L62701 27184
L62720 27165
L62757 27146
L62851 27146
L62907 27165
" />
<path d="M63301 27502
L63282 27521
L63226 27540
L63188 27540
L63132 27521
L63095 27484
L63076 27446
L63057 27371
L63057 27315
L63076 27240
L63095 27202
L63132 27165
L63188 27146
L63226 27146
L63282 27165
L63301 27184
" />
<text x="62007.9" y="27559.1"
textLength="1302.21" font-size="524.934" lengthAdjust="spacingAndGlyphs"
text-anchor="middle" opacity="0">GND</text>
<path d="M61707 27165
L61670 27146
L61614 27146
L61557 27165
L61520 27202
L61501 27240
L61482 27315
L61482 27371
L61501 27446
L61520 27484
L61557 27521
L61614 27540
L61651 27540
L61707 27521
L61726 27502
L61726 27371
L61651 27371
" />
<path d="M61895 27540
L61895 27146
L62120 27540
L62120 27146
" />
<path d="M62307 27540
L62307 27146
L62401 27146
L62457 27165
L62495 27202
L62514 27240
L62532 27315
L62532 27371
L62514 27446
L62495 27484
L62457 27521
L62401 27540
L62307 27540
" />
<text x="60826.8" y="27559.1"
textLength="1152.23" font-size="524.934" lengthAdjust="spacingAndGlyphs"
text-anchor="middle" opacity="0">3v3</text>
<path d="M60358 27146
L60601 27146
L60470 27296
L60526 27296
L60564 27315
L60583 27334
L60601 27371
L60601 27465
L60583 27502
L60564 27521
L60526 27540
L60414 27540
L60376 27521
L60358 27502
" />
<path d="M60733 27277
L60826 27540
L60920 27277
" />
<path d="M61032 27146
L61276 27146
L61145 27296
L61201 27296
L61239 27315
L61257 27334
L61276 27371
L61276 27465
L61257 27502
L61239 27521
L61201 27540
L61089 27540
L61051 27521
L61032 27502
" />
<text x="48425.2" y="21259.8"
textLength="852.269" font-size="524.934" lengthAdjust="spacingAndGlyphs"
text-anchor="middle" opacity="0">S2</text>
<path d="M48125 21222
L48181 21241
L48275 21241
L48312 21222
L48331 21203
L48350 21166
L48350 21128
L48331 21091
L48312 21072
L48275 21053
L48200 21034
L48162 21016
L48143 20997
L48125 20959
L48125 20922
L48143 20884
L48162 20866
L48200 20847
L48293 20847
L48350 20866
" />
<path d="M48500 20884
L48518 20866
L48556 20847
L48650 20847
L48687 20866
L48706 20884
L48725 20922
L48725 20959
L48706 21016
L48481 21241
L48725 21241
" />
<text x="48425.2" y="22736.2"
textLength="852.269" font-size="524.934" lengthAdjust="spacingAndGlyphs"
text-anchor="middle" opacity="0">S1</text>
<path d="M48125 22698
L48181 22717
L48275 22717
L48312 22698
L48331 22679
L48350 22642
L48350 22604
L48331 22567
L48312 22548
L48275 22529
L48200 22511
L48162 22492
L48143 22473
L48125 22436
L48125 22398
L48143 22361
L48162 22342
L48200 22323
L48293 22323
L48350 22342
" />
<path d="M48725 22717
L48500 22717
" />
<path d="M48612 22717
L48612 22323
L48575 22380
L48537 22417
L48500 22436
" />
<text x="48818.9" y="24114.2"
textLength="1339.71" font-size="524.934" lengthAdjust="spacingAndGlyphs"
text-anchor="middle" opacity="0">3.3v</text>
<path d="M48256 23701
L48500 23701
L48368 23851
L48425 23851
L48462 23870
L48481 23889
L48500 23926
L48500 24020
L48481 24057
L48462 24076
L48425 24095
L48312 24095
L48275 24076
L48256 24057
" />
<path d="M48668 24057
L48687 24076
L48668 24095
L48650 24076
L48668 24057
L48668 24095
" />
<path d="M48818 23701
L49062 23701
L48931 23851
L48987 23851
L49025 23870
L49043 23889
L49062 23926
L49062 24020
L49043 24057
L49025 24076
L48987 24095
L48875 24095
L48837 24076
L48818 24057
" />
<path d="M49193 23832
L49287 24095
L49381 23832
" />
<text x="59744.1" y="27559.1"
textLength="871.016" font-size="524.934" lengthAdjust="spacingAndGlyphs"
text-anchor="middle" opacity="0">RX</text>
<path d="M59678 27540
L59547 27352
" />
<path d="M59453 27540
L59453 27146
L59603 27146
L59640 27165
L59659 27184
L59678 27221
L59678 27277
L59659 27315
L59640 27334
L59603 27352
L59453 27352
" />
<path d="M59809 27146
L60072 27540
" />
<path d="M60072 27146
L59809 27540
" />
<text x="58858.3" y="27559.1"
textLength="777.278" font-size="524.934" lengthAdjust="spacingAndGlyphs"
text-anchor="middle" opacity="0">TX</text>
<path d="M58558 27146
L58783 27146
" />
<path d="M58670 27540
L58670 27146
" />
<path d="M58877 27146
L59139 27540
" />
<path d="M59139 27146
L58877 27540
" />
</g>
<g style="fill:#000000; fill-opacity:0.0; 
stroke:#000000; stroke-width:118.11; stroke-opacity:1; 
stroke-linecap:round; stroke-linejoin:round;">
<text x="58267.7" y="22145.7"
textLength="2773.9" font-size="787.402" lengthAdjust="spacingAndGlyphs"
text-anchor="middle" opacity="0">RESET</text>
<path d="M57410 22117
L57213 21836
" />
<path d="M57072 22117
L57072 21526
L57297 21526
L57353 21555
L57381 21583
L57410 21639
L57410 21723
L57381 21780
L57353 21808
L57297 21836
L57072 21836
" />
<path d="M57663 21808
L57859 21808
" />
<path d="M57944 22117
L57663 22117
L57663 21526
L57944 21526
" />
<path d="M58169 22089
L58253 22117
L58394 22117
L58450 22089
L58478 22061
L58506 22005
L58506 21948
L58478 21892
L58450 21864
L58394 21836
L58281 21808
L58225 21780
L58197 21751
L58169 21695
L58169 21639
L58197 21583
L58225 21555
L58281 21526
L58422 21526
L58506 21555
" />
<path d="M58759 21808
L58956 21808
" />
<path d="M59041 22117
L58759 22117
L58759 21526
L59041 21526
" />
<path d="M59209 21526
L59547 21526
" />
<path d="M59378 22117
L59378 21526
" />
</g>
<g style="fill:#000000; fill-opacity:0.0; 
stroke:#000000; stroke-width:78.7402; stroke-opacity:1; 
stroke-linecap:round; stroke-linejoin:round;">
<text x="65944.9" y="28740.2"
textLength="1428.38" font-size="524.934" lengthAdjust="spacingAndGlyphs"
text-anchor="middle" opacity="0">3.3V</text>
<path d="M65363 28327
L65607 28327
L65476 28477
L65532 28477
L65569 28496
L65588 28515
L65607 28552
L65607 28646
L65588 28683
L65569 28702
L65532 28721
L65419 28721
L65382 28702
L65363 28683
" />
<path d="M65776 28683
L65794 28702
L65776 28721
L65757 28702
L65776 28683
L65776 28721
" />
<path d="M65926 28327
L66169 28327
L66038 28477
L66094 28477
L66132 28496
L66151 28515
L66169 28552
L66169 28646
L66151 28683
L66132 28702
L66094 28721
L65982 28721
L65944 28702
L65926 28683
" />
<path d="M66282 28327
L66413 28721
L66544 28327
" />
<text x="65944.9" y="24606.3"
textLength="1170.98" font-size="524.934" lengthAdjust="spacingAndGlyphs"
text-anchor="middle" opacity="0">RST</text>
<path d="M65729 24587
L65598 24400
" />
<path d="M65504 24587
L65504 24193
L65654 24193
L65691 24212
L65710 24231
L65729 24268
L65729 24325
L65710 24362
L65691 24381
L65654 24400
L65504 24400
" />
<path d="M65879 24568
L65935 24587
L66029 24587
L66066 24568
L66085 24550
L66104 24512
L66104 24475
L66085 24437
L66066 24418
L66029 24400
L65954 24381
L65916 24362
L65898 24343
L65879 24306
L65879 24268
L65898 24231
L65916 24212
L65954 24193
L66047 24193
L66104 24212
" />
<path d="M66216 24193
L66441 24193
" />
<path d="M66329 24587
L66329 24193
" />
<text x="65944.9" y="25590.6"
textLength="1320.96" font-size="524.934" lengthAdjust="spacingAndGlyphs"
text-anchor="middle" opacity="0">SWD</text>
<path d="M65410 25553
L65466 25571
L65560 25571
L65598 25553
L65616 25534
L65635 25496
L65635 25459
L65616 25421
L65598 25403
L65560 25384
L65485 25365
L65448 25346
L65429 25328
L65410 25290
L65410 25253
L65429 25215
L65448 25196
L65485 25178
L65579 25178
L65635 25196
" />
<path d="M65766 25178
L65860 25571
L65935 25290
L66010 25571
L66104 25178
" />
<path d="M66254 25571
L66254 25178
L66347 25178
L66404 25196
L66441 25234
L66460 25271
L66479 25346
L66479 25403
L66460 25478
L66441 25515
L66404 25553
L66347 25571
L66254 25571
" />
<text x="66043.3" y="26378"
textLength="1302.21" font-size="524.934" lengthAdjust="spacingAndGlyphs"
text-anchor="middle" opacity="0">GND</text>
<path d="M65743 25984
L65705 25965
L65649 25965
L65593 25984
L65555 26021
L65537 26059
L65518 26134
L65518 26190
L65537 26265
L65555 26302
L65593 26340
L65649 26359
L65687 26359
L65743 26340
L65762 26321
L65762 26190
L65687 26190
" />
<path d="M65930 26359
L65930 25965
L66155 26359
L66155 25965
" />
<path d="M66343 26359
L66343 25965
L66437 25965
L66493 25984
L66530 26021
L66549 26059
L66568 26134
L66568 26190
L66549 26265
L66530 26302
L66493 26340
L66437 26359
L66343 26359
" />
<text x="66043.3" y="27952.8"
textLength="1264.72" font-size="524.934" lengthAdjust="spacingAndGlyphs"
text-anchor="middle" opacity="0">SCK</text>
<path d="M65537 27915
L65593 27934
L65687 27934
L65724 27915
L65743 27896
L65762 27859
L65762 27821
L65743 27784
L65724 27765
L65687 27746
L65612 27727
L65574 27709
L65555 27690
L65537 27652
L65537 27615
L65555 27577
L65574 27559
L65612 27540
L65705 27540
L65762 27559
" />
<path d="M66155 27896
L66137 27915
L66080 27934
L66043 27934
L65987 27915
L65949 27877
L65930 27840
L65912 27765
L65912 27709
L65930 27634
L65949 27596
L65987 27559
L66043 27540
L66080 27540
L66137 27559
L66155 27577
" />
<path d="M66324 27934
L66324 27540
" />
<path d="M66549 27934
L66380 27709
" />
<path d="M66549 27540
L66324 27765
" />
<text x="72834.6" y="27952.8"
textLength="2052.12" font-size="524.934" lengthAdjust="spacingAndGlyphs"
text-anchor="middle" opacity="0">DEBUG</text>
<path d="M71953 27934
L71953 27540
L72047 27540
L72103 27559
L72140 27596
L72159 27634
L72178 27709
L72178 27765
L72159 27840
L72140 27877
L72103 27915
L72047 27934
L71953 27934
" />
<path d="M72347 27727
L72478 27727
" />
<path d="M72534 27934
L72347 27934
L72347 27540
L72534 27540
" />
<path d="M72834 27727
L72890 27746
L72909 27765
L72928 27802
L72928 27859
L72909 27896
L72890 27915
L72853 27934
L72703 27934
L72703 27540
L72834 27540
L72872 27559
L72890 27577
L72909 27615
L72909 27652
L72890 27690
L72872 27709
L72834 27727
L72703 27727
" />
<path d="M73097 27540
L73097 27859
L73115 27896
L73134 27915
L73172 27934
L73247 27934
L73284 27915
L73303 27896
L73322 27859
L73322 27540
" />
<path d="M73715 27559
L73678 27540
L73622 27540
L73565 27559
L73528 27596
L73509 27634
L73490 27709
L73490 27765
L73509 27840
L73528 27877
L73565 27915
L73622 27934
L73659 27934
L73715 27915
L73734 27896
L73734 27765
L73659 27765
" />
<text x="73326.8" y="21161.4"
textLength="1339.71" font-size="524.934" lengthAdjust="spacingAndGlyphs"
text-anchor="middle" opacity="0">PWR</text>
<path d="M72801 21142
L72801 20748
L72951 20748
L72989 20767
L73008 20786
L73026 20823
L73026 20880
L73008 20917
L72989 20936
L72951 20955
L72801 20955
" />
<path d="M73158 20748
L73251 21142
L73326 20861
L73401 21142
L73495 20748
" />
<path d="M73870 21142
L73739 20955
" />
<path d="M73645 21142
L73645 20748
L73795 20748
L73832 20767
L73851 20786
L73870 20823
L73870 20880
L73851 20917
L73832 20936
L73795 20955
L73645 20955
" />
<g transform="rotate(90 45275.6 25295.3)">
<text x="45275.6" y="25492.1"
textLength="1302.21" font-size="524.934" lengthAdjust="spacingAndGlyphs"
text-anchor="middle" opacity="0">GND</text>
</g>
<path d="M45472 24995
L45491 24957
L45491 24901
L45472 24845
L45434 24807
L45397 24789
L45322 24770
L45266 24770
L45191 24789
L45153 24807
L45116 24845
L45097 24901
L45097 24939
L45116 24995
L45134 25014
L45266 25014
L45266 24939
" />
<path d="M45097 25182
L45491 25182
L45097 25407
L45491 25407
" />
<path d="M45097 25595
L45491 25595
L45491 25688
L45472 25745
L45434 25782
L45397 25801
L45322 25820
L45266 25820
L45191 25801
L45153 25782
L45116 25745
L45097 25688
L45097 25595
" />
<g transform="rotate(-270 46259.8 25590.6)">
<text x="46259.8" y="25787.4"
textLength="1939.63" font-size="524.934" lengthAdjust="spacingAndGlyphs"
text-anchor="middle" opacity="0">5/12v</text>
</g>
<path d="M46475 24953
L46475 24765
L46287 24746
L46306 24765
L46325 24803
L46325 24896
L46306 24934
L46287 24953
L46250 24971
L46156 24971
L46119 24953
L46100 24934
L46081 24896
L46081 24803
L46100 24765
L46119 24746
" />
<path d="M46494 25421
L45988 25084
" />
<path d="M46081 25759
L46081 25534
" />
<path d="M46081 25646
L46475 25646
L46419 25609
L46381 25571
L46362 25534
" />
<path d="M46437 25909
L46456 25928
L46475 25965
L46475 26059
L46456 26096
L46437 26115
L46400 26134
L46362 26134
L46306 26115
L46081 25890
L46081 26134
" />
<path d="M46344 26265
L46081 26359
L46344 26452
" />
</g>
<g style="fill:#000000; fill-opacity:0.0; 
stroke:#000000; stroke-width:47.2441; stroke-opacity:1; 
stroke-linecap:round; stroke-linejoin:round;">
<path d="M67748 28968
L67224 28968
" />
<path d="M67748 28444
L67748 28968
" />
<path d="M67748 27944
L66700 27944
" />
<path d="M66700 27944
L66700 23921
" />
<path d="M67748 27944
L67748 23921
" />
<path d="M67748 23921
L66700 23921
" />
<path d="M70850 23028
L70850 23231
" />
<path d="M70291 23028
L70291 23231
" />
<path d="M55908 27377
L55705 27377
" />
<path d="M55908 27937
L55705 27937
" />
<path d="M60464 27921
L60464 28444
" />
<path d="M59940 27921
L60464 27921
" />
<path d="M59440 27921
L59440 28968
" />
<path d="M59440 28968
L58417 28968
" />
<path d="M59440 27921
L58417 27921
" />
<path d="M58417 27921
L58417 28968
" />
<path d="M70045 20261
L70045 21791
" />
<path d="M71293 20261
L70045 20261
" />
<path d="M71293 21791
L71293 20261
" />
<path d="M73622 22086
L73622 21417
" />
<path d="M73602 21417
L72007 21417
" />
<path d="M73602 22086
L72007 22086
" />
</g>
<g style="fill:#000000; fill-opacity:0.0; 
stroke:#000000; stroke-width:39.3701; stroke-opacity:1; 
stroke-linecap:round; stroke-linejoin:round;">
<path d="M54488 25531
L54488 25413
" />
<path d="M54606 25531
L54488 25531
" />
<path d="M56535 25531
L56535 25413
" />
<path d="M56417 25531
L56535 25531
" />
<path d="M54488 23877
L54488 23996
" />
<path d="M54606 23877
L54488 23877
" />
<path d="M56417 23956
L56417 23641
" />
<path d="M56535 24074
L56417 23956
" />
<path d="M56535 24232
L56535 24074
" />
</g>
<g style="fill:#000000; fill-opacity:0.0; 
stroke:#000000; stroke-width:47.2441; stroke-opacity:1; 
stroke-linecap:round; stroke-linejoin:round;">
<path d="M46842 23468
L44795 23468
" />
<path d="M44795 23468
L44795 24562
" />
<path d="M44795 24562
L46842 24562
" />
<path d="M46842 24562
L46842 23468
" />
<path d="M47342 23468
L47889 23468
" />
<path d="M47889 23468
L47889 24015
" />
<path d="M53835 21669
L54038 21669
" />
<path d="M53835 22228
L54038 22228
" />
</g>
<g style="fill:#000000; fill-opacity:0.0; 
stroke:#000000; stroke-width:59.0551; stroke-opacity:1; 
stroke-linecap:round; stroke-linejoin:round;">
<path d="M61409 23097
L61409 23274
" />
<path d="M64263 23097
L64263 23303
" />
<path d="M64263 25951
L64263 25744
" />
<path d="M61409 25951
L61409 25744
" />
<path d="M61409 23097
L61615 23097
" />
<path d="M61409 25951
L61615 25951
" />
<path d="M64263 25951
L64056 25951
" />
<path d="M64263 23097
L64056 23097
" />
<path d="M61409 23274
L60867 23274
" />
</g>
<g style="fill:#000000; fill-opacity:0.0; 
stroke:#000000; stroke-width:39.3701; stroke-opacity:1; 
stroke-linecap:round; stroke-linejoin:round;">
<path d="M53848 28169
L53848 28080
" />
<path d="M53966 28169
L53848 28169
" />
<path d="M53848 27539
L53848 27637
" />
<path d="M53956 27539
L53848 27539
" />
<path d="M54812 28169
L54812 28051
" />
<path d="M54694 28169
L54812 28169
" />
<path d="M54694 27539
L54694 27381
" />
<path d="M54812 27667
L54694 27539
" />
</g>
<g style="fill:#000000; fill-opacity:0.0; 
stroke:#000000; stroke-width:47.2441; stroke-opacity:1; 
stroke-linecap:round; stroke-linejoin:round;">
<path d="M55866 19937
L54901 19937
" />
<path d="M55157 21204
L55866 21204
" />
<path d="M69748 20901
L69251 20901
" />
<path d="M67062 20901
L67559 20901
" />
<path d="M69748 22381
L69748 20901
" />
<path d="M67062 23267
L67062 20901
" />
<path d="M55606 22228
L55810 22228
" />
<path d="M55606 21669
L55810 21669
" />
<path d="M54530 26492
L54327 26492
" />
<path d="M54530 27051
L54327 27051
" />
<path d="M71748 28724
L71952 28724
" />
<path d="M71748 28165
L71952 28165
" />
<path d="M57456 23126
L57456 23330
" />
<path d="M58015 23126
L58015 23330
" />
<path d="M63185 20389
L63389 20389
" />
<path d="M63185 20948
L63389 20948
" />
<path d="M73720 27401
L73720 26732
" />
<path d="M73700 26732
L72106 26732
" />
<path d="M73700 27401
L72106 27401
" />
<path d="M53192 22692
L52700 22692
" />
<path d="M53192 23185
L53192 22692
" />
<path d="M51456 27165
L51653 27165
" />
<path d="M51653 27204
L51456 27204
" />
<path d="M51653 27125
L51653 27204
" />
<path d="M51456 27125
L51653 27125
" />
<path d="M51456 26377
L51653 26377
" />
<path d="M51653 26417
L51456 26417
" />
<path d="M51653 26338
L51653 26417
" />
<path d="M51456 26338
L51653 26338
" />
<path d="M51456 25590
L51653 25590
" />
<path d="M51653 25629
L51456 25629
" />
<path d="M51653 25551
L51653 25629
" />
<path d="M51456 25551
L51653 25551
" />
<path d="M51456 24803
L51653 24803
" />
<path d="M51653 24842
L51456 24842
" />
<path d="M51653 24763
L51653 24842
" />
<path d="M51456 24763
L51653 24763
" />
<path d="M51456 24015
L51653 24015
" />
<path d="M51653 24055
L51456 24055
" />
<path d="M51653 23976
L51653 24055
" />
<path d="M51456 23976
L51653 23976
" />
<path d="M52047 28370
L52047 28129
" />
<path d="M52559 28370
L52559 28129
" />
<path d="M52047 22811
L52047 23051
" />
<path d="M52559 22811
L52559 23051
" />
<path d="M52834 27362
L53074 27362
" />
<path d="M52834 28129
L52834 27362
" />
<path d="M51456 28129
L52834 28129
" />
<path d="M51456 23051
L51456 28129
" />
<path d="M52834 23051
L51456 23051
" />
<path d="M52834 23818
L52834 23051
" />
<path d="M53074 23818
L52834 23818
" />
<path d="M53114 23503
L53114 23385
" />
<path d="M53153 23385
L53074 23385
" />
<path d="M53153 23503
L53153 23385
" />
<path d="M53074 23503
L53153 23503
" />
<path d="M53074 28370
L53074 22811
" />
<path d="M51216 28370
L53074 28370
" />
<path d="M51216 22811
L51216 28370
" />
<path d="M53074 22811
L51216 22811
" />
<path d="M58861 26559
L58658 26559
" />
<path d="M58861 26000
L58658 26000
" />
<path d="M72598 26129
L72952 26129
" />
<path d="M72598 22511
L72952 22511
" />
<path d="M74015 26129
L75090 26129
" />
<path d="M74015 22511
L75090 22511
" />
<path d="M71385 26082
L71385 22559
" />
<path d="M75090 26129
L75090 22511
" />
<path d="M57778 27937
L57575 27937
" />
<path d="M57778 27377
L57575 27377
" />
<path d="M70377 25377
L70173 25377
" />
<path d="M70377 24818
L70173 24818
" />
<path d="M60401 28968
L60401 28444
" />
<path d="M60925 28968
L60401 28968
" />
<path d="M61425 28968
L61425 27921
" />
<path d="M61425 27921
L64448 27921
" />
<path d="M61425 28968
L64448 28968
" />
<path d="M64448 28968
L64448 27921
" />
<path d="M56591 27051
L56794 27051
" />
<path d="M56591 26492
L56794 26492
" />
<path d="M72339 19996
L72542 19996
" />
<path d="M72339 20555
L72542 20555
" />
<path d="M64858 27248
L65062 27248
" />
<path d="M64858 26688
L65062 26688
" />
<path d="M61118 22031
L61322 22031
" />
<path d="M61118 21472
L61322 21472
" />
<path d="M65744 23503
L65948 23503
" />
<path d="M65744 22944
L65948 22944
" />
<path d="M58015 24806
L58015 24602
" />
<path d="M57456 24806
L57456 24602
" />
<path d="M60921 21145
L61125 21145
" />
<path d="M60921 20586
L61125 20586
" />
<path d="M51751 19897
L53366 19897
" />
<path d="M51751 21244
L53366 21244
" />
<path d="M66083 21007
L65609 21007
" />
<path d="M66083 19937
L65609 19937
" />
<path d="M66083 21314
L65609 21314
" />
<path d="M66083 22385
L65609 22385
" />
<path d="M60059 24980
L60059 22716
" />
<path d="M60059 22716
L58641 22716
" />
<path d="M58641 22716
L58641 24980
" />
<path d="M41751 20232
L44137 20232
" />
<path d="M44137 20232
L44137 21338
" />
<path d="M44137 23149
L44137 24255
" />
<path d="M44137 24255
L41751 24255
" />
<path d="M40137 24255
L38933 24255
" />
<path d="M38933 24255
L38933 20232
" />
<path d="M38933 20232
L40137 20232
" />
<path d="M44212 21850
L44212 22637
" />
<path d="M47866 22015
L47866 22539
" />
<path d="M47342 22015
L47866 22015
" />
<path d="M46842 22015
L46842 23062
" />
<path d="M46842 23062
L44818 23062
" />
<path d="M46842 22015
L44818 22015
" />
<path d="M44818 22015
L44818 23062
" />
<path d="M44818 20440
L44818 21488
" />
<path d="M46842 20440
L44818 20440
" />
<path d="M46842 21488
L44818 21488
" />
<path d="M46842 20440
L46842 21488
" />
<path d="M47342 20440
L47866 20440
" />
<path d="M47866 20440
L47866 20964
" />
<path d="M45523 27429
L45523 28476
" />
<path d="M46547 27429
L45523 27429
" />
<path d="M46547 28476
L45523 28476
" />
<path d="M46547 27429
L46547 28476
" />
<path d="M47047 27429
L47570 27429
" />
<path d="M47570 27429
L47570 27952
" />
<path d="M49771 28374
L50818 28374
" />
<path d="M49771 22350
L49771 28374
" />
<path d="M50818 22350
L50818 28374
" />
<path d="M49771 22350
L50818 22350
" />
<path d="M49771 21850
L49771 21326
" />
<path d="M49771 21326
L50295 21326
" />
<path d="M59488 19744
L59124 19744
" />
<path d="M59488 21200
L57637 21200
" />
<path d="M57598 20580
L57598 20364
" />
<path d="M59527 20580
L59527 20364
" />
<path d="M58001 19744
L57637 19744
" />
</g>
<g style="fill:#000000; fill-opacity:0.0; 
stroke:#000000; stroke-width:50; stroke-opacity:1; 
stroke-linecap:round; stroke-linejoin:round;">
<path d="M68139 26687
L68139 28037
" />
<path d="M70639 28037
L70639 26687
" />
<circle cx="67972.4" cy="28307.1" r="55.6768" /> 
</g>
<g style="fill:#000000; fill-opacity:0.0; 
stroke:#000000; stroke-width:47.2441; stroke-opacity:1; 
stroke-linecap:round; stroke-linejoin:round;">
<path d="M44862 28476
L44862 27429
" />
<path d="M41838 28476
L44862 28476
" />
<path d="M41838 27429
L44862 27429
" />
<path d="M41838 28476
L41838 27429
" />
<path d="M41338 28476
L40814 28476
" />
<path d="M40814 28476
L40814 27952
" />
<path d="M40224 25988
L40590 25988
" />
<path d="M41468 25988
L41102 25988
" />
<path d="M41468 25988
L41468 25137
" />
<path d="M40224 25988
L40224 25413
" />
<path d="M47535 26263
L47739 26263
" />
<path d="M47535 25704
L47739 25704
" />
<path d="M43605 25673
L43402 25673
" />
<path d="M43605 25114
L43402 25114
" />
</g>
<g style="fill:#000000; fill-opacity:0.0; 
stroke:#000000; stroke-width:59.0551; stroke-opacity:1; 
stroke-linecap:round; stroke-linejoin:round;">
<text x="68503.9" y="23917.3"
textLength="777.278" font-size="524.934" lengthAdjust="spacingAndGlyphs"
text-anchor="middle" opacity="0">J7</text>
<path d="M68372 23504
L68372 23786
L68353 23842
L68316 23879
L68260 23898
L68222 23898
" />
<path d="M68522 23504
L68785 23504
L68616 23898
" />
<text x="69586.6" y="24015.7"
textLength="1220.38" font-size="524.934" lengthAdjust="spacingAndGlyphs"
text-anchor="middle" opacity="0">R11</text>
<path d="M69333 23997
L69202 23809
" />
<path d="M69108 23997
L69108 23603
L69258 23603
L69296 23622
L69314 23640
L69333 23678
L69333 23734
L69314 23772
L69296 23790
L69258 23809
L69108 23809
" />
<path d="M69708 23997
L69483 23997
" />
<path d="M69595 23997
L69595 23603
L69558 23659
L69520 23697
L69483 23715
" />
<path d="M70083 23997
L69858 23997
" />
<path d="M69970 23997
L69970 23603
L69933 23659
L69895 23697
L69858 23715
" />
<text x="56988.2" y="28248"
textLength="845.426" font-size="524.934" lengthAdjust="spacingAndGlyphs"
text-anchor="middle" opacity="0">R4</text>
<path d="M56922 28229
L56791 28041
" />
<path d="M56697 28229
L56697 27835
L56847 27835
L56885 27854
L56903 27873
L56922 27910
L56922 27966
L56903 28004
L56885 28023
L56847 28041
L56697 28041
" />
<path d="M57260 27966
L57260 28229
" />
<path d="M57166 27816
L57072 28098
L57316 28098
" />
<text x="57874" y="28740.2"
textLength="751.687" font-size="524.934" lengthAdjust="spacingAndGlyphs"
text-anchor="middle" opacity="0">J4</text>
<path d="M57742 28327
L57742 28608
L57724 28665
L57686 28702
L57630 28721
L57592 28721
" />
<path d="M58098 28458
L58098 28721
" />
<path d="M58005 28308
L57911 28590
L58155 28590
" />
<text x="71259.8" y="20177.2"
textLength="845.426" font-size="524.934" lengthAdjust="spacingAndGlyphs"
text-anchor="middle" opacity="0">D3</text>
<path d="M70969 20158
L70969 19764
L71062 19764
L71119 19783
L71156 19820
L71175 19858
L71194 19933
L71194 19989
L71175 20064
L71156 20102
L71119 20139
L71062 20158
L70969 20158
" />
<path d="M71325 19764
L71569 19764
L71437 19914
L71494 19914
L71531 19933
L71550 19952
L71569 19989
L71569 20083
L71550 20120
L71531 20139
L71494 20158
L71381 20158
L71344 20139
L71325 20120
" />
<text x="71850.4" y="21161.4"
textLength="845.426" font-size="524.934" lengthAdjust="spacingAndGlyphs"
text-anchor="middle" opacity="0">D1</text>
<path d="M71559 21142
L71559 20748
L71653 20748
L71709 20767
L71747 20805
L71766 20842
L71784 20917
L71784 20973
L71766 21048
L71747 21086
L71709 21123
L71653 21142
L71559 21142
" />
<path d="M72159 21142
L71934 21142
" />
<path d="M72047 21142
L72047 20748
L72009 20805
L71972 20842
L71934 20861
" />
<text x="54008.3" y="24839.8"
textLength="864.173" font-size="524.934" lengthAdjust="spacingAndGlyphs"
text-anchor="middle" opacity="0">Q2</text>
<path d="M53970 24858
L53933 24839
L53895 24802
L53839 24746
L53802 24727
L53764 24727
" />
<path d="M53783 24821
L53745 24802
L53708 24764
L53689 24689
L53689 24558
L53708 24483
L53745 24446
L53783 24427
L53858 24427
L53895 24446
L53933 24483
L53952 24558
L53952 24689
L53933 24764
L53895 24802
L53858 24821
L53783 24821
" />
<path d="M54102 24464
L54120 24446
L54158 24427
L54251 24427
L54289 24446
L54308 24464
L54326 24502
L54326 24539
L54308 24596
L54083 24821
L54326 24821
" />
<text x="48425.2" y="23523.6"
textLength="751.687" font-size="524.934" lengthAdjust="spacingAndGlyphs"
text-anchor="middle" opacity="0">J1</text>
<path d="M48293 23111
L48293 23392
L48275 23448
L48237 23486
L48181 23504
L48143 23504
" />
<path d="M48687 23504
L48462 23504
" />
<path d="M48575 23504
L48575 23111
L48537 23167
L48500 23204
L48462 23223
" />
<text x="52559.1" y="22145.7"
textLength="1220.38" font-size="524.934" lengthAdjust="spacingAndGlyphs"
text-anchor="middle" opacity="0">R10</text>
<path d="M52305 22126
L52174 21939
" />
<path d="M52080 22126
L52080 21733
L52230 21733
L52268 21751
L52287 21770
L52305 21808
L52305 21864
L52287 21901
L52268 21920
L52230 21939
L52080 21939
" />
<path d="M52680 22126
L52455 22126
" />
<path d="M52568 22126
L52568 21733
L52530 21789
L52493 21826
L52455 21845
" />
<path d="M52924 21733
L52962 21733
L52999 21751
L53018 21770
L53037 21808
L53055 21883
L53055 21976
L53037 22051
L53018 22089
L52999 22108
L52962 22126
L52924 22126
L52887 22108
L52868 22089
L52849 22051
L52830 21976
L52830 21883
L52849 21808
L52868 21770
L52887 21751
L52924 21733
" />
<text x="64736.2" y="26421.3"
textLength="864.173" font-size="524.934" lengthAdjust="spacingAndGlyphs"
text-anchor="middle" opacity="0">U2</text>
<path d="M64436 26008
L64436 26327
L64455 26365
L64473 26383
L64511 26402
L64586 26402
L64623 26383
L64642 26365
L64661 26327
L64661 26008
" />
<path d="M64829 26046
L64848 26027
L64886 26008
L64979 26008
L65017 26027
L65036 26046
L65054 26083
L65054 26121
L65036 26177
L64811 26402
L65054 26402
" />
<text x="54035.4" y="28937"
textLength="864.173" font-size="524.934" lengthAdjust="spacingAndGlyphs"
text-anchor="middle" opacity="0">Q1</text>
<path d="M53997 28955
L53960 28937
L53922 28899
L53866 28843
L53829 28824
L53791 28824
" />
<path d="M53810 28918
L53772 28899
L53735 28862
L53716 28787
L53716 28655
L53735 28580
L53772 28543
L53810 28524
L53885 28524
L53922 28543
L53960 28580
L53979 28655
L53979 28787
L53960 28862
L53922 28899
L53885 28918
L53810 28918
" />
<path d="M54354 28918
L54129 28918
" />
<path d="M54241 28918
L54241 28524
L54204 28580
L54166 28618
L54129 28637
" />
<text x="56692.9" y="20669.3"
textLength="864.173" font-size="524.934" lengthAdjust="spacingAndGlyphs"
text-anchor="middle" opacity="0">U3</text>
<path d="M56392 20256
L56392 20575
L56411 20613
L56430 20631
L56467 20650
L56542 20650
L56580 20631
L56599 20613
L56617 20575
L56617 20256
" />
<path d="M56767 20256
L57011 20256
L56880 20406
L56936 20406
L56974 20425
L56992 20444
L57011 20481
L57011 20575
L56992 20613
L56974 20631
L56936 20650
L56824 20650
L56786 20631
L56767 20613
" />
<text x="69685" y="20275.6"
textLength="864.173" font-size="524.934" lengthAdjust="spacingAndGlyphs"
text-anchor="middle" opacity="0">U1</text>
<path d="M69385 19863
L69385 20181
L69403 20219
L69422 20238
L69460 20256
L69535 20256
L69572 20238
L69591 20219
L69610 20181
L69610 19863
" />
<path d="M70003 20256
L69778 20256
" />
<path d="M69891 20256
L69891 19863
L69853 19919
L69816 19956
L69778 19975
" />
<text x="55708.7" y="22834.6"
textLength="845.426" font-size="524.934" lengthAdjust="spacingAndGlyphs"
text-anchor="middle" opacity="0">R9</text>
<path d="M55643 22815
L55511 22628
" />
<path d="M55418 22815
L55418 22422
L55568 22422
L55605 22440
L55624 22459
L55643 22497
L55643 22553
L55624 22590
L55605 22609
L55568 22628
L55418 22628
" />
<path d="M55830 22815
L55905 22815
L55943 22797
L55961 22778
L55999 22722
L56017 22647
L56017 22497
L55999 22459
L55980 22440
L55943 22422
L55868 22422
L55830 22440
L55811 22459
L55793 22497
L55793 22590
L55811 22628
L55830 22647
L55868 22665
L55943 22665
L55980 22647
L55999 22628
L56017 22590
" />
<text x="55511.8" y="26968.5"
textLength="845.426" font-size="524.934" lengthAdjust="spacingAndGlyphs"
text-anchor="middle" opacity="0">R6</text>
<path d="M55446 26949
L55314 26762
" />
<path d="M55221 26949
L55221 26556
L55371 26556
L55408 26574
L55427 26593
L55446 26631
L55446 26687
L55427 26724
L55408 26743
L55371 26762
L55221 26762
" />
<path d="M55783 26556
L55708 26556
L55671 26574
L55652 26593
L55614 26649
L55596 26724
L55596 26874
L55614 26912
L55633 26931
L55671 26949
L55746 26949
L55783 26931
L55802 26912
L55821 26874
L55821 26781
L55802 26743
L55783 26724
L55746 26706
L55671 26706
L55633 26724
L55614 26743
L55596 26781
" />
<text x="71259.8" y="27952.8"
textLength="845.426" font-size="524.934" lengthAdjust="spacingAndGlyphs"
text-anchor="middle" opacity="0">R2</text>
<path d="M71194 27934
L71062 27746
" />
<path d="M70969 27934
L70969 27540
L71119 27540
L71156 27559
L71175 27577
L71194 27615
L71194 27671
L71175 27709
L71156 27727
L71119 27746
L70969 27746
" />
<path d="M71344 27577
L71362 27559
L71400 27540
L71494 27540
L71531 27559
L71550 27577
L71569 27615
L71569 27652
L71550 27709
L71325 27934
L71569 27934
" />
<g transform="rotate(-90 57136.2 23228.3)">
<text x="57136.2" y="23425.2"
textLength="845.426" font-size="524.934" lengthAdjust="spacingAndGlyphs"
text-anchor="middle" opacity="0">C1</text>
</g>
<path d="M57276 23293
L57295 23312
L57314 23368
L57314 23406
L57295 23462
L57258 23500
L57220 23518
L57145 23537
L57089 23537
L57014 23518
L56976 23500
L56939 23462
L56920 23406
L56920 23368
L56939 23312
L56958 23293
" />
<path d="M57314 22919
L57314 23143
" />
<path d="M57314 23031
L56920 23031
L56976 23068
L57014 23106
L57033 23143
" />
<text x="63287.4" y="20216.5"
textLength="845.426" font-size="524.934" lengthAdjust="spacingAndGlyphs"
text-anchor="middle" opacity="0">R3</text>
<path d="M63221 20197
L63090 20010
" />
<path d="M62996 20197
L62996 19804
L63146 19804
L63184 19822
L63203 19841
L63221 19879
L63221 19935
L63203 19972
L63184 19991
L63146 20010
L62996 20010
" />
<path d="M63353 19804
L63596 19804
L63465 19954
L63521 19954
L63559 19972
L63577 19991
L63596 20029
L63596 20122
L63577 20160
L63559 20179
L63521 20197
L63409 20197
L63371 20179
L63353 20160
" />
<text x="71259.8" y="27165.4"
textLength="845.426" font-size="524.934" lengthAdjust="spacingAndGlyphs"
text-anchor="middle" opacity="0">D2</text>
<path d="M70969 27146
L70969 26752
L71062 26752
L71119 26771
L71156 26809
L71175 26846
L71194 26921
L71194 26977
L71175 27052
L71156 27090
L71119 27127
L71062 27146
L70969 27146
" />
<path d="M71344 26790
L71362 26771
L71400 26752
L71494 26752
L71531 26771
L71550 26790
L71569 26827
L71569 26865
L71550 26921
L71325 27146
L71569 27146
" />
<text x="53641.7" y="25885.8"
textLength="751.687" font-size="524.934" lengthAdjust="spacingAndGlyphs"
text-anchor="middle" opacity="0">J6</text>
<path d="M53510 25473
L53510 25754
L53491 25810
L53454 25848
L53398 25867
L53360 25867
" />
<path d="M53866 25473
L53791 25473
L53754 25492
L53735 25510
L53697 25567
L53679 25642
L53679 25792
L53697 25829
L53716 25848
L53754 25867
L53829 25867
L53866 25848
L53885 25829
L53904 25792
L53904 25698
L53885 25660
L53866 25642
L53829 25623
L53754 25623
L53716 25642
L53697 25660
L53679 25698
" />
<text x="57480.3" y="26333.1"
textLength="1220.38" font-size="524.934" lengthAdjust="spacingAndGlyphs"
text-anchor="middle" opacity="0">C12</text>
<path d="M57227 26276
L57208 26295
L57152 26314
L57114 26314
L57058 26295
L57020 26258
L57002 26220
L56983 26145
L56983 26089
L57002 26014
L57020 25976
L57058 25939
L57114 25920
L57152 25920
L57208 25939
L57227 25958
" />
<path d="M57602 26314
L57377 26314
" />
<path d="M57489 26314
L57489 25920
L57452 25976
L57414 26014
L57377 26033
" />
<path d="M57752 25958
L57770 25939
L57808 25920
L57902 25920
L57939 25939
L57958 25958
L57977 25995
L57977 26033
L57958 26089
L57733 26314
L57977 26314
" />
<text x="70767.7" y="24409.4"
textLength="751.687" font-size="524.934" lengthAdjust="spacingAndGlyphs"
text-anchor="middle" opacity="0">J2</text>
<path d="M70636 23997
L70636 24278
L70617 24334
L70580 24371
L70523 24390
L70486 24390
" />
<path d="M70805 24034
L70823 24015
L70861 23997
L70955 23997
L70992 24015
L71011 24034
L71030 24071
L71030 24109
L71011 24165
L70786 24390
L71030 24390
" />
<text x="58858.3" y="28051.2"
textLength="845.426" font-size="524.934" lengthAdjust="spacingAndGlyphs"
text-anchor="middle" opacity="0">R5</text>
<path d="M58792 28032
L58661 27844
" />
<path d="M58567 28032
L58567 27638
L58717 27638
L58755 27657
L58773 27676
L58792 27713
L58792 27769
L58773 27807
L58755 27826
L58717 27844
L58567 27844
" />
<path d="M59148 27638
L58961 27638
L58942 27826
L58961 27807
L58998 27788
L59092 27788
L59130 27807
L59148 27826
L59167 27863
L59167 27957
L59148 27994
L59130 28013
L59092 28032
L58998 28032
L58961 28013
L58942 27994
" />
<text x="68996.1" y="24704.7"
textLength="1220.38" font-size="524.934" lengthAdjust="spacingAndGlyphs"
text-anchor="middle" opacity="0">R12</text>
<path d="M68742 24685
L68611 24498
" />
<path d="M68517 24685
L68517 24292
L68667 24292
L68705 24311
L68724 24329
L68742 24367
L68742 24423
L68724 24461
L68705 24479
L68667 24498
L68517 24498
" />
<path d="M69117 24685
L68892 24685
" />
<path d="M69005 24685
L69005 24292
L68967 24348
L68930 24386
L68892 24404
" />
<path d="M69267 24329
L69286 24311
L69324 24292
L69417 24292
L69455 24311
L69474 24329
L69492 24367
L69492 24404
L69474 24461
L69249 24685
L69492 24685
" />
<text x="64960.6" y="28149.6"
textLength="751.687" font-size="524.934" lengthAdjust="spacingAndGlyphs"
text-anchor="middle" opacity="0">J5</text>
<path d="M64829 27737
L64829 28018
L64810 28074
L64773 28112
L64716 28130
L64679 28130
" />
<path d="M65204 27737
L65016 27737
L64998 27924
L65016 27905
L65054 27887
L65148 27887
L65185 27905
L65204 27924
L65223 27962
L65223 28055
L65204 28093
L65185 28112
L65148 28130
L65054 28130
L65016 28112
L64998 28093
" />
<text x="57775.6" y="27362.2"
textLength="845.426" font-size="524.934" lengthAdjust="spacingAndGlyphs"
text-anchor="middle" opacity="0">R7</text>
<path d="M57709 27343
L57578 27155
" />
<path d="M57485 27343
L57485 26949
L57634 26949
L57672 26968
L57691 26987
L57709 27024
L57709 27080
L57691 27118
L57672 27137
L57634 27155
L57485 27155
" />
<path d="M57841 26949
L58103 26949
L57934 27343
" />
<text x="73622" y="20472.4"
textLength="845.426" font-size="524.934" lengthAdjust="spacingAndGlyphs"
text-anchor="middle" opacity="0">R1</text>
<path d="M73556 20453
L73425 20266
" />
<path d="M73331 20453
L73331 20059
L73481 20059
L73518 20078
L73537 20097
L73556 20134
L73556 20191
L73537 20228
L73518 20247
L73481 20266
L73331 20266
" />
<path d="M73931 20453
L73706 20453
" />
<path d="M73818 20453
L73818 20059
L73781 20116
L73743 20153
L73706 20172
" />
<text x="66006.3" y="27066.9"
textLength="845.426" font-size="524.934" lengthAdjust="spacingAndGlyphs"
text-anchor="middle" opacity="0">C3</text>
<path d="M65940 27010
L65921 27029
L65865 27048
L65828 27048
L65771 27029
L65734 26991
L65715 26954
L65696 26879
L65696 26823
L65715 26748
L65734 26710
L65771 26673
L65828 26654
L65865 26654
L65921 26673
L65940 26691
" />
<path d="M66071 26654
L66315 26654
L66184 26804
L66240 26804
L66278 26823
L66296 26841
L66315 26879
L66315 26973
L66296 27010
L66278 27029
L66240 27048
L66128 27048
L66090 27029
L66071 27010
" />
<text x="62284.4" y="21881.1"
textLength="845.426" font-size="524.934" lengthAdjust="spacingAndGlyphs"
text-anchor="middle" opacity="0">C2</text>
<path d="M62218 21824
L62200 21843
L62143 21862
L62106 21862
L62050 21843
L62012 21806
L61993 21768
L61975 21693
L61975 21637
L61993 21562
L62012 21524
L62050 21487
L62106 21468
L62143 21468
L62200 21487
L62218 21506
" />
<path d="M62368 21506
L62387 21487
L62425 21468
L62518 21468
L62556 21487
L62575 21506
L62593 21543
L62593 21581
L62575 21637
L62350 21862
L62593 21862
" />
<text x="64763.8" y="23031.5"
textLength="845.426" font-size="524.934" lengthAdjust="spacingAndGlyphs"
text-anchor="middle" opacity="0">C6</text>
<path d="M64698 22975
L64679 22994
L64623 23012
L64585 23012
L64529 22994
L64491 22956
L64473 22919
L64454 22844
L64454 22787
L64473 22712
L64491 22675
L64529 22637
L64585 22619
L64623 22619
L64679 22637
L64698 22656
" />
<path d="M65035 22619
L64960 22619
L64923 22637
L64904 22656
L64866 22712
L64848 22787
L64848 22937
L64866 22975
L64885 22994
L64923 23012
L64998 23012
L65035 22994
L65054 22975
L65073 22937
L65073 22844
L65054 22806
L65035 22787
L64998 22769
L64923 22769
L64885 22787
L64866 22806
L64848 22844
" />
<g transform="rotate(-90 57086.6 24704.7)">
<text x="57086.6" y="24901.6"
textLength="845.426" font-size="524.934" lengthAdjust="spacingAndGlyphs"
text-anchor="middle" opacity="0">C5</text>
</g>
<path d="M57227 24770
L57245 24789
L57264 24845
L57264 24882
L57245 24939
L57208 24976
L57170 24995
L57095 25014
L57039 25014
L56964 24995
L56927 24976
L56889 24939
L56871 24882
L56871 24845
L56889 24789
L56908 24770
" />
<path d="M56871 24414
L56871 24601
L57058 24620
L57039 24601
L57020 24564
L57020 24470
L57039 24432
L57058 24414
L57095 24395
L57189 24395
L57227 24414
L57245 24432
L57264 24470
L57264 24564
L57245 24601
L57227 24620
" />
<text x="62106.3" y="20866.1"
textLength="845.426" font-size="524.934" lengthAdjust="spacingAndGlyphs"
text-anchor="middle" opacity="0">C4</text>
<path d="M62040 20809
L62021 20828
L61965 20847
L61928 20847
L61871 20828
L61834 20791
L61815 20753
L61796 20678
L61796 20622
L61815 20547
L61834 20509
L61871 20472
L61928 20453
L61965 20453
L62021 20472
L62040 20491
" />
<path d="M62378 20584
L62378 20847
" />
<path d="M62284 20434
L62190 20716
L62434 20716
" />
<text x="50590.6" y="20374"
textLength="845.426" font-size="524.934" lengthAdjust="spacingAndGlyphs"
text-anchor="middle" opacity="0">R8</text>
<path d="M50524 20355
L50393 20167
" />
<path d="M50299 20355
L50299 19961
L50449 19961
L50487 19980
L50506 19999
L50524 20036
L50524 20092
L50506 20130
L50487 20149
L50449 20167
L50299 20167
" />
<path d="M50749 20130
L50712 20111
L50693 20092
L50674 20055
L50674 20036
L50693 19999
L50712 19980
L50749 19961
L50824 19961
L50862 19980
L50881 19999
L50899 20036
L50899 20055
L50881 20092
L50862 20111
L50824 20130
L50749 20130
L50712 20149
L50693 20167
L50674 20205
L50674 20280
L50693 20317
L50712 20336
L50749 20355
L50824 20355
L50862 20336
L50881 20317
L50899 20280
L50899 20205
L50881 20167
L50862 20149
L50824 20130
" />
<text x="64468.5" y="20866.1"
textLength="845.426" font-size="524.934" lengthAdjust="spacingAndGlyphs"
text-anchor="middle" opacity="0">C8</text>
<path d="M64402 20809
L64384 20828
L64327 20847
L64290 20847
L64234 20828
L64196 20791
L64177 20753
L64159 20678
L64159 20622
L64177 20547
L64196 20509
L64234 20472
L64290 20453
L64327 20453
L64384 20472
L64402 20491
" />
<path d="M64627 20622
L64590 20603
L64571 20584
L64552 20547
L64552 20528
L64571 20491
L64590 20472
L64627 20453
L64702 20453
L64740 20472
L64759 20491
L64777 20528
L64777 20547
L64759 20584
L64740 20603
L64702 20622
L64627 20622
L64590 20641
L64571 20659
L64552 20697
L64552 20772
L64571 20809
L64590 20828
L64627 20847
L64702 20847
L64740 20828
L64759 20809
L64777 20772
L64777 20697
L64759 20659
L64740 20641
L64702 20622
" />
<text x="64370.1" y="22244.1"
textLength="1220.38" font-size="524.934" lengthAdjust="spacingAndGlyphs"
text-anchor="middle" opacity="0">C11</text>
<path d="M64116 22187
L64098 22206
L64041 22225
L64004 22225
L63948 22206
L63910 22169
L63892 22131
L63873 22056
L63873 22000
L63892 21925
L63910 21887
L63948 21850
L64004 21831
L64041 21831
L64098 21850
L64116 21869
" />
<path d="M64491 22225
L64266 22225
" />
<path d="M64379 22225
L64379 21831
L64341 21887
L64304 21925
L64266 21944
" />
<path d="M64866 22225
L64641 22225
" />
<path d="M64754 22225
L64754 21831
L64716 21887
L64679 21925
L64641 21944
" />
<text x="60137.8" y="22539.4"
textLength="789.183" font-size="524.934" lengthAdjust="spacingAndGlyphs"
text-anchor="middle" opacity="0">Y1</text>
<path d="M59950 22333
L59950 22520
" />
<path d="M59819 22126
L59950 22333
L60081 22126
" />
<path d="M60419 22520
L60194 22520
" />
<path d="M60306 22520
L60306 22126
L60269 22183
L60231 22220
L60194 22239
" />
<text x="42322.8" y="25196.9"
textLength="751.687" font-size="524.934" lengthAdjust="spacingAndGlyphs"
text-anchor="middle" opacity="0">J9</text>
<path d="M42191 24784
L42191 25065
L42172 25121
L42135 25159
L42079 25178
L42041 25178
" />
<path d="M42397 25178
L42472 25178
L42510 25159
L42529 25140
L42566 25084
L42585 25009
L42585 24859
L42566 24821
L42547 24803
L42510 24784
L42435 24784
L42397 24803
L42379 24821
L42360 24859
L42360 24953
L42379 24990
L42397 25009
L42435 25028
L42510 25028
L42547 25009
L42566 24990
L42585 24953
" />
<text x="48425.2" y="22145.7"
textLength="1126.64" font-size="524.934" lengthAdjust="spacingAndGlyphs"
text-anchor="middle" opacity="0">J10</text>
<path d="M48106 21733
L48106 22014
L48087 22070
L48050 22108
L47994 22126
L47956 22126
" />
<path d="M48500 22126
L48275 22126
" />
<path d="M48387 22126
L48387 21733
L48350 21789
L48312 21826
L48275 21845
" />
<path d="M48743 21733
L48781 21733
L48818 21751
L48837 21770
L48856 21808
L48875 21883
L48875 21976
L48856 22051
L48837 22089
L48818 22108
L48781 22126
L48743 22126
L48706 22108
L48687 22089
L48668 22051
L48650 21976
L48650 21883
L48668 21808
L48687 21770
L48706 21751
L48743 21733
" />
<text x="48425.2" y="20570.9"
textLength="1126.64" font-size="524.934" lengthAdjust="spacingAndGlyphs"
text-anchor="middle" opacity="0">J11</text>
<path d="M48106 20158
L48106 20439
L48087 20495
L48050 20533
L47994 20552
L47956 20552
" />
<path d="M48500 20552
L48275 20552
" />
<path d="M48387 20552
L48387 20158
L48350 20214
L48312 20252
L48275 20270
" />
<path d="M48875 20552
L48650 20552
" />
<path d="M48762 20552
L48762 20158
L48725 20214
L48687 20252
L48650 20270
" />
<text x="48228.3" y="28641.7"
textLength="1126.64" font-size="524.934" lengthAdjust="spacingAndGlyphs"
text-anchor="middle" opacity="0">J12</text>
<path d="M47909 28229
L47909 28510
L47890 28566
L47853 28604
L47797 28622
L47759 28622
" />
<path d="M48303 28622
L48078 28622
" />
<path d="M48190 28622
L48190 28229
L48153 28285
L48115 28323
L48078 28341
" />
<path d="M48453 28266
L48472 28248
L48509 28229
L48603 28229
L48640 28248
L48659 28266
L48678 28304
L48678 28341
L48659 28398
L48434 28622
L48678 28622
" />
<text x="51279.5" y="22047.2"
textLength="751.687" font-size="524.934" lengthAdjust="spacingAndGlyphs"
text-anchor="middle" opacity="0">J3</text>
<path d="M51148 21634
L51148 21916
L51129 21972
L51092 22009
L51035 22028
L50998 22028
" />
<path d="M51298 21634
L51541 21634
L51410 21784
L51467 21784
L51504 21803
L51523 21822
L51541 21859
L51541 21953
L51523 21991
L51504 22009
L51467 22028
L51354 22028
L51317 22009
L51298 21991
" />
</g>
<g style="fill:#000000; fill-opacity:0.0; 
stroke:#000000; stroke-width:78.7402; stroke-opacity:1; 
stroke-linecap:round; stroke-linejoin:round;">
<text x="68799.2" y="25694.9"
textLength="751.687" font-size="524.934" lengthAdjust="spacingAndGlyphs"
text-anchor="middle" opacity="0">J8</text>
<path d="M68667 25282
L68667 25563
L68649 25619
L68611 25657
L68555 25676
L68517 25676
" />
<path d="M68911 25451
L68874 25432
L68855 25413
L68836 25376
L68836 25357
L68855 25319
L68874 25301
L68911 25282
L68986 25282
L69024 25301
L69042 25319
L69061 25357
L69061 25376
L69042 25413
L69024 25432
L68986 25451
L68911 25451
L68874 25469
L68855 25488
L68836 25526
L68836 25601
L68855 25638
L68874 25657
L68911 25676
L68986 25676
L69024 25657
L69042 25638
L69061 25601
L69061 25526
L69042 25488
L69024 25469
L68986 25451
" />
</g>
<g style="fill:#000000; fill-opacity:0.0; 
stroke:#000000; stroke-width:59.0551; stroke-opacity:1; 
stroke-linecap:round; stroke-linejoin:round;">
<text x="40059.1" y="28051.2"
textLength="1152.23" font-size="524.934" lengthAdjust="spacingAndGlyphs"
text-anchor="middle" opacity="0">J13</text>
<path d="M39740 27638
L39740 27919
L39721 27976
L39684 28013
L39627 28032
L39590 28032
" />
<path d="M40134 28032
L39909 28032
" />
<path d="M40021 28032
L40021 27638
L39984 27694
L39946 27732
L39909 27751
" />
<path d="M40265 27638
L40508 27638
L40377 27788
L40434 27788
L40471 27807
L40490 27826
L40508 27863
L40508 27957
L40490 27994
L40471 28013
L40434 28032
L40321 28032
L40284 28013
L40265 27994
" />
<text x="42027.6" y="26181.1"
textLength="864.173" font-size="524.934" lengthAdjust="spacingAndGlyphs"
text-anchor="middle" opacity="0">Q3</text>
<path d="M41990 26199
L41952 26181
L41915 26143
L41858 26087
L41821 26068
L41783 26068
" />
<path d="M41802 26162
L41765 26143
L41727 26106
L41708 26031
L41708 25899
L41727 25824
L41765 25787
L41802 25768
L41877 25768
L41915 25787
L41952 25824
L41971 25899
L41971 26031
L41952 26106
L41915 26143
L41877 26162
L41802 26162
" />
<path d="M42102 25768
L42346 25768
L42215 25918
L42271 25918
L42308 25937
L42327 25956
L42346 25993
L42346 26087
L42327 26124
L42308 26143
L42271 26162
L42158 26162
L42121 26143
L42102 26124
" />
<text x="47637.8" y="25531.5"
textLength="1220.38" font-size="524.934" lengthAdjust="spacingAndGlyphs"
text-anchor="middle" opacity="0">R13</text>
<path d="M47384 25512
L47253 25325
" />
<path d="M47159 25512
L47159 25119
L47309 25119
L47347 25137
L47365 25156
L47384 25194
L47384 25250
L47365 25287
L47347 25306
L47309 25325
L47159 25325
" />
<path d="M47759 25512
L47534 25512
" />
<path d="M47647 25512
L47647 25119
L47609 25175
L47572 25212
L47534 25231
" />
<path d="M47890 25119
L48134 25119
L48003 25269
L48059 25269
L48097 25287
L48115 25306
L48134 25344
L48134 25437
L48115 25475
L48097 25494
L48059 25512
L47947 25512
L47909 25494
L47890 25475
" />
<text x="43503.9" y="26240.2"
textLength="1220.38" font-size="524.934" lengthAdjust="spacingAndGlyphs"
text-anchor="middle" opacity="0">R14</text>
<path d="M43250 26221
L43119 26033
" />
<path d="M43025 26221
L43025 25827
L43175 25827
L43213 25846
L43232 25865
L43250 25902
L43250 25958
L43232 25996
L43213 26015
L43175 26033
L43025 26033
" />
<path d="M43625 26221
L43400 26221
" />
<path d="M43513 26221
L43513 25827
L43475 25883
L43438 25921
L43400 25940
" />
<path d="M43963 25958
L43963 26221
" />
<path d="M43869 25808
L43775 26090
L44019 26090
" />
<g >
</g>
</g>
<g style="fill:#000000; fill-opacity:0.0; 
stroke:#000000; stroke-width:59.0551; stroke-opacity:1; 
stroke-linecap:round; stroke-linejoin:round;">
<path d="M39370 19685
L74015 19685
" />
<path d="M39370 20078
L39370 19685
" />
<path d="M39370 29133
L39370 20078
" />
<path d="M74015 29133
L39370 29133
" />
<path d="M74015 19685
L74015 29133
" />
<g >
</g>
<g >
</g>
<g >
</g>
<g >
</g>
<g >
</g>
<g >
</g>
<g >
</g>
<g >
</g>
<g >
</g>
<g >
</g>
<g >
</g>
<g >
</g>
<g >
</g>
<g >
</g>
<g >
</g>
<g >
</g>
<g >
</g>
<g >
</g>
<g >
</g>
<g >
</g>
<g >
</g>
<g >
</g>
<g >
</g>
<g >
</g>
<g >
</g>
<g >
</g>
<g >
</g>
<g >
</g>
<g >
</g>
<g >
</g>
<g >
</g>
<g >
</g>
<g >
</g>
<g >
</g>
<g >
</g>
<g >
</g>
<g >
</g>
<g >
</g>
<g >
</g>
<g >
</g>
<g >
</g>
<g >
</g>
<g >
</g>
<g >
</g>
<g >
</g>
<g >
</g>
<g >
</g>
<g >
</g>
</g> 
</svg>
