G04 #@! TF.GenerationSoftware,KiCad,Pcbnew,5.1.5-52549c5~84~ubuntu18.04.1*
G04 #@! TF.CreationDate,2020-03-24T02:11:58-07:00*
G04 #@! TF.ProjectId,motor-control,6d6f746f-722d-4636-9f6e-74726f6c2e6b,rev?*
G04 #@! TF.SameCoordinates,Original*
G04 #@! TF.FileFunction,Soldermask,Bot*
G04 #@! TF.FilePolarity,Negative*
%FSLAX46Y46*%
G04 Gerber Fmt 4.6, Leading zero omitted, Abs format (unit mm)*
G04 Created by KiCad (PCBNEW 5.1.5-52549c5~84~ubuntu18.04.1) date 2020-03-24 02:11:58*
%MOMM*%
%LPD*%
G04 APERTURE LIST*
%ADD10O,2.100000X2.100000*%
%ADD11R,2.100000X2.100000*%
%ADD12O,2.150000X1.600000*%
%ADD13C,0.100000*%
%ADD14O,2.100000X1.300000*%
%ADD15O,2.800000X1.300000*%
%ADD16C,1.100000*%
%ADD17R,2.400000X4.400000*%
%ADD18O,2.400000X3.700000*%
%ADD19O,3.900000X2.400000*%
%ADD20C,2.000000*%
G04 APERTURE END LIST*
D10*
X170750000Y-62090000D03*
X170750000Y-64630000D03*
X170750000Y-67170000D03*
X170750000Y-69710000D03*
D11*
X170750000Y-72250000D03*
D10*
X149710000Y-72250000D03*
D11*
X152250000Y-72250000D03*
X120250000Y-61000000D03*
D10*
X117710000Y-61000000D03*
X115170000Y-61000000D03*
D12*
X133000000Y-70000000D03*
X133000000Y-68000000D03*
X133000000Y-66000000D03*
X133000000Y-64000000D03*
X133000000Y-62000000D03*
D13*
G36*
X133774340Y-59201605D02*
G01*
X133806698Y-59206405D01*
X133838429Y-59214353D01*
X133869229Y-59225373D01*
X133898800Y-59239359D01*
X133926857Y-59256177D01*
X133953132Y-59275663D01*
X133977369Y-59297631D01*
X133999337Y-59321868D01*
X134018823Y-59348143D01*
X134035641Y-59376200D01*
X134049627Y-59405771D01*
X134060647Y-59436571D01*
X134068595Y-59468302D01*
X134073395Y-59500660D01*
X134075000Y-59533332D01*
X134075000Y-60466668D01*
X134073395Y-60499340D01*
X134068595Y-60531698D01*
X134060647Y-60563429D01*
X134049627Y-60594229D01*
X134035641Y-60623800D01*
X134018823Y-60651857D01*
X133999337Y-60678132D01*
X133977369Y-60702369D01*
X133953132Y-60724337D01*
X133926857Y-60743823D01*
X133898800Y-60760641D01*
X133869229Y-60774627D01*
X133838429Y-60785647D01*
X133806698Y-60793595D01*
X133774340Y-60798395D01*
X133741668Y-60800000D01*
X132258332Y-60800000D01*
X132225660Y-60798395D01*
X132193302Y-60793595D01*
X132161571Y-60785647D01*
X132130771Y-60774627D01*
X132101200Y-60760641D01*
X132073143Y-60743823D01*
X132046868Y-60724337D01*
X132022631Y-60702369D01*
X132000663Y-60678132D01*
X131981177Y-60651857D01*
X131964359Y-60623800D01*
X131950373Y-60594229D01*
X131939353Y-60563429D01*
X131931405Y-60531698D01*
X131926605Y-60499340D01*
X131925000Y-60466668D01*
X131925000Y-59533332D01*
X131926605Y-59500660D01*
X131931405Y-59468302D01*
X131939353Y-59436571D01*
X131950373Y-59405771D01*
X131964359Y-59376200D01*
X131981177Y-59348143D01*
X132000663Y-59321868D01*
X132022631Y-59297631D01*
X132046868Y-59275663D01*
X132073143Y-59256177D01*
X132101200Y-59239359D01*
X132130771Y-59225373D01*
X132161571Y-59214353D01*
X132193302Y-59206405D01*
X132225660Y-59201605D01*
X132258332Y-59200000D01*
X133741668Y-59200000D01*
X133774340Y-59201605D01*
G37*
D14*
X186360000Y-57450000D03*
X186360000Y-66100000D03*
D15*
X182980000Y-57450000D03*
X182980000Y-66100000D03*
D16*
X183350000Y-61350000D03*
X183350000Y-58800000D03*
X183350000Y-59650000D03*
X183350000Y-60500000D03*
X183350000Y-64750000D03*
X183350000Y-63050000D03*
X183350000Y-62200000D03*
X183350000Y-63900000D03*
X182000000Y-58800000D03*
X182000000Y-59650000D03*
X182000000Y-60500000D03*
X182000000Y-61350000D03*
X182000000Y-62200000D03*
X182000000Y-63050000D03*
X182000000Y-63900000D03*
X182000000Y-64750000D03*
D10*
X162370000Y-72250000D03*
X159830000Y-72250000D03*
X157290000Y-72250000D03*
D11*
X154750000Y-72250000D03*
D17*
X111000000Y-56500000D03*
D18*
X105000000Y-56500000D03*
D19*
X104000000Y-52000000D03*
X104000000Y-61000000D03*
D20*
X102000000Y-56500000D03*
D10*
X115170000Y-57250000D03*
X117710000Y-57250000D03*
D11*
X120250000Y-57250000D03*
X120250000Y-53250000D03*
D10*
X117710000Y-53250000D03*
X115170000Y-53250000D03*
D11*
X119500000Y-71000000D03*
D10*
X116960000Y-71000000D03*
D11*
X127750000Y-55500000D03*
D10*
X127750000Y-58040000D03*
X127750000Y-60580000D03*
X127750000Y-63120000D03*
X127750000Y-65660000D03*
X127750000Y-68200000D03*
X127750000Y-70740000D03*
D11*
X105000000Y-71000000D03*
D10*
X107540000Y-71000000D03*
X110080000Y-71000000D03*
X112620000Y-71000000D03*
M02*
