M48
; DRILL file {KiCad 5.1.5-52549c5~84~ubuntu18.04.1} date Tue 24 Mar 2020 02:12:00 AM PDT
; FORMAT={-:-/ absolute / inch / decimal}
; #@! TF.CreationDate,2020-03-24T02:12:00-07:00
; #@! TF.GenerationSoftware,Kicad,Pcbnew,5.1.5-52549c5~84~ubuntu18.04.1
; #@! TF.FileFunction,Plated,1,2,PTH
FMAT,2
INCH
T1C0.0157
T2C0.0236
T3C0.0295
T4C0.0394
%
G90
G05
T1
X4.4291Y-2.5295
X4.7441Y-2.5492
X4.9114Y-2.0571
X5.2165Y-2.0768
X5.2461Y-2.2638
X5.2854Y-2.0669
X5.3248Y-2.815
X5.3445Y-2.5394
X5.3445Y-2.5886
X5.4035Y-2.7953
X5.4134Y-2.3425
X5.4331Y-2.3819
X5.4429Y-2.126
X5.4823Y-2.7555
X5.4921Y-2.8248
X5.5709Y-2.7067
X5.5807Y-2.0571
X5.6201Y-2.4705
X5.6496Y-2.3819
X5.6594Y-2.313
X5.6594Y-2.7362
X5.689Y-2.0768
X5.689Y-2.2638
X5.689Y-2.5886
X5.7185Y-2.6181
X5.7579Y-2.6673
X5.7677Y-2.628
X5.8465Y-2.3917
X6.0138Y-2.6476
X6.0335Y-2.126
X6.0433Y-2.313
X6.0433Y-2.6083
X6.1417Y-2.2638
X6.1417Y-2.628
X6.1909Y-2.5
X6.2008Y-2.1949
X6.2106Y-2.0866
X6.2205Y-2.5295
X6.2303Y-2.6772
X6.2402Y-2.2028
X6.25Y-2.3789
X6.2598Y-2.5295
X6.2598Y-2.7067
X6.2992Y-2.2146
X6.2992Y-2.5591
X6.3091Y-2.7264
X6.3287Y-2.1752
X6.3484Y-2.7067
X6.378Y-2.6772
X6.3878Y-2.372
X6.4075Y-2.2835
X6.4173Y-2.7067
X6.4567Y-2.2736
X6.4961Y-2.2539
X6.5157Y-2.372
X6.5354Y-2.628
X6.6043Y-2.8642
X6.6831Y-2.0177
X6.7028Y-2.2441
X6.8406Y-2.2047
X6.8701Y-2.4606
X6.8898Y-2.5689
X6.9783Y-2.4213
X7.0079Y-2.2441
X7.0079Y-2.4606
X7.0768Y-2.7362
X7.0866Y-2.3819
X7.1063Y-2.2146
X7.1358Y-2.7657
X7.185Y-2.0276
X7.313Y-2.815
X7.1654Y-2.315
X7.1654Y-2.3484
X7.1654Y-2.3819
X7.1654Y-2.4154
X7.1654Y-2.4488
X7.1654Y-2.4823
X7.1654Y-2.5157
X7.1654Y-2.5492
X7.2185Y-2.315
X7.2185Y-2.3484
X7.2185Y-2.3819
X7.2185Y-2.4154
X7.2185Y-2.4488
X7.2185Y-2.4823
X7.2185Y-2.5157
X7.2185Y-2.5492
T3
X5.2362Y-2.3622
X5.2362Y-2.4409
X5.2362Y-2.5197
X5.2362Y-2.5984
X5.2362Y-2.6772
X5.2362Y-2.7559
T4
X4.6047Y-2.7953
X4.7047Y-2.7953
X6.0925Y-2.8445
X6.1925Y-2.8445
X6.2925Y-2.8445
X6.3925Y-2.8445
X4.5343Y-2.0965
X4.6343Y-2.0965
X4.7343Y-2.0965
X6.7224Y-2.4445
X6.7224Y-2.5445
X6.7224Y-2.6445
X6.7224Y-2.7445
X6.7224Y-2.8445
X4.1339Y-2.7953
X4.2339Y-2.7953
X4.3339Y-2.7953
X4.4339Y-2.7953
X5.0295Y-2.185
X5.0295Y-2.285
X5.0295Y-2.385
X5.0295Y-2.485
X5.0295Y-2.585
X5.0295Y-2.685
X5.0295Y-2.785
X4.5343Y-2.2539
X4.6343Y-2.2539
X4.7343Y-2.2539
X4.5343Y-2.4016
X4.6343Y-2.4016
X4.7343Y-2.4016
X5.8941Y-2.8445
X5.9941Y-2.8445
T2
G00X7.1744Y-2.2618
M15
G01X7.2335Y-2.2618
M16
G05
G00X7.1744Y-2.6024
M15
G01X7.2335Y-2.6024
M16
G05
G00X7.3213Y-2.2618
M15
G01X7.3528Y-2.2618
M16
G05
G00X7.3213Y-2.6024
M15
G01X7.3528Y-2.6024
M16
G05
T4
G00X4.124Y-2.0472
M15
G01X4.065Y-2.0472
M16
G05
G00X4.124Y-2.4016
M15
G01X4.065Y-2.4016
M16
G05
G00X4.1339Y-2.1988
M15
G01X4.1339Y-2.25
M16
G05
G00X4.3701Y-2.185
M15
G01X4.3701Y-2.2638
M16
G05
T0
M30
