G04 #@! TF.GenerationSoftware,KiCad,Pcbnew,5.1.5-52549c5~84~ubuntu18.04.1*
G04 #@! TF.CreationDate,2020-03-24T02:11:58-07:00*
G04 #@! TF.ProjectId,motor-control,6d6f746f-722d-4636-9f6e-74726f6c2e6b,rev?*
G04 #@! TF.SameCoordinates,Original*
G04 #@! TF.FileFunction,Copper,L2,Bot*
G04 #@! TF.FilePolarity,Positive*
%FSLAX46Y46*%
G04 Gerber Fmt 4.6, Leading zero omitted, Abs format (unit mm)*
G04 Created by KiCad (PCBNEW 5.1.5-52549c5~84~ubuntu18.04.1) date 2020-03-24 02:11:58*
%MOMM*%
%LPD*%
G04 APERTURE LIST*
%ADD10O,1.700000X1.700000*%
%ADD11R,1.700000X1.700000*%
%ADD12O,1.750000X1.200000*%
%ADD13C,0.100000*%
%ADD14O,1.700000X0.900000*%
%ADD15O,2.400000X0.900000*%
%ADD16C,0.700000*%
%ADD17R,2.000000X4.000000*%
%ADD18O,2.000000X3.300000*%
%ADD19O,3.500000X2.000000*%
%ADD20C,0.600000*%
%ADD21C,0.200000*%
%ADD22C,1.000000*%
%ADD23C,0.350000*%
%ADD24C,0.800000*%
%ADD25C,0.254000*%
G04 APERTURE END LIST*
D10*
X170750000Y-62090000D03*
X170750000Y-64630000D03*
X170750000Y-67170000D03*
X170750000Y-69710000D03*
D11*
X170750000Y-72250000D03*
D10*
X149710000Y-72250000D03*
D11*
X152250000Y-72250000D03*
X120250000Y-61000000D03*
D10*
X117710000Y-61000000D03*
X115170000Y-61000000D03*
D12*
X133000000Y-70000000D03*
X133000000Y-68000000D03*
X133000000Y-66000000D03*
X133000000Y-64000000D03*
X133000000Y-62000000D03*
G04 #@! TA.AperFunction,ComponentPad*
D13*
G36*
X133649505Y-59401204D02*
G01*
X133673773Y-59404804D01*
X133697572Y-59410765D01*
X133720671Y-59419030D01*
X133742850Y-59429520D01*
X133763893Y-59442132D01*
X133783599Y-59456747D01*
X133801777Y-59473223D01*
X133818253Y-59491401D01*
X133832868Y-59511107D01*
X133845480Y-59532150D01*
X133855970Y-59554329D01*
X133864235Y-59577428D01*
X133870196Y-59601227D01*
X133873796Y-59625495D01*
X133875000Y-59649999D01*
X133875000Y-60350001D01*
X133873796Y-60374505D01*
X133870196Y-60398773D01*
X133864235Y-60422572D01*
X133855970Y-60445671D01*
X133845480Y-60467850D01*
X133832868Y-60488893D01*
X133818253Y-60508599D01*
X133801777Y-60526777D01*
X133783599Y-60543253D01*
X133763893Y-60557868D01*
X133742850Y-60570480D01*
X133720671Y-60580970D01*
X133697572Y-60589235D01*
X133673773Y-60595196D01*
X133649505Y-60598796D01*
X133625001Y-60600000D01*
X132374999Y-60600000D01*
X132350495Y-60598796D01*
X132326227Y-60595196D01*
X132302428Y-60589235D01*
X132279329Y-60580970D01*
X132257150Y-60570480D01*
X132236107Y-60557868D01*
X132216401Y-60543253D01*
X132198223Y-60526777D01*
X132181747Y-60508599D01*
X132167132Y-60488893D01*
X132154520Y-60467850D01*
X132144030Y-60445671D01*
X132135765Y-60422572D01*
X132129804Y-60398773D01*
X132126204Y-60374505D01*
X132125000Y-60350001D01*
X132125000Y-59649999D01*
X132126204Y-59625495D01*
X132129804Y-59601227D01*
X132135765Y-59577428D01*
X132144030Y-59554329D01*
X132154520Y-59532150D01*
X132167132Y-59511107D01*
X132181747Y-59491401D01*
X132198223Y-59473223D01*
X132216401Y-59456747D01*
X132236107Y-59442132D01*
X132257150Y-59429520D01*
X132279329Y-59419030D01*
X132302428Y-59410765D01*
X132326227Y-59404804D01*
X132350495Y-59401204D01*
X132374999Y-59400000D01*
X133625001Y-59400000D01*
X133649505Y-59401204D01*
G37*
G04 #@! TD.AperFunction*
D14*
X186360000Y-57450000D03*
X186360000Y-66100000D03*
D15*
X182980000Y-57450000D03*
X182980000Y-66100000D03*
D16*
X183350000Y-61350000D03*
X183350000Y-58800000D03*
X183350000Y-59650000D03*
X183350000Y-60500000D03*
X183350000Y-64750000D03*
X183350000Y-63050000D03*
X183350000Y-62200000D03*
X183350000Y-63900000D03*
X182000000Y-58800000D03*
X182000000Y-59650000D03*
X182000000Y-60500000D03*
X182000000Y-61350000D03*
X182000000Y-62200000D03*
X182000000Y-63050000D03*
X182000000Y-63900000D03*
X182000000Y-64750000D03*
D10*
X162370000Y-72250000D03*
X159830000Y-72250000D03*
X157290000Y-72250000D03*
D11*
X154750000Y-72250000D03*
D17*
X111000000Y-56500000D03*
D18*
X105000000Y-56500000D03*
D19*
X104000000Y-52000000D03*
X104000000Y-61000000D03*
D10*
X115170000Y-57250000D03*
X117710000Y-57250000D03*
D11*
X120250000Y-57250000D03*
X120250000Y-53250000D03*
D10*
X117710000Y-53250000D03*
X115170000Y-53250000D03*
D11*
X119500000Y-71000000D03*
D10*
X116960000Y-71000000D03*
D11*
X127750000Y-55500000D03*
D10*
X127750000Y-58040000D03*
X127750000Y-60580000D03*
X127750000Y-63120000D03*
X127750000Y-65660000D03*
X127750000Y-68200000D03*
X127750000Y-70740000D03*
D11*
X105000000Y-71000000D03*
D10*
X107540000Y-71000000D03*
X110080000Y-71000000D03*
X112620000Y-71000000D03*
D20*
X162000000Y-68000000D03*
X180000000Y-60500000D03*
X178000000Y-62500000D03*
X166000000Y-66750000D03*
X167750000Y-72750000D03*
X144500000Y-52750000D03*
X138250000Y-54000000D03*
X139250000Y-69990000D03*
X137250000Y-71000000D03*
X144500000Y-57500000D03*
X157750000Y-53000000D03*
X162250000Y-60250000D03*
X144500000Y-65750000D03*
X170250000Y-57000000D03*
X179750000Y-69500000D03*
X135750000Y-64500000D03*
X135750000Y-65750000D03*
X145250000Y-66500000D03*
X153500000Y-58750000D03*
X156000000Y-57500000D03*
X132500000Y-52750000D03*
X148500000Y-60750000D03*
X142750000Y-62750000D03*
X185750000Y-71500000D03*
X153250000Y-54000000D03*
X158750000Y-60424264D03*
X174500000Y-62500000D03*
X165000000Y-57250000D03*
X160750000Y-55250000D03*
X177250000Y-61500000D03*
X175000000Y-65250000D03*
X162750000Y-58000000D03*
X165500000Y-60250000D03*
X156000000Y-66750000D03*
X152750000Y-67250000D03*
X181250000Y-70250000D03*
X164000000Y-57750000D03*
X169749999Y-51249999D03*
X135250000Y-71500000D03*
X141500000Y-68750000D03*
X180500000Y-56250000D03*
X178000000Y-57000000D03*
X160250000Y-69250000D03*
X159000000Y-68750000D03*
X161250000Y-68750000D03*
X139500000Y-71750000D03*
X143750000Y-69500000D03*
X138000000Y-60500000D03*
X160000000Y-65000000D03*
X143500000Y-60500000D03*
X159000000Y-64250000D03*
X157250000Y-63500000D03*
X143750000Y-58750000D03*
X153500000Y-66250000D03*
X146500000Y-66750000D03*
X158250000Y-68000000D03*
X146250000Y-67750000D03*
X173750000Y-56000000D03*
X182500000Y-51500000D03*
X163000000Y-68750000D03*
X134250000Y-52500000D03*
X141750000Y-52250000D03*
X124750000Y-52250000D03*
X158500000Y-55949999D03*
X157500000Y-55750000D03*
X158000000Y-64250000D03*
X120500000Y-64750000D03*
X137500000Y-59500000D03*
X133250000Y-57500000D03*
X160000000Y-56250000D03*
X112500000Y-64250000D03*
D21*
X158889990Y-70650010D02*
X163650010Y-70650010D01*
X157290000Y-72250000D02*
X158889990Y-70650010D01*
X163650010Y-70650010D02*
X165750000Y-72750000D01*
X165750000Y-72750000D02*
X167750000Y-72750000D01*
X139250000Y-70414264D02*
X138914264Y-70750000D01*
X139250000Y-69990000D02*
X139250000Y-70414264D01*
X138914264Y-70750000D02*
X137500000Y-70750000D01*
X137500000Y-70750000D02*
X137250000Y-71000000D01*
X159888002Y-54250000D02*
X153500000Y-54250000D01*
X153500000Y-54250000D02*
X153250000Y-54000000D01*
X158750000Y-60424264D02*
X158750000Y-60250000D01*
X160600001Y-54961999D02*
X159888002Y-54250000D01*
X174500000Y-62500000D02*
X169500000Y-57500000D01*
X169500000Y-57500000D02*
X165250000Y-57500000D01*
X165250000Y-57500000D02*
X165000000Y-57250000D01*
X160750000Y-55111998D02*
X160600001Y-54961999D01*
X160750000Y-55250000D02*
X160750000Y-55111998D01*
X158750000Y-60424264D02*
X158750000Y-58250000D01*
X160750000Y-55674264D02*
X160750000Y-55250000D01*
X160288001Y-56850001D02*
X160750000Y-56388002D01*
X160750000Y-56388002D02*
X160750000Y-55674264D01*
X160149999Y-56850001D02*
X160288001Y-56850001D01*
X158750000Y-58250000D02*
X160149999Y-56850001D01*
X181850000Y-61500000D02*
X182000000Y-61350000D01*
X182000000Y-61350000D02*
X183350000Y-62200000D01*
X177250000Y-61500000D02*
X181000000Y-61500000D01*
X181150000Y-61350000D02*
X182000000Y-61350000D01*
X181000000Y-61500000D02*
X181150000Y-61350000D01*
X171599999Y-68860001D02*
X172639999Y-68860001D01*
X170750000Y-69710000D02*
X171599999Y-68860001D01*
X172639999Y-68860001D02*
X175000000Y-66500000D01*
X175000000Y-66500000D02*
X175000000Y-65250000D01*
X163250000Y-58500000D02*
X162750000Y-58000000D01*
X173229999Y-63479999D02*
X170437997Y-63479999D01*
X175000000Y-65250000D02*
X173229999Y-63479999D01*
X169500000Y-62542002D02*
X169500000Y-60000000D01*
X170437997Y-63479999D02*
X169500000Y-62542002D01*
X168000000Y-58500000D02*
X163250000Y-58500000D01*
X169500000Y-60000000D02*
X168000000Y-58500000D01*
X165500000Y-60250000D02*
X167500000Y-60250000D01*
X167500000Y-60250000D02*
X168250000Y-61000000D01*
X169547919Y-64630000D02*
X170750000Y-64630000D01*
X168250000Y-63638002D02*
X169241998Y-64630000D01*
X169241998Y-64630000D02*
X169547919Y-64630000D01*
X168250000Y-61000000D02*
X168250000Y-63638002D01*
X156000000Y-66750000D02*
X155000000Y-66750000D01*
X155000000Y-66750000D02*
X154500000Y-67250000D01*
X154500000Y-67250000D02*
X152750000Y-67250000D01*
X164250000Y-58000000D02*
X164000000Y-57750000D01*
X176074263Y-64649999D02*
X175399999Y-64649999D01*
X168750000Y-58000000D02*
X164250000Y-58000000D01*
X181250000Y-69825736D02*
X176074263Y-64649999D01*
X175399999Y-64649999D02*
X168750000Y-58000000D01*
X181250000Y-70250000D02*
X181250000Y-69825736D01*
D22*
X117710000Y-61000000D02*
X117710000Y-66710000D01*
X119500000Y-68500000D02*
X119500000Y-71000000D01*
X117710000Y-66710000D02*
X119500000Y-68500000D01*
X111830000Y-66710000D02*
X117710000Y-66710000D01*
X107540000Y-71000000D02*
X111830000Y-66710000D01*
X119289999Y-51249999D02*
X169749999Y-51249999D01*
X118559999Y-51979999D02*
X119289999Y-51249999D01*
X117710000Y-53250000D02*
X118559999Y-52400001D01*
X118559999Y-52400001D02*
X118559999Y-51979999D01*
X135250000Y-70325736D02*
X135250000Y-71500000D01*
X136775726Y-68800010D02*
X135250000Y-70325736D01*
X141500000Y-68800010D02*
X136775726Y-68800010D01*
X141500000Y-68750000D02*
X141500000Y-68800010D01*
D23*
X182000000Y-59650000D02*
X181505026Y-59650000D01*
X181505026Y-59650000D02*
X181150000Y-59650000D01*
X181150000Y-59650000D02*
X180750000Y-59250000D01*
X180750000Y-59250000D02*
X180750000Y-56500000D01*
X180750000Y-56500000D02*
X180500000Y-56250000D01*
D21*
X183844974Y-60500000D02*
X183350000Y-60500000D01*
X178000000Y-56500000D02*
X179000000Y-55500000D01*
X178000000Y-57000000D02*
X178000000Y-56500000D01*
X184750000Y-57000000D02*
X184750000Y-59594974D01*
X179000000Y-55500000D02*
X183250000Y-55500000D01*
X183250000Y-55500000D02*
X184750000Y-57000000D01*
X184750000Y-59594974D02*
X183844974Y-60500000D01*
D24*
X129040000Y-58040000D02*
X127750000Y-58040000D01*
X130250000Y-59250000D02*
X129040000Y-58040000D01*
X133000000Y-62000000D02*
X132000000Y-62000000D01*
X130250000Y-60250000D02*
X130250000Y-59250000D01*
X132000000Y-62000000D02*
X130250000Y-60250000D01*
X129400000Y-55500000D02*
X132250000Y-58350000D01*
X127750000Y-55500000D02*
X129400000Y-55500000D01*
X132250000Y-59250000D02*
X133000000Y-60000000D01*
X132250000Y-58350000D02*
X132250000Y-59250000D01*
D21*
X133000000Y-70800000D02*
X133000000Y-70000000D01*
X134700000Y-72500000D02*
X133000000Y-70800000D01*
X142500000Y-72500000D02*
X134700000Y-72500000D01*
X160250000Y-69250000D02*
X159825736Y-69250000D01*
X159825736Y-69250000D02*
X159575736Y-69500000D01*
X159575736Y-69500000D02*
X149500000Y-69500000D01*
X149500000Y-69500000D02*
X147500000Y-71500000D01*
X143500000Y-71500000D02*
X142500000Y-72500000D01*
X147500000Y-71500000D02*
X143500000Y-71500000D01*
X129550000Y-70000000D02*
X127750000Y-68200000D01*
X133000000Y-70000000D02*
X129550000Y-70000000D01*
X130090000Y-68000000D02*
X127750000Y-65660000D01*
X133000000Y-68000000D02*
X130090000Y-68000000D01*
X134075000Y-68000000D02*
X134000000Y-68000000D01*
X134825000Y-67250000D02*
X134075000Y-68000000D01*
X134000000Y-68000000D02*
X133000000Y-68000000D01*
X143638002Y-67250000D02*
X134825000Y-67250000D01*
X145138002Y-68750000D02*
X143638002Y-67250000D01*
X159000000Y-68750000D02*
X145138002Y-68750000D01*
X130110001Y-73100001D02*
X127750000Y-70740000D01*
X146649999Y-73100001D02*
X130110001Y-73100001D01*
X149500000Y-70250000D02*
X146649999Y-73100001D01*
X160500000Y-70250000D02*
X149500000Y-70250000D01*
X161250000Y-69500000D02*
X160500000Y-70250000D01*
X161250000Y-69500000D02*
X161250000Y-68750000D01*
X142075736Y-71500000D02*
X139750000Y-71500000D01*
X139750000Y-71500000D02*
X139500000Y-71750000D01*
X142075736Y-71500000D02*
X142075736Y-71424264D01*
X142075736Y-71174264D02*
X143750000Y-69500000D01*
X142075736Y-71500000D02*
X142075736Y-71174264D01*
X139000000Y-61500000D02*
X138000000Y-60500000D01*
X160000000Y-65000000D02*
X159250000Y-65000000D01*
X159250000Y-65000000D02*
X158750000Y-65500000D01*
X152400010Y-65400010D02*
X146650010Y-65400010D01*
X158750000Y-65500000D02*
X152500000Y-65500000D01*
X152500000Y-65500000D02*
X152400010Y-65400010D01*
X142750000Y-61500000D02*
X139000000Y-61500000D01*
X146650010Y-65400010D02*
X142750000Y-61500000D01*
X148000000Y-65000000D02*
X143500000Y-60500000D01*
X148000000Y-65000000D02*
X157500000Y-65000000D01*
X157500000Y-65000000D02*
X158250000Y-65000000D01*
X158250000Y-65000000D02*
X159000000Y-64250000D01*
X154500000Y-63750000D02*
X156250000Y-63750000D01*
X156500000Y-63500000D02*
X157250000Y-63500000D01*
X156250000Y-63750000D02*
X156500000Y-63500000D01*
X143750000Y-58750000D02*
X148200001Y-63200001D01*
X153950001Y-63200001D02*
X154500000Y-63750000D01*
X148200001Y-63200001D02*
X153950001Y-63200001D01*
X153500000Y-66250000D02*
X147750000Y-66250000D01*
X147750000Y-66250000D02*
X147250000Y-66750000D01*
X147250000Y-66750000D02*
X147000000Y-66750000D01*
X147000000Y-66750000D02*
X146500000Y-66750000D01*
X158250000Y-68000000D02*
X147250000Y-68000000D01*
X147250000Y-68000000D02*
X146500000Y-68000000D01*
X146500000Y-68000000D02*
X146250000Y-67750000D01*
D23*
X173750000Y-56000000D02*
X175750000Y-56000000D01*
X175750000Y-56000000D02*
X180250000Y-51500000D01*
X180250000Y-51500000D02*
X182500000Y-51500000D01*
X169550000Y-72250000D02*
X169050000Y-71750000D01*
X170750000Y-72250000D02*
X169550000Y-72250000D01*
X169050000Y-71750000D02*
X167000000Y-71750000D01*
X167000000Y-71750000D02*
X164000000Y-68750000D01*
X164000000Y-68750000D02*
X163000000Y-68750000D01*
X132500000Y-64000000D02*
X133000000Y-64000000D01*
X127750000Y-60580000D02*
X129080000Y-60580000D01*
X129080000Y-60580000D02*
X132500000Y-64000000D01*
X134500000Y-52250000D02*
X134250000Y-52500000D01*
X141750000Y-52250000D02*
X134500000Y-52250000D01*
D21*
X129750000Y-52250000D02*
X132649999Y-55149999D01*
X124750000Y-52250000D02*
X129750000Y-52250000D01*
X158124264Y-55149999D02*
X132649999Y-55149999D01*
X158500000Y-55525735D02*
X158124264Y-55149999D01*
X158500000Y-55949999D02*
X158500000Y-55525735D01*
X121350020Y-53199980D02*
X121300000Y-53250000D01*
X129949980Y-53199980D02*
X121350020Y-53199980D01*
X121300000Y-53250000D02*
X120250000Y-53250000D01*
X132500000Y-55750000D02*
X129949980Y-53199980D01*
X155500000Y-55750000D02*
X157500000Y-55750000D01*
X132500000Y-55750000D02*
X155500000Y-55750000D01*
X125750000Y-54500000D02*
X125750000Y-59500000D01*
X126250000Y-54000000D02*
X125750000Y-54500000D01*
X125750000Y-59500000D02*
X120500000Y-64750000D01*
X158000000Y-64250000D02*
X148750000Y-64250000D01*
X129250000Y-54000000D02*
X126250000Y-54000000D01*
X132200008Y-56950009D02*
X129250000Y-54000000D01*
X148138002Y-64250000D02*
X143388002Y-59500000D01*
X148750000Y-64250000D02*
X148138002Y-64250000D01*
X143388002Y-59500000D02*
X137500000Y-59500000D01*
X132325736Y-57000000D02*
X132250000Y-57000000D01*
X132825736Y-57500000D02*
X132325736Y-57000000D01*
X133250000Y-57500000D02*
X132825736Y-57500000D01*
X132250000Y-57000000D02*
X132200008Y-56950009D01*
X124750000Y-54990002D02*
X120240002Y-59500000D01*
X124750000Y-54934302D02*
X124750000Y-54990002D01*
X114967998Y-59500000D02*
X112500000Y-61967998D01*
X120240002Y-59500000D02*
X114967998Y-59500000D01*
X112500000Y-61967998D02*
X112500000Y-64250000D01*
X125967151Y-53717151D02*
X124750000Y-54934302D01*
X126084310Y-53599992D02*
X125967151Y-53717151D01*
X126084312Y-53599990D02*
X125967151Y-53717151D01*
X129415689Y-53599990D02*
X126084312Y-53599990D01*
X132365697Y-56549999D02*
X129415689Y-53599990D01*
X159700000Y-56550000D02*
X132365697Y-56549999D01*
X160000000Y-56250000D02*
X159700000Y-56550000D01*
D25*
G36*
X102088286Y-50838286D02*
G01*
X101883969Y-51087248D01*
X101732148Y-51371285D01*
X101638657Y-51679484D01*
X101607089Y-52000000D01*
X101638657Y-52320516D01*
X101732148Y-52628715D01*
X101883969Y-52912752D01*
X102088286Y-53161714D01*
X102337248Y-53366031D01*
X102621285Y-53517852D01*
X102929484Y-53611343D01*
X103169678Y-53635000D01*
X104830322Y-53635000D01*
X105070516Y-53611343D01*
X105085192Y-53606891D01*
X113728519Y-53606891D01*
X113825843Y-53881252D01*
X113974822Y-54131355D01*
X114169731Y-54347588D01*
X114403080Y-54521641D01*
X114665901Y-54646825D01*
X114813110Y-54691476D01*
X115043000Y-54570155D01*
X115043000Y-53377000D01*
X113849186Y-53377000D01*
X113728519Y-53606891D01*
X105085192Y-53606891D01*
X105378715Y-53517852D01*
X105662752Y-53366031D01*
X105911714Y-53161714D01*
X106116031Y-52912752D01*
X106126530Y-52893109D01*
X113728519Y-52893109D01*
X113849186Y-53123000D01*
X115043000Y-53123000D01*
X115043000Y-51929845D01*
X114813110Y-51808524D01*
X114665901Y-51853175D01*
X114403080Y-51978359D01*
X114169731Y-52152412D01*
X113974822Y-52368645D01*
X113825843Y-52618748D01*
X113728519Y-52893109D01*
X106126530Y-52893109D01*
X106267852Y-52628715D01*
X106361343Y-52320516D01*
X106392911Y-52000000D01*
X106361343Y-51679484D01*
X106267852Y-51371285D01*
X106116031Y-51087248D01*
X105911714Y-50838286D01*
X105755396Y-50710000D01*
X118224867Y-50710000D01*
X117796859Y-51138008D01*
X117753551Y-51173550D01*
X117611716Y-51346376D01*
X117506323Y-51543552D01*
X117457425Y-51704747D01*
X117441422Y-51757501D01*
X117438224Y-51789967D01*
X117276842Y-51822068D01*
X117006589Y-51934010D01*
X116763368Y-52096525D01*
X116556525Y-52303368D01*
X116434805Y-52485534D01*
X116365178Y-52368645D01*
X116170269Y-52152412D01*
X115936920Y-51978359D01*
X115674099Y-51853175D01*
X115526890Y-51808524D01*
X115297000Y-51929845D01*
X115297000Y-53123000D01*
X115317000Y-53123000D01*
X115317000Y-53377000D01*
X115297000Y-53377000D01*
X115297000Y-54570155D01*
X115526890Y-54691476D01*
X115674099Y-54646825D01*
X115936920Y-54521641D01*
X116170269Y-54347588D01*
X116365178Y-54131355D01*
X116434805Y-54014466D01*
X116556525Y-54196632D01*
X116763368Y-54403475D01*
X117006589Y-54565990D01*
X117276842Y-54677932D01*
X117563740Y-54735000D01*
X117856260Y-54735000D01*
X118143158Y-54677932D01*
X118413411Y-54565990D01*
X118656632Y-54403475D01*
X118788487Y-54271620D01*
X118810498Y-54344180D01*
X118869463Y-54454494D01*
X118948815Y-54551185D01*
X119045506Y-54630537D01*
X119155820Y-54689502D01*
X119275518Y-54725812D01*
X119400000Y-54738072D01*
X121100000Y-54738072D01*
X121224482Y-54725812D01*
X121344180Y-54689502D01*
X121454494Y-54630537D01*
X121551185Y-54551185D01*
X121630537Y-54454494D01*
X121689502Y-54344180D01*
X121725812Y-54224482D01*
X121738072Y-54100000D01*
X121738072Y-53934980D01*
X124709876Y-53934980D01*
X124255808Y-54389048D01*
X124227762Y-54412065D01*
X124135913Y-54523983D01*
X124089225Y-54611330D01*
X121738072Y-56962484D01*
X121738072Y-56400000D01*
X121725812Y-56275518D01*
X121689502Y-56155820D01*
X121630537Y-56045506D01*
X121551185Y-55948815D01*
X121454494Y-55869463D01*
X121344180Y-55810498D01*
X121224482Y-55774188D01*
X121100000Y-55761928D01*
X119400000Y-55761928D01*
X119275518Y-55774188D01*
X119155820Y-55810498D01*
X119045506Y-55869463D01*
X118948815Y-55948815D01*
X118869463Y-56045506D01*
X118810498Y-56155820D01*
X118788487Y-56228380D01*
X118656632Y-56096525D01*
X118413411Y-55934010D01*
X118143158Y-55822068D01*
X117856260Y-55765000D01*
X117563740Y-55765000D01*
X117276842Y-55822068D01*
X117006589Y-55934010D01*
X116763368Y-56096525D01*
X116556525Y-56303368D01*
X116434805Y-56485534D01*
X116365178Y-56368645D01*
X116170269Y-56152412D01*
X115936920Y-55978359D01*
X115674099Y-55853175D01*
X115526890Y-55808524D01*
X115297000Y-55929845D01*
X115297000Y-57123000D01*
X115317000Y-57123000D01*
X115317000Y-57377000D01*
X115297000Y-57377000D01*
X115297000Y-58570155D01*
X115526890Y-58691476D01*
X115674099Y-58646825D01*
X115936920Y-58521641D01*
X116170269Y-58347588D01*
X116365178Y-58131355D01*
X116434805Y-58014466D01*
X116556525Y-58196632D01*
X116763368Y-58403475D01*
X117006589Y-58565990D01*
X117276842Y-58677932D01*
X117563740Y-58735000D01*
X117856260Y-58735000D01*
X118143158Y-58677932D01*
X118413411Y-58565990D01*
X118656632Y-58403475D01*
X118788487Y-58271620D01*
X118810498Y-58344180D01*
X118869463Y-58454494D01*
X118948815Y-58551185D01*
X119045506Y-58630537D01*
X119155820Y-58689502D01*
X119275518Y-58725812D01*
X119400000Y-58738072D01*
X119962484Y-58738072D01*
X119935556Y-58765000D01*
X115004092Y-58765000D01*
X114967997Y-58761445D01*
X114931902Y-58765000D01*
X114931893Y-58765000D01*
X114823913Y-58775635D01*
X114685365Y-58817663D01*
X114557678Y-58885913D01*
X114445760Y-58977762D01*
X114422744Y-59005807D01*
X112005808Y-61422744D01*
X111977762Y-61445761D01*
X111885913Y-61557679D01*
X111817663Y-61685366D01*
X111795661Y-61757898D01*
X111775635Y-61823913D01*
X111761444Y-61967998D01*
X111765000Y-62004103D01*
X111765001Y-63667048D01*
X111671414Y-63807111D01*
X111600932Y-63977271D01*
X111565000Y-64157911D01*
X111565000Y-64342089D01*
X111600932Y-64522729D01*
X111671414Y-64692889D01*
X111773738Y-64846028D01*
X111903972Y-64976262D01*
X112057111Y-65078586D01*
X112227271Y-65149068D01*
X112407911Y-65185000D01*
X112592089Y-65185000D01*
X112772729Y-65149068D01*
X112942889Y-65078586D01*
X113096028Y-64976262D01*
X113226262Y-64846028D01*
X113328586Y-64692889D01*
X113399068Y-64522729D01*
X113435000Y-64342089D01*
X113435000Y-64157911D01*
X113399068Y-63977271D01*
X113328586Y-63807111D01*
X113235000Y-63667049D01*
X113235000Y-62272444D01*
X113844639Y-61662806D01*
X113974822Y-61881355D01*
X114169731Y-62097588D01*
X114403080Y-62271641D01*
X114665901Y-62396825D01*
X114813110Y-62441476D01*
X115043000Y-62320155D01*
X115043000Y-61127000D01*
X115023000Y-61127000D01*
X115023000Y-60873000D01*
X115043000Y-60873000D01*
X115043000Y-60853000D01*
X115297000Y-60853000D01*
X115297000Y-60873000D01*
X115317000Y-60873000D01*
X115317000Y-61127000D01*
X115297000Y-61127000D01*
X115297000Y-62320155D01*
X115526890Y-62441476D01*
X115674099Y-62396825D01*
X115936920Y-62271641D01*
X116170269Y-62097588D01*
X116365178Y-61881355D01*
X116434805Y-61764466D01*
X116556525Y-61946632D01*
X116575000Y-61965107D01*
X116575001Y-65575000D01*
X111885743Y-65575000D01*
X111829999Y-65569510D01*
X111774255Y-65575000D01*
X111774248Y-65575000D01*
X111628493Y-65589356D01*
X111607500Y-65591423D01*
X111557705Y-65606529D01*
X111393553Y-65656324D01*
X111196377Y-65761716D01*
X111023551Y-65903551D01*
X110988009Y-65946859D01*
X107419869Y-69515000D01*
X107393740Y-69515000D01*
X107106842Y-69572068D01*
X106836589Y-69684010D01*
X106593368Y-69846525D01*
X106461513Y-69978380D01*
X106439502Y-69905820D01*
X106380537Y-69795506D01*
X106301185Y-69698815D01*
X106204494Y-69619463D01*
X106094180Y-69560498D01*
X105974482Y-69524188D01*
X105850000Y-69511928D01*
X104150000Y-69511928D01*
X104025518Y-69524188D01*
X103905820Y-69560498D01*
X103795506Y-69619463D01*
X103698815Y-69698815D01*
X103619463Y-69795506D01*
X103560498Y-69905820D01*
X103524188Y-70025518D01*
X103511928Y-70150000D01*
X103511928Y-71850000D01*
X103524188Y-71974482D01*
X103560498Y-72094180D01*
X103619463Y-72204494D01*
X103698815Y-72301185D01*
X103795506Y-72380537D01*
X103905820Y-72439502D01*
X104025518Y-72475812D01*
X104150000Y-72488072D01*
X105850000Y-72488072D01*
X105974482Y-72475812D01*
X106094180Y-72439502D01*
X106204494Y-72380537D01*
X106301185Y-72301185D01*
X106380537Y-72204494D01*
X106439502Y-72094180D01*
X106461513Y-72021620D01*
X106593368Y-72153475D01*
X106836589Y-72315990D01*
X107106842Y-72427932D01*
X107393740Y-72485000D01*
X107686260Y-72485000D01*
X107973158Y-72427932D01*
X108243411Y-72315990D01*
X108486632Y-72153475D01*
X108693475Y-71946632D01*
X108810000Y-71772240D01*
X108926525Y-71946632D01*
X109133368Y-72153475D01*
X109376589Y-72315990D01*
X109646842Y-72427932D01*
X109933740Y-72485000D01*
X110226260Y-72485000D01*
X110513158Y-72427932D01*
X110783411Y-72315990D01*
X111026632Y-72153475D01*
X111233475Y-71946632D01*
X111355195Y-71764466D01*
X111424822Y-71881355D01*
X111619731Y-72097588D01*
X111853080Y-72271641D01*
X112115901Y-72396825D01*
X112263110Y-72441476D01*
X112493000Y-72320155D01*
X112493000Y-71127000D01*
X112747000Y-71127000D01*
X112747000Y-72320155D01*
X112976890Y-72441476D01*
X113124099Y-72396825D01*
X113386920Y-72271641D01*
X113620269Y-72097588D01*
X113815178Y-71881355D01*
X113964157Y-71631252D01*
X114061481Y-71356891D01*
X115518519Y-71356891D01*
X115615843Y-71631252D01*
X115764822Y-71881355D01*
X115959731Y-72097588D01*
X116193080Y-72271641D01*
X116455901Y-72396825D01*
X116603110Y-72441476D01*
X116833000Y-72320155D01*
X116833000Y-71127000D01*
X115639186Y-71127000D01*
X115518519Y-71356891D01*
X114061481Y-71356891D01*
X113940814Y-71127000D01*
X112747000Y-71127000D01*
X112493000Y-71127000D01*
X112473000Y-71127000D01*
X112473000Y-70873000D01*
X112493000Y-70873000D01*
X112493000Y-69679845D01*
X112747000Y-69679845D01*
X112747000Y-70873000D01*
X113940814Y-70873000D01*
X114061481Y-70643109D01*
X115518519Y-70643109D01*
X115639186Y-70873000D01*
X116833000Y-70873000D01*
X116833000Y-69679845D01*
X116603110Y-69558524D01*
X116455901Y-69603175D01*
X116193080Y-69728359D01*
X115959731Y-69902412D01*
X115764822Y-70118645D01*
X115615843Y-70368748D01*
X115518519Y-70643109D01*
X114061481Y-70643109D01*
X113964157Y-70368748D01*
X113815178Y-70118645D01*
X113620269Y-69902412D01*
X113386920Y-69728359D01*
X113124099Y-69603175D01*
X112976890Y-69558524D01*
X112747000Y-69679845D01*
X112493000Y-69679845D01*
X112263110Y-69558524D01*
X112115901Y-69603175D01*
X111853080Y-69728359D01*
X111619731Y-69902412D01*
X111424822Y-70118645D01*
X111355195Y-70235534D01*
X111233475Y-70053368D01*
X111026632Y-69846525D01*
X110783411Y-69684010D01*
X110555518Y-69589614D01*
X112300132Y-67845000D01*
X117239869Y-67845000D01*
X118365000Y-68970132D01*
X118365000Y-69582317D01*
X118295506Y-69619463D01*
X118198815Y-69698815D01*
X118119463Y-69795506D01*
X118060498Y-69905820D01*
X118036034Y-69986466D01*
X117960269Y-69902412D01*
X117726920Y-69728359D01*
X117464099Y-69603175D01*
X117316890Y-69558524D01*
X117087000Y-69679845D01*
X117087000Y-70873000D01*
X117107000Y-70873000D01*
X117107000Y-71127000D01*
X117087000Y-71127000D01*
X117087000Y-72320155D01*
X117316890Y-72441476D01*
X117464099Y-72396825D01*
X117726920Y-72271641D01*
X117960269Y-72097588D01*
X118036034Y-72013534D01*
X118060498Y-72094180D01*
X118119463Y-72204494D01*
X118198815Y-72301185D01*
X118295506Y-72380537D01*
X118405820Y-72439502D01*
X118525518Y-72475812D01*
X118650000Y-72488072D01*
X120350000Y-72488072D01*
X120474482Y-72475812D01*
X120594180Y-72439502D01*
X120704494Y-72380537D01*
X120801185Y-72301185D01*
X120880537Y-72204494D01*
X120939502Y-72094180D01*
X120975812Y-71974482D01*
X120988072Y-71850000D01*
X120988072Y-70150000D01*
X120975812Y-70025518D01*
X120939502Y-69905820D01*
X120880537Y-69795506D01*
X120801185Y-69698815D01*
X120704494Y-69619463D01*
X120635000Y-69582317D01*
X120635000Y-68555741D01*
X120640490Y-68499999D01*
X120635000Y-68444257D01*
X120635000Y-68444248D01*
X120618577Y-68277501D01*
X120553676Y-68063553D01*
X120448284Y-67866377D01*
X120306449Y-67693551D01*
X120263140Y-67658009D01*
X118845000Y-66239869D01*
X118845000Y-62158728D01*
X118869463Y-62204494D01*
X118948815Y-62301185D01*
X119045506Y-62380537D01*
X119155820Y-62439502D01*
X119275518Y-62475812D01*
X119400000Y-62488072D01*
X121100000Y-62488072D01*
X121224482Y-62475812D01*
X121344180Y-62439502D01*
X121454494Y-62380537D01*
X121551185Y-62301185D01*
X121630537Y-62204494D01*
X121689502Y-62094180D01*
X121725812Y-61974482D01*
X121738072Y-61850000D01*
X121738072Y-60150000D01*
X121725812Y-60025518D01*
X121689502Y-59905820D01*
X121630537Y-59795506D01*
X121551185Y-59698815D01*
X121454494Y-59619463D01*
X121344180Y-59560498D01*
X121248097Y-59531351D01*
X125015000Y-55764449D01*
X125015001Y-59195552D01*
X120392486Y-63818068D01*
X120227271Y-63850932D01*
X120057111Y-63921414D01*
X119903972Y-64023738D01*
X119773738Y-64153972D01*
X119671414Y-64307111D01*
X119600932Y-64477271D01*
X119565000Y-64657911D01*
X119565000Y-64842089D01*
X119600932Y-65022729D01*
X119671414Y-65192889D01*
X119773738Y-65346028D01*
X119903972Y-65476262D01*
X120057111Y-65578586D01*
X120227271Y-65649068D01*
X120407911Y-65685000D01*
X120592089Y-65685000D01*
X120772729Y-65649068D01*
X120942889Y-65578586D01*
X121096028Y-65476262D01*
X121226262Y-65346028D01*
X121328586Y-65192889D01*
X121399068Y-65022729D01*
X121431932Y-64857514D01*
X126244194Y-60045253D01*
X126272238Y-60022238D01*
X126364087Y-59910320D01*
X126432337Y-59782633D01*
X126474365Y-59644085D01*
X126485000Y-59536105D01*
X126485000Y-59536096D01*
X126488555Y-59500001D01*
X126485000Y-59463906D01*
X126485000Y-58819723D01*
X126596525Y-58986632D01*
X126803368Y-59193475D01*
X126977760Y-59310000D01*
X126803368Y-59426525D01*
X126596525Y-59633368D01*
X126434010Y-59876589D01*
X126322068Y-60146842D01*
X126265000Y-60433740D01*
X126265000Y-60726260D01*
X126322068Y-61013158D01*
X126434010Y-61283411D01*
X126596525Y-61526632D01*
X126803368Y-61733475D01*
X126985534Y-61855195D01*
X126868645Y-61924822D01*
X126652412Y-62119731D01*
X126478359Y-62353080D01*
X126353175Y-62615901D01*
X126308524Y-62763110D01*
X126429845Y-62993000D01*
X127623000Y-62993000D01*
X127623000Y-62973000D01*
X127877000Y-62973000D01*
X127877000Y-62993000D01*
X129070155Y-62993000D01*
X129191476Y-62763110D01*
X129146825Y-62615901D01*
X129021641Y-62353080D01*
X128847588Y-62119731D01*
X128631355Y-61924822D01*
X128514466Y-61855195D01*
X128696632Y-61733475D01*
X128892297Y-61537810D01*
X131498177Y-64143690D01*
X131507870Y-64242102D01*
X131578489Y-64474901D01*
X131693167Y-64689449D01*
X131847498Y-64877502D01*
X131997348Y-65000481D01*
X131933275Y-65043693D01*
X131761922Y-65216526D01*
X131627579Y-65419467D01*
X131535409Y-65644718D01*
X131531538Y-65682391D01*
X131656269Y-65873000D01*
X132873000Y-65873000D01*
X132873000Y-65853000D01*
X133127000Y-65853000D01*
X133127000Y-65873000D01*
X134343731Y-65873000D01*
X134468462Y-65682391D01*
X134464591Y-65644718D01*
X134372421Y-65419467D01*
X134238078Y-65216526D01*
X134066725Y-65043693D01*
X134002652Y-65000481D01*
X134152502Y-64877502D01*
X134306833Y-64689449D01*
X134421511Y-64474901D01*
X134492130Y-64242102D01*
X134515975Y-64000000D01*
X134492130Y-63757898D01*
X134421511Y-63525099D01*
X134306833Y-63310551D01*
X134152502Y-63122498D01*
X134003238Y-63000000D01*
X134152502Y-62877502D01*
X134306833Y-62689449D01*
X134421511Y-62474901D01*
X134492130Y-62242102D01*
X134515975Y-62000000D01*
X134492130Y-61757898D01*
X134421511Y-61525099D01*
X134306833Y-61310551D01*
X134152502Y-61122498D01*
X134113889Y-61090809D01*
X134118387Y-61088405D01*
X134252962Y-60977962D01*
X134363405Y-60843387D01*
X134445472Y-60689851D01*
X134496008Y-60523255D01*
X134513072Y-60350001D01*
X134513072Y-59649999D01*
X134496008Y-59476745D01*
X134445472Y-59310149D01*
X134363405Y-59156613D01*
X134252962Y-59022038D01*
X134118387Y-58911595D01*
X133964851Y-58829528D01*
X133798255Y-58778992D01*
X133625001Y-58761928D01*
X133285000Y-58761928D01*
X133285000Y-58435000D01*
X133342089Y-58435000D01*
X133522729Y-58399068D01*
X133692889Y-58328586D01*
X133846028Y-58226262D01*
X133976262Y-58096028D01*
X134078586Y-57942889D01*
X134149068Y-57772729D01*
X134185000Y-57592089D01*
X134185000Y-57407911D01*
X134160551Y-57284998D01*
X158675554Y-57285000D01*
X158255808Y-57704746D01*
X158227763Y-57727762D01*
X158135914Y-57839680D01*
X158080748Y-57942889D01*
X158067664Y-57967367D01*
X158025635Y-58105915D01*
X158011444Y-58250000D01*
X158015001Y-58286115D01*
X158015000Y-59841313D01*
X157921414Y-59981375D01*
X157850932Y-60151535D01*
X157815000Y-60332175D01*
X157815000Y-60516353D01*
X157850932Y-60696993D01*
X157921414Y-60867153D01*
X158023738Y-61020292D01*
X158153972Y-61150526D01*
X158307111Y-61252850D01*
X158477271Y-61323332D01*
X158657911Y-61359264D01*
X158842089Y-61359264D01*
X159022729Y-61323332D01*
X159192889Y-61252850D01*
X159346028Y-61150526D01*
X159476262Y-61020292D01*
X159578586Y-60867153D01*
X159649068Y-60696993D01*
X159685000Y-60516353D01*
X159685000Y-60332175D01*
X159649068Y-60151535D01*
X159578586Y-59981375D01*
X159485000Y-59841313D01*
X159485000Y-58554446D01*
X160479448Y-57559999D01*
X160570634Y-57532338D01*
X160698321Y-57464088D01*
X160810239Y-57372239D01*
X160833260Y-57344188D01*
X161244192Y-56933256D01*
X161272237Y-56910240D01*
X161364087Y-56798322D01*
X161432337Y-56670635D01*
X161474365Y-56532087D01*
X161485000Y-56424107D01*
X161485000Y-56424098D01*
X161488555Y-56388003D01*
X161485000Y-56351908D01*
X161485000Y-55832951D01*
X161578586Y-55692889D01*
X161649068Y-55522729D01*
X161685000Y-55342089D01*
X161685000Y-55157911D01*
X161649068Y-54977271D01*
X161578586Y-54807111D01*
X161476262Y-54653972D01*
X161346028Y-54523738D01*
X161192889Y-54421414D01*
X161032377Y-54354928D01*
X160433260Y-53755812D01*
X160410240Y-53727762D01*
X160298322Y-53635913D01*
X160170635Y-53567663D01*
X160032087Y-53525635D01*
X159924107Y-53515000D01*
X159888002Y-53511444D01*
X159851897Y-53515000D01*
X154050448Y-53515000D01*
X153976262Y-53403972D01*
X153846028Y-53273738D01*
X153692889Y-53171414D01*
X153522729Y-53100932D01*
X153342089Y-53065000D01*
X153157911Y-53065000D01*
X152977271Y-53100932D01*
X152807111Y-53171414D01*
X152653972Y-53273738D01*
X152523738Y-53403972D01*
X152421414Y-53557111D01*
X152350932Y-53727271D01*
X152315000Y-53907911D01*
X152315000Y-54092089D01*
X152350932Y-54272729D01*
X152409862Y-54414999D01*
X132954446Y-54414999D01*
X130924445Y-52384999D01*
X133319558Y-52384999D01*
X133315000Y-52407911D01*
X133315000Y-52592089D01*
X133350932Y-52772729D01*
X133421414Y-52942889D01*
X133523738Y-53096028D01*
X133653972Y-53226262D01*
X133807111Y-53328586D01*
X133977271Y-53399068D01*
X134157911Y-53435000D01*
X134342089Y-53435000D01*
X134522729Y-53399068D01*
X134692889Y-53328586D01*
X134846028Y-53226262D01*
X134976262Y-53096028D01*
X135000335Y-53060000D01*
X141279295Y-53060000D01*
X141307111Y-53078586D01*
X141477271Y-53149068D01*
X141657911Y-53185000D01*
X141842089Y-53185000D01*
X142022729Y-53149068D01*
X142192889Y-53078586D01*
X142346028Y-52976262D01*
X142476262Y-52846028D01*
X142578586Y-52692889D01*
X142649068Y-52522729D01*
X142676465Y-52384999D01*
X169805751Y-52384999D01*
X169972498Y-52368576D01*
X170186446Y-52303675D01*
X170383622Y-52198283D01*
X170556448Y-52056448D01*
X170698283Y-51883622D01*
X170803675Y-51686446D01*
X170868576Y-51472498D01*
X170890490Y-51249999D01*
X170868576Y-51027500D01*
X170803675Y-50813552D01*
X170748326Y-50710000D01*
X180063917Y-50710000D01*
X179938527Y-50748037D01*
X179890444Y-50773738D01*
X179797810Y-50823251D01*
X179751299Y-50861422D01*
X179674472Y-50924472D01*
X179649105Y-50955382D01*
X175414488Y-55190000D01*
X174220705Y-55190000D01*
X174192889Y-55171414D01*
X174022729Y-55100932D01*
X173842089Y-55065000D01*
X173657911Y-55065000D01*
X173477271Y-55100932D01*
X173307111Y-55171414D01*
X173153972Y-55273738D01*
X173023738Y-55403972D01*
X172921414Y-55557111D01*
X172850932Y-55727271D01*
X172815000Y-55907911D01*
X172815000Y-56092089D01*
X172850932Y-56272729D01*
X172921414Y-56442889D01*
X173023738Y-56596028D01*
X173153972Y-56726262D01*
X173307111Y-56828586D01*
X173477271Y-56899068D01*
X173657911Y-56935000D01*
X173842089Y-56935000D01*
X174022729Y-56899068D01*
X174192889Y-56828586D01*
X174220705Y-56810000D01*
X175710212Y-56810000D01*
X175750000Y-56813919D01*
X175789788Y-56810000D01*
X175789791Y-56810000D01*
X175908788Y-56798280D01*
X176061473Y-56751963D01*
X176202189Y-56676749D01*
X176325528Y-56575528D01*
X176350900Y-56544612D01*
X180585513Y-52310000D01*
X182029295Y-52310000D01*
X182057111Y-52328586D01*
X182227271Y-52399068D01*
X182407911Y-52435000D01*
X182592089Y-52435000D01*
X182772729Y-52399068D01*
X182942889Y-52328586D01*
X183096028Y-52226262D01*
X183226262Y-52096028D01*
X183328586Y-51942889D01*
X183399068Y-51772729D01*
X183435000Y-51592089D01*
X183435000Y-51407911D01*
X183399068Y-51227271D01*
X183328586Y-51057111D01*
X183226262Y-50903972D01*
X183096028Y-50773738D01*
X183000637Y-50710000D01*
X187290000Y-50710000D01*
X187290000Y-56495082D01*
X187096233Y-56410624D01*
X186887000Y-56365000D01*
X186487000Y-56365000D01*
X186487000Y-57323000D01*
X186507000Y-57323000D01*
X186507000Y-57577000D01*
X186487000Y-57577000D01*
X186487000Y-58535000D01*
X186887000Y-58535000D01*
X187096233Y-58489376D01*
X187290000Y-58404918D01*
X187290001Y-65145082D01*
X187096233Y-65060624D01*
X186887000Y-65015000D01*
X186487000Y-65015000D01*
X186487000Y-65973000D01*
X186507000Y-65973000D01*
X186507000Y-66227000D01*
X186487000Y-66227000D01*
X186487000Y-67185000D01*
X186887000Y-67185000D01*
X187096233Y-67139376D01*
X187290001Y-67054918D01*
X187290001Y-73290000D01*
X172205937Y-73290000D01*
X172225812Y-73224482D01*
X172238072Y-73100000D01*
X172238072Y-71400000D01*
X172225812Y-71275518D01*
X172189502Y-71155820D01*
X172130537Y-71045506D01*
X172051185Y-70948815D01*
X171954494Y-70869463D01*
X171844180Y-70810498D01*
X171771620Y-70788487D01*
X171903475Y-70656632D01*
X172065990Y-70413411D01*
X172177932Y-70143158D01*
X172235000Y-69856260D01*
X172235000Y-69595001D01*
X172603894Y-69595001D01*
X172639999Y-69598557D01*
X172676104Y-69595001D01*
X172784084Y-69584366D01*
X172922632Y-69542338D01*
X173050319Y-69474088D01*
X173162237Y-69382239D01*
X173185258Y-69354189D01*
X175494197Y-67045250D01*
X175522237Y-67022238D01*
X175545250Y-66994197D01*
X175545253Y-66994194D01*
X175614086Y-66910321D01*
X175614087Y-66910320D01*
X175682337Y-66782633D01*
X175724365Y-66644085D01*
X175735000Y-66536105D01*
X175735000Y-66536096D01*
X175738555Y-66500001D01*
X175735000Y-66463906D01*
X175735000Y-65832951D01*
X175828586Y-65692889D01*
X175899068Y-65522729D01*
X175900475Y-65515657D01*
X180354200Y-69969382D01*
X180350932Y-69977271D01*
X180315000Y-70157911D01*
X180315000Y-70342089D01*
X180350932Y-70522729D01*
X180421414Y-70692889D01*
X180523738Y-70846028D01*
X180653972Y-70976262D01*
X180807111Y-71078586D01*
X180977271Y-71149068D01*
X181157911Y-71185000D01*
X181342089Y-71185000D01*
X181522729Y-71149068D01*
X181692889Y-71078586D01*
X181846028Y-70976262D01*
X181976262Y-70846028D01*
X182078586Y-70692889D01*
X182149068Y-70522729D01*
X182185000Y-70342089D01*
X182185000Y-70157911D01*
X182149068Y-69977271D01*
X182078586Y-69807111D01*
X181976262Y-69653972D01*
X181961487Y-69639197D01*
X181932337Y-69543103D01*
X181864087Y-69415416D01*
X181772238Y-69303498D01*
X181744193Y-69280482D01*
X178857712Y-66394001D01*
X181185592Y-66394001D01*
X181257298Y-66597197D01*
X181372986Y-66777408D01*
X181521609Y-66931587D01*
X181697455Y-67053809D01*
X181893767Y-67139376D01*
X182103000Y-67185000D01*
X182853000Y-67185000D01*
X182853000Y-66227000D01*
X183107000Y-66227000D01*
X183107000Y-67185000D01*
X183857000Y-67185000D01*
X184066233Y-67139376D01*
X184262545Y-67053809D01*
X184438391Y-66931587D01*
X184587014Y-66777408D01*
X184702702Y-66597197D01*
X184774408Y-66394001D01*
X184915592Y-66394001D01*
X184987298Y-66597197D01*
X185102986Y-66777408D01*
X185251609Y-66931587D01*
X185427455Y-67053809D01*
X185623767Y-67139376D01*
X185833000Y-67185000D01*
X186233000Y-67185000D01*
X186233000Y-66227000D01*
X185042498Y-66227000D01*
X184915592Y-66394001D01*
X184774408Y-66394001D01*
X184647502Y-66227000D01*
X183107000Y-66227000D01*
X182853000Y-66227000D01*
X181312498Y-66227000D01*
X181185592Y-66394001D01*
X178857712Y-66394001D01*
X176619522Y-64155812D01*
X176596501Y-64127761D01*
X176484583Y-64035912D01*
X176356896Y-63967662D01*
X176218348Y-63925634D01*
X176110368Y-63914999D01*
X176074263Y-63911443D01*
X176038158Y-63914999D01*
X175704446Y-63914999D01*
X175047880Y-63258433D01*
X175096028Y-63226262D01*
X175226262Y-63096028D01*
X175328586Y-62942889D01*
X175399068Y-62772729D01*
X175435000Y-62592089D01*
X175435000Y-62407911D01*
X175399068Y-62227271D01*
X175328586Y-62057111D01*
X175226262Y-61903972D01*
X175096028Y-61773738D01*
X174942889Y-61671414D01*
X174772729Y-61600932D01*
X174607515Y-61568069D01*
X174447357Y-61407911D01*
X176315000Y-61407911D01*
X176315000Y-61592089D01*
X176350932Y-61772729D01*
X176421414Y-61942889D01*
X176523738Y-62096028D01*
X176653972Y-62226262D01*
X176807111Y-62328586D01*
X176977271Y-62399068D01*
X177157911Y-62435000D01*
X177342089Y-62435000D01*
X177522729Y-62399068D01*
X177692889Y-62328586D01*
X177832951Y-62235000D01*
X180963895Y-62235000D01*
X181000000Y-62238556D01*
X181015000Y-62237079D01*
X181015000Y-62297014D01*
X181052853Y-62487314D01*
X181109884Y-62625000D01*
X181052853Y-62762686D01*
X181015000Y-62952986D01*
X181015000Y-63147014D01*
X181052853Y-63337314D01*
X181109884Y-63475000D01*
X181052853Y-63612686D01*
X181015000Y-63802986D01*
X181015000Y-63997014D01*
X181052853Y-64187314D01*
X181110109Y-64325542D01*
X181055411Y-64454384D01*
X181015890Y-64644344D01*
X181014187Y-64838364D01*
X181050368Y-65028989D01*
X181123043Y-65208893D01*
X181131233Y-65224216D01*
X181329483Y-65240912D01*
X181721496Y-64848899D01*
X181902986Y-64885000D01*
X182072890Y-64885000D01*
X182014143Y-64943748D01*
X182000000Y-64929605D01*
X181849830Y-65079775D01*
X181697455Y-65146191D01*
X181521609Y-65268413D01*
X181372986Y-65422592D01*
X181257298Y-65602803D01*
X181185592Y-65805999D01*
X181312498Y-65973000D01*
X182853000Y-65973000D01*
X182853000Y-65426608D01*
X182859088Y-65420520D01*
X182875784Y-65618767D01*
X183054384Y-65694589D01*
X183107000Y-65705536D01*
X183107000Y-65973000D01*
X184647502Y-65973000D01*
X184774408Y-65805999D01*
X184915592Y-65805999D01*
X185042498Y-65973000D01*
X186233000Y-65973000D01*
X186233000Y-65015000D01*
X185833000Y-65015000D01*
X185623767Y-65060624D01*
X185427455Y-65146191D01*
X185251609Y-65268413D01*
X185102986Y-65422592D01*
X184987298Y-65602803D01*
X184915592Y-65805999D01*
X184774408Y-65805999D01*
X184702702Y-65602803D01*
X184587014Y-65422592D01*
X184438391Y-65268413D01*
X184262545Y-65146191D01*
X184253555Y-65142272D01*
X184294589Y-65045616D01*
X184334110Y-64855656D01*
X184335813Y-64661636D01*
X184299632Y-64471011D01*
X184240385Y-64324349D01*
X184297147Y-64187314D01*
X184335000Y-63997014D01*
X184335000Y-63802986D01*
X184297147Y-63612686D01*
X184240116Y-63475000D01*
X184297147Y-63337314D01*
X184335000Y-63147014D01*
X184335000Y-62952986D01*
X184297147Y-62762686D01*
X184240116Y-62625000D01*
X184297147Y-62487314D01*
X184335000Y-62297014D01*
X184335000Y-62102986D01*
X184297147Y-61912686D01*
X184240116Y-61775000D01*
X184297147Y-61637314D01*
X184335000Y-61447014D01*
X184335000Y-61252986D01*
X184300063Y-61077346D01*
X184367212Y-61022238D01*
X184390232Y-60994188D01*
X185244193Y-60140228D01*
X185272238Y-60117212D01*
X185364087Y-60005294D01*
X185432337Y-59877607D01*
X185471952Y-59747014D01*
X185474365Y-59739060D01*
X185488556Y-59594975D01*
X185485000Y-59558870D01*
X185485000Y-58428891D01*
X185623767Y-58489376D01*
X185833000Y-58535000D01*
X186233000Y-58535000D01*
X186233000Y-57577000D01*
X186213000Y-57577000D01*
X186213000Y-57323000D01*
X186233000Y-57323000D01*
X186233000Y-56365000D01*
X185833000Y-56365000D01*
X185623767Y-56410624D01*
X185427455Y-56496191D01*
X185338247Y-56558195D01*
X185337358Y-56557111D01*
X185295253Y-56505806D01*
X185295249Y-56505802D01*
X185272237Y-56477762D01*
X185244197Y-56454750D01*
X183795258Y-55005812D01*
X183772238Y-54977762D01*
X183660320Y-54885913D01*
X183532633Y-54817663D01*
X183394085Y-54775635D01*
X183286105Y-54765000D01*
X183250000Y-54761444D01*
X183213895Y-54765000D01*
X179036105Y-54765000D01*
X179000000Y-54761444D01*
X178855915Y-54775635D01*
X178717366Y-54817663D01*
X178624381Y-54867365D01*
X178589680Y-54885913D01*
X178477762Y-54977762D01*
X178454746Y-55005807D01*
X177505808Y-55954746D01*
X177477763Y-55977762D01*
X177385913Y-56089680D01*
X177317663Y-56217367D01*
X177280095Y-56341212D01*
X177275635Y-56355915D01*
X177270412Y-56408950D01*
X177171414Y-56557111D01*
X177100932Y-56727271D01*
X177065000Y-56907911D01*
X177065000Y-57092089D01*
X177100932Y-57272729D01*
X177171414Y-57442889D01*
X177273738Y-57596028D01*
X177403972Y-57726262D01*
X177557111Y-57828586D01*
X177727271Y-57899068D01*
X177907911Y-57935000D01*
X178092089Y-57935000D01*
X178272729Y-57899068D01*
X178442889Y-57828586D01*
X178596028Y-57726262D01*
X178726262Y-57596028D01*
X178828586Y-57442889D01*
X178899068Y-57272729D01*
X178935000Y-57092089D01*
X178935000Y-56907911D01*
X178899068Y-56727271D01*
X178873618Y-56665828D01*
X179304447Y-56235000D01*
X179565000Y-56235000D01*
X179565000Y-56342089D01*
X179600932Y-56522729D01*
X179671414Y-56692889D01*
X179773738Y-56846028D01*
X179903972Y-56976262D01*
X179940001Y-57000336D01*
X179940000Y-59210212D01*
X179936081Y-59250000D01*
X179940000Y-59289788D01*
X179940000Y-59289790D01*
X179951720Y-59408787D01*
X179998037Y-59561472D01*
X180019129Y-59600932D01*
X180073251Y-59702189D01*
X180100097Y-59734901D01*
X180174472Y-59825528D01*
X180205388Y-59850900D01*
X180549100Y-60194612D01*
X180574472Y-60225528D01*
X180697811Y-60326749D01*
X180838527Y-60401963D01*
X180991212Y-60448280D01*
X181015000Y-60450623D01*
X181015000Y-60597014D01*
X181020409Y-60624207D01*
X181005914Y-60625635D01*
X180975043Y-60635000D01*
X180867367Y-60667663D01*
X180739680Y-60735913D01*
X180704237Y-60765000D01*
X177832951Y-60765000D01*
X177692889Y-60671414D01*
X177522729Y-60600932D01*
X177342089Y-60565000D01*
X177157911Y-60565000D01*
X176977271Y-60600932D01*
X176807111Y-60671414D01*
X176653972Y-60773738D01*
X176523738Y-60903972D01*
X176421414Y-61057111D01*
X176350932Y-61227271D01*
X176315000Y-61407911D01*
X174447357Y-61407911D01*
X170045259Y-57005813D01*
X170022238Y-56977762D01*
X169910320Y-56885913D01*
X169782633Y-56817663D01*
X169644085Y-56775635D01*
X169536105Y-56765000D01*
X169500000Y-56761444D01*
X169463895Y-56765000D01*
X165800448Y-56765000D01*
X165726262Y-56653972D01*
X165596028Y-56523738D01*
X165442889Y-56421414D01*
X165272729Y-56350932D01*
X165092089Y-56315000D01*
X164907911Y-56315000D01*
X164727271Y-56350932D01*
X164557111Y-56421414D01*
X164403972Y-56523738D01*
X164273738Y-56653972D01*
X164171414Y-56807111D01*
X164162357Y-56828977D01*
X164092089Y-56815000D01*
X163907911Y-56815000D01*
X163727271Y-56850932D01*
X163557111Y-56921414D01*
X163403972Y-57023738D01*
X163273738Y-57153972D01*
X163240726Y-57203378D01*
X163192889Y-57171414D01*
X163022729Y-57100932D01*
X162842089Y-57065000D01*
X162657911Y-57065000D01*
X162477271Y-57100932D01*
X162307111Y-57171414D01*
X162153972Y-57273738D01*
X162023738Y-57403972D01*
X161921414Y-57557111D01*
X161850932Y-57727271D01*
X161815000Y-57907911D01*
X161815000Y-58092089D01*
X161850932Y-58272729D01*
X161921414Y-58442889D01*
X162023738Y-58596028D01*
X162153972Y-58726262D01*
X162307111Y-58828586D01*
X162477271Y-58899068D01*
X162642485Y-58931931D01*
X162704746Y-58994192D01*
X162727762Y-59022238D01*
X162839680Y-59114087D01*
X162967367Y-59182337D01*
X163074166Y-59214734D01*
X163105915Y-59224365D01*
X163250000Y-59238556D01*
X163286105Y-59235000D01*
X167695554Y-59235000D01*
X168765001Y-60304448D01*
X168765001Y-60471823D01*
X168744197Y-60454750D01*
X168045258Y-59755812D01*
X168022238Y-59727762D01*
X167910320Y-59635913D01*
X167782633Y-59567663D01*
X167644085Y-59525635D01*
X167536105Y-59515000D01*
X167500000Y-59511444D01*
X167463895Y-59515000D01*
X166082951Y-59515000D01*
X165942889Y-59421414D01*
X165772729Y-59350932D01*
X165592089Y-59315000D01*
X165407911Y-59315000D01*
X165227271Y-59350932D01*
X165057111Y-59421414D01*
X164903972Y-59523738D01*
X164773738Y-59653972D01*
X164671414Y-59807111D01*
X164600932Y-59977271D01*
X164565000Y-60157911D01*
X164565000Y-60342089D01*
X164600932Y-60522729D01*
X164671414Y-60692889D01*
X164773738Y-60846028D01*
X164903972Y-60976262D01*
X165057111Y-61078586D01*
X165227271Y-61149068D01*
X165407911Y-61185000D01*
X165592089Y-61185000D01*
X165772729Y-61149068D01*
X165942889Y-61078586D01*
X166082951Y-60985000D01*
X167195554Y-60985000D01*
X167515000Y-61304447D01*
X167515001Y-63601887D01*
X167511444Y-63638002D01*
X167525635Y-63782087D01*
X167558467Y-63890318D01*
X167567664Y-63920635D01*
X167635914Y-64048322D01*
X167727763Y-64160240D01*
X167755808Y-64183256D01*
X168696744Y-65124193D01*
X168719760Y-65152238D01*
X168831678Y-65244087D01*
X168959365Y-65312337D01*
X169028837Y-65333411D01*
X169097912Y-65354365D01*
X169241997Y-65368556D01*
X169278102Y-65365000D01*
X169455117Y-65365000D01*
X169596525Y-65576632D01*
X169803368Y-65783475D01*
X169985534Y-65905195D01*
X169868645Y-65974822D01*
X169652412Y-66169731D01*
X169478359Y-66403080D01*
X169353175Y-66665901D01*
X169308524Y-66813110D01*
X169429845Y-67043000D01*
X170623000Y-67043000D01*
X170623000Y-67023000D01*
X170877000Y-67023000D01*
X170877000Y-67043000D01*
X172070155Y-67043000D01*
X172191476Y-66813110D01*
X172146825Y-66665901D01*
X172021641Y-66403080D01*
X171847588Y-66169731D01*
X171631355Y-65974822D01*
X171514466Y-65905195D01*
X171696632Y-65783475D01*
X171903475Y-65576632D01*
X172065990Y-65333411D01*
X172177932Y-65063158D01*
X172235000Y-64776260D01*
X172235000Y-64483740D01*
X172181544Y-64214999D01*
X172925553Y-64214999D01*
X174068069Y-65357515D01*
X174100932Y-65522729D01*
X174171414Y-65692889D01*
X174265001Y-65832951D01*
X174265000Y-66195553D01*
X172335553Y-68125001D01*
X171881353Y-68125001D01*
X172021641Y-67936920D01*
X172146825Y-67674099D01*
X172191476Y-67526890D01*
X172070155Y-67297000D01*
X170877000Y-67297000D01*
X170877000Y-67317000D01*
X170623000Y-67317000D01*
X170623000Y-67297000D01*
X169429845Y-67297000D01*
X169308524Y-67526890D01*
X169353175Y-67674099D01*
X169478359Y-67936920D01*
X169652412Y-68170269D01*
X169868645Y-68365178D01*
X169985534Y-68434805D01*
X169803368Y-68556525D01*
X169596525Y-68763368D01*
X169434010Y-69006589D01*
X169322068Y-69276842D01*
X169265000Y-69563740D01*
X169265000Y-69856260D01*
X169322068Y-70143158D01*
X169434010Y-70413411D01*
X169596525Y-70656632D01*
X169728380Y-70788487D01*
X169655820Y-70810498D01*
X169545506Y-70869463D01*
X169448815Y-70948815D01*
X169394105Y-71015479D01*
X169361473Y-70998037D01*
X169208788Y-70951720D01*
X169089791Y-70940000D01*
X169089788Y-70940000D01*
X169050000Y-70936081D01*
X169010212Y-70940000D01*
X167335513Y-70940000D01*
X164600900Y-68205388D01*
X164575528Y-68174472D01*
X164452189Y-68073251D01*
X164311473Y-67998037D01*
X164158788Y-67951720D01*
X164039791Y-67940000D01*
X164039788Y-67940000D01*
X164000000Y-67936081D01*
X163960212Y-67940000D01*
X163470705Y-67940000D01*
X163442889Y-67921414D01*
X163272729Y-67850932D01*
X163092089Y-67815000D01*
X162907911Y-67815000D01*
X162727271Y-67850932D01*
X162557111Y-67921414D01*
X162403972Y-68023738D01*
X162273738Y-68153972D01*
X162171414Y-68307111D01*
X162125000Y-68419165D01*
X162078586Y-68307111D01*
X161976262Y-68153972D01*
X161846028Y-68023738D01*
X161692889Y-67921414D01*
X161522729Y-67850932D01*
X161342089Y-67815000D01*
X161157911Y-67815000D01*
X160977271Y-67850932D01*
X160807111Y-67921414D01*
X160653972Y-68023738D01*
X160523738Y-68153972D01*
X160421414Y-68307111D01*
X160412357Y-68328977D01*
X160342089Y-68315000D01*
X160157911Y-68315000D01*
X159977271Y-68350932D01*
X159865853Y-68397082D01*
X159828586Y-68307111D01*
X159726262Y-68153972D01*
X159596028Y-68023738D01*
X159442889Y-67921414D01*
X159272729Y-67850932D01*
X159169585Y-67830415D01*
X159149068Y-67727271D01*
X159078586Y-67557111D01*
X158976262Y-67403972D01*
X158846028Y-67273738D01*
X158692889Y-67171414D01*
X158522729Y-67100932D01*
X158342089Y-67065000D01*
X158157911Y-67065000D01*
X157977271Y-67100932D01*
X157807111Y-67171414D01*
X157667049Y-67265000D01*
X156780403Y-67265000D01*
X156828586Y-67192889D01*
X156899068Y-67022729D01*
X156935000Y-66842089D01*
X156935000Y-66657911D01*
X156899068Y-66477271D01*
X156828586Y-66307111D01*
X156780403Y-66235000D01*
X158713895Y-66235000D01*
X158750000Y-66238556D01*
X158786105Y-66235000D01*
X158894085Y-66224365D01*
X159032633Y-66182337D01*
X159160320Y-66114087D01*
X159272238Y-66022238D01*
X159295258Y-65994188D01*
X159499413Y-65790033D01*
X159557111Y-65828586D01*
X159727271Y-65899068D01*
X159907911Y-65935000D01*
X160092089Y-65935000D01*
X160272729Y-65899068D01*
X160442889Y-65828586D01*
X160596028Y-65726262D01*
X160726262Y-65596028D01*
X160828586Y-65442889D01*
X160899068Y-65272729D01*
X160935000Y-65092089D01*
X160935000Y-64907911D01*
X160899068Y-64727271D01*
X160828586Y-64557111D01*
X160726262Y-64403972D01*
X160596028Y-64273738D01*
X160442889Y-64171414D01*
X160272729Y-64100932D01*
X160092089Y-64065000D01*
X159916519Y-64065000D01*
X159899068Y-63977271D01*
X159828586Y-63807111D01*
X159726262Y-63653972D01*
X159596028Y-63523738D01*
X159442889Y-63421414D01*
X159272729Y-63350932D01*
X159092089Y-63315000D01*
X158907911Y-63315000D01*
X158727271Y-63350932D01*
X158557111Y-63421414D01*
X158500000Y-63459574D01*
X158442889Y-63421414D01*
X158272729Y-63350932D01*
X158169585Y-63330415D01*
X158149068Y-63227271D01*
X158078586Y-63057111D01*
X157976262Y-62903972D01*
X157846028Y-62773738D01*
X157692889Y-62671414D01*
X157522729Y-62600932D01*
X157342089Y-62565000D01*
X157157911Y-62565000D01*
X156977271Y-62600932D01*
X156807111Y-62671414D01*
X156667049Y-62765000D01*
X156536094Y-62765000D01*
X156499999Y-62761445D01*
X156463904Y-62765000D01*
X156463895Y-62765000D01*
X156355915Y-62775635D01*
X156217367Y-62817663D01*
X156089680Y-62885913D01*
X155977762Y-62977762D01*
X155954741Y-63005813D01*
X155945554Y-63015000D01*
X154804447Y-63015000D01*
X154495259Y-62705813D01*
X154472239Y-62677763D01*
X154360321Y-62585914D01*
X154232634Y-62517664D01*
X154094086Y-62475636D01*
X153986106Y-62465001D01*
X153950001Y-62461445D01*
X153913896Y-62465001D01*
X148504448Y-62465001D01*
X144681932Y-58642486D01*
X144649068Y-58477271D01*
X144578586Y-58307111D01*
X144476262Y-58153972D01*
X144346028Y-58023738D01*
X144192889Y-57921414D01*
X144022729Y-57850932D01*
X143842089Y-57815000D01*
X143657911Y-57815000D01*
X143477271Y-57850932D01*
X143307111Y-57921414D01*
X143153972Y-58023738D01*
X143023738Y-58153972D01*
X142921414Y-58307111D01*
X142850932Y-58477271D01*
X142815000Y-58657911D01*
X142815000Y-58765000D01*
X138082951Y-58765000D01*
X137942889Y-58671414D01*
X137772729Y-58600932D01*
X137592089Y-58565000D01*
X137407911Y-58565000D01*
X137227271Y-58600932D01*
X137057111Y-58671414D01*
X136903972Y-58773738D01*
X136773738Y-58903972D01*
X136671414Y-59057111D01*
X136600932Y-59227271D01*
X136565000Y-59407911D01*
X136565000Y-59592089D01*
X136600932Y-59772729D01*
X136671414Y-59942889D01*
X136773738Y-60096028D01*
X136903972Y-60226262D01*
X137057111Y-60328586D01*
X137078977Y-60337643D01*
X137065000Y-60407911D01*
X137065000Y-60592089D01*
X137100932Y-60772729D01*
X137171414Y-60942889D01*
X137273738Y-61096028D01*
X137403972Y-61226262D01*
X137557111Y-61328586D01*
X137727271Y-61399068D01*
X137892485Y-61431932D01*
X138454746Y-61994193D01*
X138477762Y-62022238D01*
X138559940Y-62089680D01*
X138589680Y-62114087D01*
X138717366Y-62182337D01*
X138855915Y-62224365D01*
X139000000Y-62238556D01*
X139036105Y-62235000D01*
X142445554Y-62235000D01*
X146104756Y-65894203D01*
X146109335Y-65899782D01*
X146057111Y-65921414D01*
X145903972Y-66023738D01*
X145773738Y-66153972D01*
X145671414Y-66307111D01*
X145600932Y-66477271D01*
X145565000Y-66657911D01*
X145565000Y-66842089D01*
X145600932Y-67022729D01*
X145616762Y-67060948D01*
X145523738Y-67153972D01*
X145421414Y-67307111D01*
X145350932Y-67477271D01*
X145315000Y-67657911D01*
X145315000Y-67842089D01*
X145326289Y-67898840D01*
X144183260Y-66755812D01*
X144160240Y-66727762D01*
X144048322Y-66635913D01*
X143920635Y-66567663D01*
X143782087Y-66525635D01*
X143674107Y-66515000D01*
X143638002Y-66511444D01*
X143601897Y-66515000D01*
X134861096Y-66515000D01*
X134824999Y-66511445D01*
X134788902Y-66515000D01*
X134788895Y-66515000D01*
X134700176Y-66523738D01*
X134680914Y-66525635D01*
X134657842Y-66532634D01*
X134542367Y-66567663D01*
X134414680Y-66635913D01*
X134302762Y-66727762D01*
X134279746Y-66755807D01*
X134020987Y-67014566D01*
X134002652Y-66999519D01*
X134066725Y-66956307D01*
X134238078Y-66783474D01*
X134372421Y-66580533D01*
X134464591Y-66355282D01*
X134468462Y-66317609D01*
X134343731Y-66127000D01*
X133127000Y-66127000D01*
X133127000Y-66147000D01*
X132873000Y-66147000D01*
X132873000Y-66127000D01*
X131656269Y-66127000D01*
X131531538Y-66317609D01*
X131535409Y-66355282D01*
X131627579Y-66580533D01*
X131761922Y-66783474D01*
X131933275Y-66956307D01*
X131997348Y-66999519D01*
X131847498Y-67122498D01*
X131730550Y-67265000D01*
X130394447Y-67265000D01*
X129185344Y-66055897D01*
X129235000Y-65806260D01*
X129235000Y-65513740D01*
X129177932Y-65226842D01*
X129065990Y-64956589D01*
X128903475Y-64713368D01*
X128696632Y-64506525D01*
X128514466Y-64384805D01*
X128631355Y-64315178D01*
X128847588Y-64120269D01*
X129021641Y-63886920D01*
X129146825Y-63624099D01*
X129191476Y-63476890D01*
X129070155Y-63247000D01*
X127877000Y-63247000D01*
X127877000Y-63267000D01*
X127623000Y-63267000D01*
X127623000Y-63247000D01*
X126429845Y-63247000D01*
X126308524Y-63476890D01*
X126353175Y-63624099D01*
X126478359Y-63886920D01*
X126652412Y-64120269D01*
X126868645Y-64315178D01*
X126985534Y-64384805D01*
X126803368Y-64506525D01*
X126596525Y-64713368D01*
X126434010Y-64956589D01*
X126322068Y-65226842D01*
X126265000Y-65513740D01*
X126265000Y-65806260D01*
X126322068Y-66093158D01*
X126434010Y-66363411D01*
X126596525Y-66606632D01*
X126803368Y-66813475D01*
X126977760Y-66930000D01*
X126803368Y-67046525D01*
X126596525Y-67253368D01*
X126434010Y-67496589D01*
X126322068Y-67766842D01*
X126265000Y-68053740D01*
X126265000Y-68346260D01*
X126322068Y-68633158D01*
X126434010Y-68903411D01*
X126596525Y-69146632D01*
X126803368Y-69353475D01*
X126977760Y-69470000D01*
X126803368Y-69586525D01*
X126596525Y-69793368D01*
X126434010Y-70036589D01*
X126322068Y-70306842D01*
X126265000Y-70593740D01*
X126265000Y-70886260D01*
X126322068Y-71173158D01*
X126434010Y-71443411D01*
X126596525Y-71686632D01*
X126803368Y-71893475D01*
X127046589Y-72055990D01*
X127316842Y-72167932D01*
X127603740Y-72225000D01*
X127896260Y-72225000D01*
X128145897Y-72175344D01*
X129260553Y-73290000D01*
X100710000Y-73290000D01*
X100710000Y-61000000D01*
X101607089Y-61000000D01*
X101638657Y-61320516D01*
X101732148Y-61628715D01*
X101883969Y-61912752D01*
X102088286Y-62161714D01*
X102337248Y-62366031D01*
X102621285Y-62517852D01*
X102929484Y-62611343D01*
X103169678Y-62635000D01*
X104830322Y-62635000D01*
X105070516Y-62611343D01*
X105378715Y-62517852D01*
X105662752Y-62366031D01*
X105911714Y-62161714D01*
X106116031Y-61912752D01*
X106267852Y-61628715D01*
X106361343Y-61320516D01*
X106392911Y-61000000D01*
X106361343Y-60679484D01*
X106267852Y-60371285D01*
X106116031Y-60087248D01*
X105911714Y-59838286D01*
X105662752Y-59633969D01*
X105378715Y-59482148D01*
X105070516Y-59388657D01*
X104830322Y-59365000D01*
X103169678Y-59365000D01*
X102929484Y-59388657D01*
X102621285Y-59482148D01*
X102337248Y-59633969D01*
X102088286Y-59838286D01*
X101883969Y-60087248D01*
X101732148Y-60371285D01*
X101638657Y-60679484D01*
X101607089Y-61000000D01*
X100710000Y-61000000D01*
X100710000Y-57135499D01*
X100728320Y-57179727D01*
X100885363Y-57414759D01*
X101085241Y-57614637D01*
X101320273Y-57771680D01*
X101581426Y-57879853D01*
X101858665Y-57935000D01*
X102141335Y-57935000D01*
X102418574Y-57879853D01*
X102679727Y-57771680D01*
X102914759Y-57614637D01*
X103114637Y-57414759D01*
X103271680Y-57179727D01*
X103365000Y-56954432D01*
X103365000Y-57277000D01*
X103421193Y-57593532D01*
X103538058Y-57893020D01*
X103711105Y-58163954D01*
X103933683Y-58395922D01*
X104197239Y-58580010D01*
X104491645Y-58709144D01*
X104619566Y-58740124D01*
X104873000Y-58620777D01*
X104873000Y-56627000D01*
X105127000Y-56627000D01*
X105127000Y-58620777D01*
X105380434Y-58740124D01*
X105508355Y-58709144D01*
X105802761Y-58580010D01*
X106066317Y-58395922D01*
X106288895Y-58163954D01*
X106461942Y-57893020D01*
X106578807Y-57593532D01*
X106635000Y-57277000D01*
X106635000Y-56627000D01*
X105127000Y-56627000D01*
X104873000Y-56627000D01*
X104853000Y-56627000D01*
X104853000Y-56373000D01*
X104873000Y-56373000D01*
X104873000Y-54379223D01*
X105127000Y-54379223D01*
X105127000Y-56373000D01*
X106635000Y-56373000D01*
X106635000Y-55723000D01*
X106578807Y-55406468D01*
X106461942Y-55106980D01*
X106288895Y-54836046D01*
X106066317Y-54604078D01*
X105917311Y-54500000D01*
X109361928Y-54500000D01*
X109361928Y-58500000D01*
X109374188Y-58624482D01*
X109410498Y-58744180D01*
X109469463Y-58854494D01*
X109548815Y-58951185D01*
X109645506Y-59030537D01*
X109755820Y-59089502D01*
X109875518Y-59125812D01*
X110000000Y-59138072D01*
X112000000Y-59138072D01*
X112124482Y-59125812D01*
X112244180Y-59089502D01*
X112354494Y-59030537D01*
X112451185Y-58951185D01*
X112530537Y-58854494D01*
X112589502Y-58744180D01*
X112625812Y-58624482D01*
X112638072Y-58500000D01*
X112638072Y-57606891D01*
X113728519Y-57606891D01*
X113825843Y-57881252D01*
X113974822Y-58131355D01*
X114169731Y-58347588D01*
X114403080Y-58521641D01*
X114665901Y-58646825D01*
X114813110Y-58691476D01*
X115043000Y-58570155D01*
X115043000Y-57377000D01*
X113849186Y-57377000D01*
X113728519Y-57606891D01*
X112638072Y-57606891D01*
X112638072Y-56893109D01*
X113728519Y-56893109D01*
X113849186Y-57123000D01*
X115043000Y-57123000D01*
X115043000Y-55929845D01*
X114813110Y-55808524D01*
X114665901Y-55853175D01*
X114403080Y-55978359D01*
X114169731Y-56152412D01*
X113974822Y-56368645D01*
X113825843Y-56618748D01*
X113728519Y-56893109D01*
X112638072Y-56893109D01*
X112638072Y-54500000D01*
X112625812Y-54375518D01*
X112589502Y-54255820D01*
X112530537Y-54145506D01*
X112451185Y-54048815D01*
X112354494Y-53969463D01*
X112244180Y-53910498D01*
X112124482Y-53874188D01*
X112000000Y-53861928D01*
X110000000Y-53861928D01*
X109875518Y-53874188D01*
X109755820Y-53910498D01*
X109645506Y-53969463D01*
X109548815Y-54048815D01*
X109469463Y-54145506D01*
X109410498Y-54255820D01*
X109374188Y-54375518D01*
X109361928Y-54500000D01*
X105917311Y-54500000D01*
X105802761Y-54419990D01*
X105508355Y-54290856D01*
X105380434Y-54259876D01*
X105127000Y-54379223D01*
X104873000Y-54379223D01*
X104619566Y-54259876D01*
X104491645Y-54290856D01*
X104197239Y-54419990D01*
X103933683Y-54604078D01*
X103711105Y-54836046D01*
X103538058Y-55106980D01*
X103421193Y-55406468D01*
X103365000Y-55723000D01*
X103365000Y-56045568D01*
X103271680Y-55820273D01*
X103114637Y-55585241D01*
X102914759Y-55385363D01*
X102679727Y-55228320D01*
X102418574Y-55120147D01*
X102141335Y-55065000D01*
X101858665Y-55065000D01*
X101581426Y-55120147D01*
X101320273Y-55228320D01*
X101085241Y-55385363D01*
X100885363Y-55585241D01*
X100728320Y-55820273D01*
X100710000Y-55864501D01*
X100710000Y-50710000D01*
X102244604Y-50710000D01*
X102088286Y-50838286D01*
G37*
X102088286Y-50838286D02*
X101883969Y-51087248D01*
X101732148Y-51371285D01*
X101638657Y-51679484D01*
X101607089Y-52000000D01*
X101638657Y-52320516D01*
X101732148Y-52628715D01*
X101883969Y-52912752D01*
X102088286Y-53161714D01*
X102337248Y-53366031D01*
X102621285Y-53517852D01*
X102929484Y-53611343D01*
X103169678Y-53635000D01*
X104830322Y-53635000D01*
X105070516Y-53611343D01*
X105085192Y-53606891D01*
X113728519Y-53606891D01*
X113825843Y-53881252D01*
X113974822Y-54131355D01*
X114169731Y-54347588D01*
X114403080Y-54521641D01*
X114665901Y-54646825D01*
X114813110Y-54691476D01*
X115043000Y-54570155D01*
X115043000Y-53377000D01*
X113849186Y-53377000D01*
X113728519Y-53606891D01*
X105085192Y-53606891D01*
X105378715Y-53517852D01*
X105662752Y-53366031D01*
X105911714Y-53161714D01*
X106116031Y-52912752D01*
X106126530Y-52893109D01*
X113728519Y-52893109D01*
X113849186Y-53123000D01*
X115043000Y-53123000D01*
X115043000Y-51929845D01*
X114813110Y-51808524D01*
X114665901Y-51853175D01*
X114403080Y-51978359D01*
X114169731Y-52152412D01*
X113974822Y-52368645D01*
X113825843Y-52618748D01*
X113728519Y-52893109D01*
X106126530Y-52893109D01*
X106267852Y-52628715D01*
X106361343Y-52320516D01*
X106392911Y-52000000D01*
X106361343Y-51679484D01*
X106267852Y-51371285D01*
X106116031Y-51087248D01*
X105911714Y-50838286D01*
X105755396Y-50710000D01*
X118224867Y-50710000D01*
X117796859Y-51138008D01*
X117753551Y-51173550D01*
X117611716Y-51346376D01*
X117506323Y-51543552D01*
X117457425Y-51704747D01*
X117441422Y-51757501D01*
X117438224Y-51789967D01*
X117276842Y-51822068D01*
X117006589Y-51934010D01*
X116763368Y-52096525D01*
X116556525Y-52303368D01*
X116434805Y-52485534D01*
X116365178Y-52368645D01*
X116170269Y-52152412D01*
X115936920Y-51978359D01*
X115674099Y-51853175D01*
X115526890Y-51808524D01*
X115297000Y-51929845D01*
X115297000Y-53123000D01*
X115317000Y-53123000D01*
X115317000Y-53377000D01*
X115297000Y-53377000D01*
X115297000Y-54570155D01*
X115526890Y-54691476D01*
X115674099Y-54646825D01*
X115936920Y-54521641D01*
X116170269Y-54347588D01*
X116365178Y-54131355D01*
X116434805Y-54014466D01*
X116556525Y-54196632D01*
X116763368Y-54403475D01*
X117006589Y-54565990D01*
X117276842Y-54677932D01*
X117563740Y-54735000D01*
X117856260Y-54735000D01*
X118143158Y-54677932D01*
X118413411Y-54565990D01*
X118656632Y-54403475D01*
X118788487Y-54271620D01*
X118810498Y-54344180D01*
X118869463Y-54454494D01*
X118948815Y-54551185D01*
X119045506Y-54630537D01*
X119155820Y-54689502D01*
X119275518Y-54725812D01*
X119400000Y-54738072D01*
X121100000Y-54738072D01*
X121224482Y-54725812D01*
X121344180Y-54689502D01*
X121454494Y-54630537D01*
X121551185Y-54551185D01*
X121630537Y-54454494D01*
X121689502Y-54344180D01*
X121725812Y-54224482D01*
X121738072Y-54100000D01*
X121738072Y-53934980D01*
X124709876Y-53934980D01*
X124255808Y-54389048D01*
X124227762Y-54412065D01*
X124135913Y-54523983D01*
X124089225Y-54611330D01*
X121738072Y-56962484D01*
X121738072Y-56400000D01*
X121725812Y-56275518D01*
X121689502Y-56155820D01*
X121630537Y-56045506D01*
X121551185Y-55948815D01*
X121454494Y-55869463D01*
X121344180Y-55810498D01*
X121224482Y-55774188D01*
X121100000Y-55761928D01*
X119400000Y-55761928D01*
X119275518Y-55774188D01*
X119155820Y-55810498D01*
X119045506Y-55869463D01*
X118948815Y-55948815D01*
X118869463Y-56045506D01*
X118810498Y-56155820D01*
X118788487Y-56228380D01*
X118656632Y-56096525D01*
X118413411Y-55934010D01*
X118143158Y-55822068D01*
X117856260Y-55765000D01*
X117563740Y-55765000D01*
X117276842Y-55822068D01*
X117006589Y-55934010D01*
X116763368Y-56096525D01*
X116556525Y-56303368D01*
X116434805Y-56485534D01*
X116365178Y-56368645D01*
X116170269Y-56152412D01*
X115936920Y-55978359D01*
X115674099Y-55853175D01*
X115526890Y-55808524D01*
X115297000Y-55929845D01*
X115297000Y-57123000D01*
X115317000Y-57123000D01*
X115317000Y-57377000D01*
X115297000Y-57377000D01*
X115297000Y-58570155D01*
X115526890Y-58691476D01*
X115674099Y-58646825D01*
X115936920Y-58521641D01*
X116170269Y-58347588D01*
X116365178Y-58131355D01*
X116434805Y-58014466D01*
X116556525Y-58196632D01*
X116763368Y-58403475D01*
X117006589Y-58565990D01*
X117276842Y-58677932D01*
X117563740Y-58735000D01*
X117856260Y-58735000D01*
X118143158Y-58677932D01*
X118413411Y-58565990D01*
X118656632Y-58403475D01*
X118788487Y-58271620D01*
X118810498Y-58344180D01*
X118869463Y-58454494D01*
X118948815Y-58551185D01*
X119045506Y-58630537D01*
X119155820Y-58689502D01*
X119275518Y-58725812D01*
X119400000Y-58738072D01*
X119962484Y-58738072D01*
X119935556Y-58765000D01*
X115004092Y-58765000D01*
X114967997Y-58761445D01*
X114931902Y-58765000D01*
X114931893Y-58765000D01*
X114823913Y-58775635D01*
X114685365Y-58817663D01*
X114557678Y-58885913D01*
X114445760Y-58977762D01*
X114422744Y-59005807D01*
X112005808Y-61422744D01*
X111977762Y-61445761D01*
X111885913Y-61557679D01*
X111817663Y-61685366D01*
X111795661Y-61757898D01*
X111775635Y-61823913D01*
X111761444Y-61967998D01*
X111765000Y-62004103D01*
X111765001Y-63667048D01*
X111671414Y-63807111D01*
X111600932Y-63977271D01*
X111565000Y-64157911D01*
X111565000Y-64342089D01*
X111600932Y-64522729D01*
X111671414Y-64692889D01*
X111773738Y-64846028D01*
X111903972Y-64976262D01*
X112057111Y-65078586D01*
X112227271Y-65149068D01*
X112407911Y-65185000D01*
X112592089Y-65185000D01*
X112772729Y-65149068D01*
X112942889Y-65078586D01*
X113096028Y-64976262D01*
X113226262Y-64846028D01*
X113328586Y-64692889D01*
X113399068Y-64522729D01*
X113435000Y-64342089D01*
X113435000Y-64157911D01*
X113399068Y-63977271D01*
X113328586Y-63807111D01*
X113235000Y-63667049D01*
X113235000Y-62272444D01*
X113844639Y-61662806D01*
X113974822Y-61881355D01*
X114169731Y-62097588D01*
X114403080Y-62271641D01*
X114665901Y-62396825D01*
X114813110Y-62441476D01*
X115043000Y-62320155D01*
X115043000Y-61127000D01*
X115023000Y-61127000D01*
X115023000Y-60873000D01*
X115043000Y-60873000D01*
X115043000Y-60853000D01*
X115297000Y-60853000D01*
X115297000Y-60873000D01*
X115317000Y-60873000D01*
X115317000Y-61127000D01*
X115297000Y-61127000D01*
X115297000Y-62320155D01*
X115526890Y-62441476D01*
X115674099Y-62396825D01*
X115936920Y-62271641D01*
X116170269Y-62097588D01*
X116365178Y-61881355D01*
X116434805Y-61764466D01*
X116556525Y-61946632D01*
X116575000Y-61965107D01*
X116575001Y-65575000D01*
X111885743Y-65575000D01*
X111829999Y-65569510D01*
X111774255Y-65575000D01*
X111774248Y-65575000D01*
X111628493Y-65589356D01*
X111607500Y-65591423D01*
X111557705Y-65606529D01*
X111393553Y-65656324D01*
X111196377Y-65761716D01*
X111023551Y-65903551D01*
X110988009Y-65946859D01*
X107419869Y-69515000D01*
X107393740Y-69515000D01*
X107106842Y-69572068D01*
X106836589Y-69684010D01*
X106593368Y-69846525D01*
X106461513Y-69978380D01*
X106439502Y-69905820D01*
X106380537Y-69795506D01*
X106301185Y-69698815D01*
X106204494Y-69619463D01*
X106094180Y-69560498D01*
X105974482Y-69524188D01*
X105850000Y-69511928D01*
X104150000Y-69511928D01*
X104025518Y-69524188D01*
X103905820Y-69560498D01*
X103795506Y-69619463D01*
X103698815Y-69698815D01*
X103619463Y-69795506D01*
X103560498Y-69905820D01*
X103524188Y-70025518D01*
X103511928Y-70150000D01*
X103511928Y-71850000D01*
X103524188Y-71974482D01*
X103560498Y-72094180D01*
X103619463Y-72204494D01*
X103698815Y-72301185D01*
X103795506Y-72380537D01*
X103905820Y-72439502D01*
X104025518Y-72475812D01*
X104150000Y-72488072D01*
X105850000Y-72488072D01*
X105974482Y-72475812D01*
X106094180Y-72439502D01*
X106204494Y-72380537D01*
X106301185Y-72301185D01*
X106380537Y-72204494D01*
X106439502Y-72094180D01*
X106461513Y-72021620D01*
X106593368Y-72153475D01*
X106836589Y-72315990D01*
X107106842Y-72427932D01*
X107393740Y-72485000D01*
X107686260Y-72485000D01*
X107973158Y-72427932D01*
X108243411Y-72315990D01*
X108486632Y-72153475D01*
X108693475Y-71946632D01*
X108810000Y-71772240D01*
X108926525Y-71946632D01*
X109133368Y-72153475D01*
X109376589Y-72315990D01*
X109646842Y-72427932D01*
X109933740Y-72485000D01*
X110226260Y-72485000D01*
X110513158Y-72427932D01*
X110783411Y-72315990D01*
X111026632Y-72153475D01*
X111233475Y-71946632D01*
X111355195Y-71764466D01*
X111424822Y-71881355D01*
X111619731Y-72097588D01*
X111853080Y-72271641D01*
X112115901Y-72396825D01*
X112263110Y-72441476D01*
X112493000Y-72320155D01*
X112493000Y-71127000D01*
X112747000Y-71127000D01*
X112747000Y-72320155D01*
X112976890Y-72441476D01*
X113124099Y-72396825D01*
X113386920Y-72271641D01*
X113620269Y-72097588D01*
X113815178Y-71881355D01*
X113964157Y-71631252D01*
X114061481Y-71356891D01*
X115518519Y-71356891D01*
X115615843Y-71631252D01*
X115764822Y-71881355D01*
X115959731Y-72097588D01*
X116193080Y-72271641D01*
X116455901Y-72396825D01*
X116603110Y-72441476D01*
X116833000Y-72320155D01*
X116833000Y-71127000D01*
X115639186Y-71127000D01*
X115518519Y-71356891D01*
X114061481Y-71356891D01*
X113940814Y-71127000D01*
X112747000Y-71127000D01*
X112493000Y-71127000D01*
X112473000Y-71127000D01*
X112473000Y-70873000D01*
X112493000Y-70873000D01*
X112493000Y-69679845D01*
X112747000Y-69679845D01*
X112747000Y-70873000D01*
X113940814Y-70873000D01*
X114061481Y-70643109D01*
X115518519Y-70643109D01*
X115639186Y-70873000D01*
X116833000Y-70873000D01*
X116833000Y-69679845D01*
X116603110Y-69558524D01*
X116455901Y-69603175D01*
X116193080Y-69728359D01*
X115959731Y-69902412D01*
X115764822Y-70118645D01*
X115615843Y-70368748D01*
X115518519Y-70643109D01*
X114061481Y-70643109D01*
X113964157Y-70368748D01*
X113815178Y-70118645D01*
X113620269Y-69902412D01*
X113386920Y-69728359D01*
X113124099Y-69603175D01*
X112976890Y-69558524D01*
X112747000Y-69679845D01*
X112493000Y-69679845D01*
X112263110Y-69558524D01*
X112115901Y-69603175D01*
X111853080Y-69728359D01*
X111619731Y-69902412D01*
X111424822Y-70118645D01*
X111355195Y-70235534D01*
X111233475Y-70053368D01*
X111026632Y-69846525D01*
X110783411Y-69684010D01*
X110555518Y-69589614D01*
X112300132Y-67845000D01*
X117239869Y-67845000D01*
X118365000Y-68970132D01*
X118365000Y-69582317D01*
X118295506Y-69619463D01*
X118198815Y-69698815D01*
X118119463Y-69795506D01*
X118060498Y-69905820D01*
X118036034Y-69986466D01*
X117960269Y-69902412D01*
X117726920Y-69728359D01*
X117464099Y-69603175D01*
X117316890Y-69558524D01*
X117087000Y-69679845D01*
X117087000Y-70873000D01*
X117107000Y-70873000D01*
X117107000Y-71127000D01*
X117087000Y-71127000D01*
X117087000Y-72320155D01*
X117316890Y-72441476D01*
X117464099Y-72396825D01*
X117726920Y-72271641D01*
X117960269Y-72097588D01*
X118036034Y-72013534D01*
X118060498Y-72094180D01*
X118119463Y-72204494D01*
X118198815Y-72301185D01*
X118295506Y-72380537D01*
X118405820Y-72439502D01*
X118525518Y-72475812D01*
X118650000Y-72488072D01*
X120350000Y-72488072D01*
X120474482Y-72475812D01*
X120594180Y-72439502D01*
X120704494Y-72380537D01*
X120801185Y-72301185D01*
X120880537Y-72204494D01*
X120939502Y-72094180D01*
X120975812Y-71974482D01*
X120988072Y-71850000D01*
X120988072Y-70150000D01*
X120975812Y-70025518D01*
X120939502Y-69905820D01*
X120880537Y-69795506D01*
X120801185Y-69698815D01*
X120704494Y-69619463D01*
X120635000Y-69582317D01*
X120635000Y-68555741D01*
X120640490Y-68499999D01*
X120635000Y-68444257D01*
X120635000Y-68444248D01*
X120618577Y-68277501D01*
X120553676Y-68063553D01*
X120448284Y-67866377D01*
X120306449Y-67693551D01*
X120263140Y-67658009D01*
X118845000Y-66239869D01*
X118845000Y-62158728D01*
X118869463Y-62204494D01*
X118948815Y-62301185D01*
X119045506Y-62380537D01*
X119155820Y-62439502D01*
X119275518Y-62475812D01*
X119400000Y-62488072D01*
X121100000Y-62488072D01*
X121224482Y-62475812D01*
X121344180Y-62439502D01*
X121454494Y-62380537D01*
X121551185Y-62301185D01*
X121630537Y-62204494D01*
X121689502Y-62094180D01*
X121725812Y-61974482D01*
X121738072Y-61850000D01*
X121738072Y-60150000D01*
X121725812Y-60025518D01*
X121689502Y-59905820D01*
X121630537Y-59795506D01*
X121551185Y-59698815D01*
X121454494Y-59619463D01*
X121344180Y-59560498D01*
X121248097Y-59531351D01*
X125015000Y-55764449D01*
X125015001Y-59195552D01*
X120392486Y-63818068D01*
X120227271Y-63850932D01*
X120057111Y-63921414D01*
X119903972Y-64023738D01*
X119773738Y-64153972D01*
X119671414Y-64307111D01*
X119600932Y-64477271D01*
X119565000Y-64657911D01*
X119565000Y-64842089D01*
X119600932Y-65022729D01*
X119671414Y-65192889D01*
X119773738Y-65346028D01*
X119903972Y-65476262D01*
X120057111Y-65578586D01*
X120227271Y-65649068D01*
X120407911Y-65685000D01*
X120592089Y-65685000D01*
X120772729Y-65649068D01*
X120942889Y-65578586D01*
X121096028Y-65476262D01*
X121226262Y-65346028D01*
X121328586Y-65192889D01*
X121399068Y-65022729D01*
X121431932Y-64857514D01*
X126244194Y-60045253D01*
X126272238Y-60022238D01*
X126364087Y-59910320D01*
X126432337Y-59782633D01*
X126474365Y-59644085D01*
X126485000Y-59536105D01*
X126485000Y-59536096D01*
X126488555Y-59500001D01*
X126485000Y-59463906D01*
X126485000Y-58819723D01*
X126596525Y-58986632D01*
X126803368Y-59193475D01*
X126977760Y-59310000D01*
X126803368Y-59426525D01*
X126596525Y-59633368D01*
X126434010Y-59876589D01*
X126322068Y-60146842D01*
X126265000Y-60433740D01*
X126265000Y-60726260D01*
X126322068Y-61013158D01*
X126434010Y-61283411D01*
X126596525Y-61526632D01*
X126803368Y-61733475D01*
X126985534Y-61855195D01*
X126868645Y-61924822D01*
X126652412Y-62119731D01*
X126478359Y-62353080D01*
X126353175Y-62615901D01*
X126308524Y-62763110D01*
X126429845Y-62993000D01*
X127623000Y-62993000D01*
X127623000Y-62973000D01*
X127877000Y-62973000D01*
X127877000Y-62993000D01*
X129070155Y-62993000D01*
X129191476Y-62763110D01*
X129146825Y-62615901D01*
X129021641Y-62353080D01*
X128847588Y-62119731D01*
X128631355Y-61924822D01*
X128514466Y-61855195D01*
X128696632Y-61733475D01*
X128892297Y-61537810D01*
X131498177Y-64143690D01*
X131507870Y-64242102D01*
X131578489Y-64474901D01*
X131693167Y-64689449D01*
X131847498Y-64877502D01*
X131997348Y-65000481D01*
X131933275Y-65043693D01*
X131761922Y-65216526D01*
X131627579Y-65419467D01*
X131535409Y-65644718D01*
X131531538Y-65682391D01*
X131656269Y-65873000D01*
X132873000Y-65873000D01*
X132873000Y-65853000D01*
X133127000Y-65853000D01*
X133127000Y-65873000D01*
X134343731Y-65873000D01*
X134468462Y-65682391D01*
X134464591Y-65644718D01*
X134372421Y-65419467D01*
X134238078Y-65216526D01*
X134066725Y-65043693D01*
X134002652Y-65000481D01*
X134152502Y-64877502D01*
X134306833Y-64689449D01*
X134421511Y-64474901D01*
X134492130Y-64242102D01*
X134515975Y-64000000D01*
X134492130Y-63757898D01*
X134421511Y-63525099D01*
X134306833Y-63310551D01*
X134152502Y-63122498D01*
X134003238Y-63000000D01*
X134152502Y-62877502D01*
X134306833Y-62689449D01*
X134421511Y-62474901D01*
X134492130Y-62242102D01*
X134515975Y-62000000D01*
X134492130Y-61757898D01*
X134421511Y-61525099D01*
X134306833Y-61310551D01*
X134152502Y-61122498D01*
X134113889Y-61090809D01*
X134118387Y-61088405D01*
X134252962Y-60977962D01*
X134363405Y-60843387D01*
X134445472Y-60689851D01*
X134496008Y-60523255D01*
X134513072Y-60350001D01*
X134513072Y-59649999D01*
X134496008Y-59476745D01*
X134445472Y-59310149D01*
X134363405Y-59156613D01*
X134252962Y-59022038D01*
X134118387Y-58911595D01*
X133964851Y-58829528D01*
X133798255Y-58778992D01*
X133625001Y-58761928D01*
X133285000Y-58761928D01*
X133285000Y-58435000D01*
X133342089Y-58435000D01*
X133522729Y-58399068D01*
X133692889Y-58328586D01*
X133846028Y-58226262D01*
X133976262Y-58096028D01*
X134078586Y-57942889D01*
X134149068Y-57772729D01*
X134185000Y-57592089D01*
X134185000Y-57407911D01*
X134160551Y-57284998D01*
X158675554Y-57285000D01*
X158255808Y-57704746D01*
X158227763Y-57727762D01*
X158135914Y-57839680D01*
X158080748Y-57942889D01*
X158067664Y-57967367D01*
X158025635Y-58105915D01*
X158011444Y-58250000D01*
X158015001Y-58286115D01*
X158015000Y-59841313D01*
X157921414Y-59981375D01*
X157850932Y-60151535D01*
X157815000Y-60332175D01*
X157815000Y-60516353D01*
X157850932Y-60696993D01*
X157921414Y-60867153D01*
X158023738Y-61020292D01*
X158153972Y-61150526D01*
X158307111Y-61252850D01*
X158477271Y-61323332D01*
X158657911Y-61359264D01*
X158842089Y-61359264D01*
X159022729Y-61323332D01*
X159192889Y-61252850D01*
X159346028Y-61150526D01*
X159476262Y-61020292D01*
X159578586Y-60867153D01*
X159649068Y-60696993D01*
X159685000Y-60516353D01*
X159685000Y-60332175D01*
X159649068Y-60151535D01*
X159578586Y-59981375D01*
X159485000Y-59841313D01*
X159485000Y-58554446D01*
X160479448Y-57559999D01*
X160570634Y-57532338D01*
X160698321Y-57464088D01*
X160810239Y-57372239D01*
X160833260Y-57344188D01*
X161244192Y-56933256D01*
X161272237Y-56910240D01*
X161364087Y-56798322D01*
X161432337Y-56670635D01*
X161474365Y-56532087D01*
X161485000Y-56424107D01*
X161485000Y-56424098D01*
X161488555Y-56388003D01*
X161485000Y-56351908D01*
X161485000Y-55832951D01*
X161578586Y-55692889D01*
X161649068Y-55522729D01*
X161685000Y-55342089D01*
X161685000Y-55157911D01*
X161649068Y-54977271D01*
X161578586Y-54807111D01*
X161476262Y-54653972D01*
X161346028Y-54523738D01*
X161192889Y-54421414D01*
X161032377Y-54354928D01*
X160433260Y-53755812D01*
X160410240Y-53727762D01*
X160298322Y-53635913D01*
X160170635Y-53567663D01*
X160032087Y-53525635D01*
X159924107Y-53515000D01*
X159888002Y-53511444D01*
X159851897Y-53515000D01*
X154050448Y-53515000D01*
X153976262Y-53403972D01*
X153846028Y-53273738D01*
X153692889Y-53171414D01*
X153522729Y-53100932D01*
X153342089Y-53065000D01*
X153157911Y-53065000D01*
X152977271Y-53100932D01*
X152807111Y-53171414D01*
X152653972Y-53273738D01*
X152523738Y-53403972D01*
X152421414Y-53557111D01*
X152350932Y-53727271D01*
X152315000Y-53907911D01*
X152315000Y-54092089D01*
X152350932Y-54272729D01*
X152409862Y-54414999D01*
X132954446Y-54414999D01*
X130924445Y-52384999D01*
X133319558Y-52384999D01*
X133315000Y-52407911D01*
X133315000Y-52592089D01*
X133350932Y-52772729D01*
X133421414Y-52942889D01*
X133523738Y-53096028D01*
X133653972Y-53226262D01*
X133807111Y-53328586D01*
X133977271Y-53399068D01*
X134157911Y-53435000D01*
X134342089Y-53435000D01*
X134522729Y-53399068D01*
X134692889Y-53328586D01*
X134846028Y-53226262D01*
X134976262Y-53096028D01*
X135000335Y-53060000D01*
X141279295Y-53060000D01*
X141307111Y-53078586D01*
X141477271Y-53149068D01*
X141657911Y-53185000D01*
X141842089Y-53185000D01*
X142022729Y-53149068D01*
X142192889Y-53078586D01*
X142346028Y-52976262D01*
X142476262Y-52846028D01*
X142578586Y-52692889D01*
X142649068Y-52522729D01*
X142676465Y-52384999D01*
X169805751Y-52384999D01*
X169972498Y-52368576D01*
X170186446Y-52303675D01*
X170383622Y-52198283D01*
X170556448Y-52056448D01*
X170698283Y-51883622D01*
X170803675Y-51686446D01*
X170868576Y-51472498D01*
X170890490Y-51249999D01*
X170868576Y-51027500D01*
X170803675Y-50813552D01*
X170748326Y-50710000D01*
X180063917Y-50710000D01*
X179938527Y-50748037D01*
X179890444Y-50773738D01*
X179797810Y-50823251D01*
X179751299Y-50861422D01*
X179674472Y-50924472D01*
X179649105Y-50955382D01*
X175414488Y-55190000D01*
X174220705Y-55190000D01*
X174192889Y-55171414D01*
X174022729Y-55100932D01*
X173842089Y-55065000D01*
X173657911Y-55065000D01*
X173477271Y-55100932D01*
X173307111Y-55171414D01*
X173153972Y-55273738D01*
X173023738Y-55403972D01*
X172921414Y-55557111D01*
X172850932Y-55727271D01*
X172815000Y-55907911D01*
X172815000Y-56092089D01*
X172850932Y-56272729D01*
X172921414Y-56442889D01*
X173023738Y-56596028D01*
X173153972Y-56726262D01*
X173307111Y-56828586D01*
X173477271Y-56899068D01*
X173657911Y-56935000D01*
X173842089Y-56935000D01*
X174022729Y-56899068D01*
X174192889Y-56828586D01*
X174220705Y-56810000D01*
X175710212Y-56810000D01*
X175750000Y-56813919D01*
X175789788Y-56810000D01*
X175789791Y-56810000D01*
X175908788Y-56798280D01*
X176061473Y-56751963D01*
X176202189Y-56676749D01*
X176325528Y-56575528D01*
X176350900Y-56544612D01*
X180585513Y-52310000D01*
X182029295Y-52310000D01*
X182057111Y-52328586D01*
X182227271Y-52399068D01*
X182407911Y-52435000D01*
X182592089Y-52435000D01*
X182772729Y-52399068D01*
X182942889Y-52328586D01*
X183096028Y-52226262D01*
X183226262Y-52096028D01*
X183328586Y-51942889D01*
X183399068Y-51772729D01*
X183435000Y-51592089D01*
X183435000Y-51407911D01*
X183399068Y-51227271D01*
X183328586Y-51057111D01*
X183226262Y-50903972D01*
X183096028Y-50773738D01*
X183000637Y-50710000D01*
X187290000Y-50710000D01*
X187290000Y-56495082D01*
X187096233Y-56410624D01*
X186887000Y-56365000D01*
X186487000Y-56365000D01*
X186487000Y-57323000D01*
X186507000Y-57323000D01*
X186507000Y-57577000D01*
X186487000Y-57577000D01*
X186487000Y-58535000D01*
X186887000Y-58535000D01*
X187096233Y-58489376D01*
X187290000Y-58404918D01*
X187290001Y-65145082D01*
X187096233Y-65060624D01*
X186887000Y-65015000D01*
X186487000Y-65015000D01*
X186487000Y-65973000D01*
X186507000Y-65973000D01*
X186507000Y-66227000D01*
X186487000Y-66227000D01*
X186487000Y-67185000D01*
X186887000Y-67185000D01*
X187096233Y-67139376D01*
X187290001Y-67054918D01*
X187290001Y-73290000D01*
X172205937Y-73290000D01*
X172225812Y-73224482D01*
X172238072Y-73100000D01*
X172238072Y-71400000D01*
X172225812Y-71275518D01*
X172189502Y-71155820D01*
X172130537Y-71045506D01*
X172051185Y-70948815D01*
X171954494Y-70869463D01*
X171844180Y-70810498D01*
X171771620Y-70788487D01*
X171903475Y-70656632D01*
X172065990Y-70413411D01*
X172177932Y-70143158D01*
X172235000Y-69856260D01*
X172235000Y-69595001D01*
X172603894Y-69595001D01*
X172639999Y-69598557D01*
X172676104Y-69595001D01*
X172784084Y-69584366D01*
X172922632Y-69542338D01*
X173050319Y-69474088D01*
X173162237Y-69382239D01*
X173185258Y-69354189D01*
X175494197Y-67045250D01*
X175522237Y-67022238D01*
X175545250Y-66994197D01*
X175545253Y-66994194D01*
X175614086Y-66910321D01*
X175614087Y-66910320D01*
X175682337Y-66782633D01*
X175724365Y-66644085D01*
X175735000Y-66536105D01*
X175735000Y-66536096D01*
X175738555Y-66500001D01*
X175735000Y-66463906D01*
X175735000Y-65832951D01*
X175828586Y-65692889D01*
X175899068Y-65522729D01*
X175900475Y-65515657D01*
X180354200Y-69969382D01*
X180350932Y-69977271D01*
X180315000Y-70157911D01*
X180315000Y-70342089D01*
X180350932Y-70522729D01*
X180421414Y-70692889D01*
X180523738Y-70846028D01*
X180653972Y-70976262D01*
X180807111Y-71078586D01*
X180977271Y-71149068D01*
X181157911Y-71185000D01*
X181342089Y-71185000D01*
X181522729Y-71149068D01*
X181692889Y-71078586D01*
X181846028Y-70976262D01*
X181976262Y-70846028D01*
X182078586Y-70692889D01*
X182149068Y-70522729D01*
X182185000Y-70342089D01*
X182185000Y-70157911D01*
X182149068Y-69977271D01*
X182078586Y-69807111D01*
X181976262Y-69653972D01*
X181961487Y-69639197D01*
X181932337Y-69543103D01*
X181864087Y-69415416D01*
X181772238Y-69303498D01*
X181744193Y-69280482D01*
X178857712Y-66394001D01*
X181185592Y-66394001D01*
X181257298Y-66597197D01*
X181372986Y-66777408D01*
X181521609Y-66931587D01*
X181697455Y-67053809D01*
X181893767Y-67139376D01*
X182103000Y-67185000D01*
X182853000Y-67185000D01*
X182853000Y-66227000D01*
X183107000Y-66227000D01*
X183107000Y-67185000D01*
X183857000Y-67185000D01*
X184066233Y-67139376D01*
X184262545Y-67053809D01*
X184438391Y-66931587D01*
X184587014Y-66777408D01*
X184702702Y-66597197D01*
X184774408Y-66394001D01*
X184915592Y-66394001D01*
X184987298Y-66597197D01*
X185102986Y-66777408D01*
X185251609Y-66931587D01*
X185427455Y-67053809D01*
X185623767Y-67139376D01*
X185833000Y-67185000D01*
X186233000Y-67185000D01*
X186233000Y-66227000D01*
X185042498Y-66227000D01*
X184915592Y-66394001D01*
X184774408Y-66394001D01*
X184647502Y-66227000D01*
X183107000Y-66227000D01*
X182853000Y-66227000D01*
X181312498Y-66227000D01*
X181185592Y-66394001D01*
X178857712Y-66394001D01*
X176619522Y-64155812D01*
X176596501Y-64127761D01*
X176484583Y-64035912D01*
X176356896Y-63967662D01*
X176218348Y-63925634D01*
X176110368Y-63914999D01*
X176074263Y-63911443D01*
X176038158Y-63914999D01*
X175704446Y-63914999D01*
X175047880Y-63258433D01*
X175096028Y-63226262D01*
X175226262Y-63096028D01*
X175328586Y-62942889D01*
X175399068Y-62772729D01*
X175435000Y-62592089D01*
X175435000Y-62407911D01*
X175399068Y-62227271D01*
X175328586Y-62057111D01*
X175226262Y-61903972D01*
X175096028Y-61773738D01*
X174942889Y-61671414D01*
X174772729Y-61600932D01*
X174607515Y-61568069D01*
X174447357Y-61407911D01*
X176315000Y-61407911D01*
X176315000Y-61592089D01*
X176350932Y-61772729D01*
X176421414Y-61942889D01*
X176523738Y-62096028D01*
X176653972Y-62226262D01*
X176807111Y-62328586D01*
X176977271Y-62399068D01*
X177157911Y-62435000D01*
X177342089Y-62435000D01*
X177522729Y-62399068D01*
X177692889Y-62328586D01*
X177832951Y-62235000D01*
X180963895Y-62235000D01*
X181000000Y-62238556D01*
X181015000Y-62237079D01*
X181015000Y-62297014D01*
X181052853Y-62487314D01*
X181109884Y-62625000D01*
X181052853Y-62762686D01*
X181015000Y-62952986D01*
X181015000Y-63147014D01*
X181052853Y-63337314D01*
X181109884Y-63475000D01*
X181052853Y-63612686D01*
X181015000Y-63802986D01*
X181015000Y-63997014D01*
X181052853Y-64187314D01*
X181110109Y-64325542D01*
X181055411Y-64454384D01*
X181015890Y-64644344D01*
X181014187Y-64838364D01*
X181050368Y-65028989D01*
X181123043Y-65208893D01*
X181131233Y-65224216D01*
X181329483Y-65240912D01*
X181721496Y-64848899D01*
X181902986Y-64885000D01*
X182072890Y-64885000D01*
X182014143Y-64943748D01*
X182000000Y-64929605D01*
X181849830Y-65079775D01*
X181697455Y-65146191D01*
X181521609Y-65268413D01*
X181372986Y-65422592D01*
X181257298Y-65602803D01*
X181185592Y-65805999D01*
X181312498Y-65973000D01*
X182853000Y-65973000D01*
X182853000Y-65426608D01*
X182859088Y-65420520D01*
X182875784Y-65618767D01*
X183054384Y-65694589D01*
X183107000Y-65705536D01*
X183107000Y-65973000D01*
X184647502Y-65973000D01*
X184774408Y-65805999D01*
X184915592Y-65805999D01*
X185042498Y-65973000D01*
X186233000Y-65973000D01*
X186233000Y-65015000D01*
X185833000Y-65015000D01*
X185623767Y-65060624D01*
X185427455Y-65146191D01*
X185251609Y-65268413D01*
X185102986Y-65422592D01*
X184987298Y-65602803D01*
X184915592Y-65805999D01*
X184774408Y-65805999D01*
X184702702Y-65602803D01*
X184587014Y-65422592D01*
X184438391Y-65268413D01*
X184262545Y-65146191D01*
X184253555Y-65142272D01*
X184294589Y-65045616D01*
X184334110Y-64855656D01*
X184335813Y-64661636D01*
X184299632Y-64471011D01*
X184240385Y-64324349D01*
X184297147Y-64187314D01*
X184335000Y-63997014D01*
X184335000Y-63802986D01*
X184297147Y-63612686D01*
X184240116Y-63475000D01*
X184297147Y-63337314D01*
X184335000Y-63147014D01*
X184335000Y-62952986D01*
X184297147Y-62762686D01*
X184240116Y-62625000D01*
X184297147Y-62487314D01*
X184335000Y-62297014D01*
X184335000Y-62102986D01*
X184297147Y-61912686D01*
X184240116Y-61775000D01*
X184297147Y-61637314D01*
X184335000Y-61447014D01*
X184335000Y-61252986D01*
X184300063Y-61077346D01*
X184367212Y-61022238D01*
X184390232Y-60994188D01*
X185244193Y-60140228D01*
X185272238Y-60117212D01*
X185364087Y-60005294D01*
X185432337Y-59877607D01*
X185471952Y-59747014D01*
X185474365Y-59739060D01*
X185488556Y-59594975D01*
X185485000Y-59558870D01*
X185485000Y-58428891D01*
X185623767Y-58489376D01*
X185833000Y-58535000D01*
X186233000Y-58535000D01*
X186233000Y-57577000D01*
X186213000Y-57577000D01*
X186213000Y-57323000D01*
X186233000Y-57323000D01*
X186233000Y-56365000D01*
X185833000Y-56365000D01*
X185623767Y-56410624D01*
X185427455Y-56496191D01*
X185338247Y-56558195D01*
X185337358Y-56557111D01*
X185295253Y-56505806D01*
X185295249Y-56505802D01*
X185272237Y-56477762D01*
X185244197Y-56454750D01*
X183795258Y-55005812D01*
X183772238Y-54977762D01*
X183660320Y-54885913D01*
X183532633Y-54817663D01*
X183394085Y-54775635D01*
X183286105Y-54765000D01*
X183250000Y-54761444D01*
X183213895Y-54765000D01*
X179036105Y-54765000D01*
X179000000Y-54761444D01*
X178855915Y-54775635D01*
X178717366Y-54817663D01*
X178624381Y-54867365D01*
X178589680Y-54885913D01*
X178477762Y-54977762D01*
X178454746Y-55005807D01*
X177505808Y-55954746D01*
X177477763Y-55977762D01*
X177385913Y-56089680D01*
X177317663Y-56217367D01*
X177280095Y-56341212D01*
X177275635Y-56355915D01*
X177270412Y-56408950D01*
X177171414Y-56557111D01*
X177100932Y-56727271D01*
X177065000Y-56907911D01*
X177065000Y-57092089D01*
X177100932Y-57272729D01*
X177171414Y-57442889D01*
X177273738Y-57596028D01*
X177403972Y-57726262D01*
X177557111Y-57828586D01*
X177727271Y-57899068D01*
X177907911Y-57935000D01*
X178092089Y-57935000D01*
X178272729Y-57899068D01*
X178442889Y-57828586D01*
X178596028Y-57726262D01*
X178726262Y-57596028D01*
X178828586Y-57442889D01*
X178899068Y-57272729D01*
X178935000Y-57092089D01*
X178935000Y-56907911D01*
X178899068Y-56727271D01*
X178873618Y-56665828D01*
X179304447Y-56235000D01*
X179565000Y-56235000D01*
X179565000Y-56342089D01*
X179600932Y-56522729D01*
X179671414Y-56692889D01*
X179773738Y-56846028D01*
X179903972Y-56976262D01*
X179940001Y-57000336D01*
X179940000Y-59210212D01*
X179936081Y-59250000D01*
X179940000Y-59289788D01*
X179940000Y-59289790D01*
X179951720Y-59408787D01*
X179998037Y-59561472D01*
X180019129Y-59600932D01*
X180073251Y-59702189D01*
X180100097Y-59734901D01*
X180174472Y-59825528D01*
X180205388Y-59850900D01*
X180549100Y-60194612D01*
X180574472Y-60225528D01*
X180697811Y-60326749D01*
X180838527Y-60401963D01*
X180991212Y-60448280D01*
X181015000Y-60450623D01*
X181015000Y-60597014D01*
X181020409Y-60624207D01*
X181005914Y-60625635D01*
X180975043Y-60635000D01*
X180867367Y-60667663D01*
X180739680Y-60735913D01*
X180704237Y-60765000D01*
X177832951Y-60765000D01*
X177692889Y-60671414D01*
X177522729Y-60600932D01*
X177342089Y-60565000D01*
X177157911Y-60565000D01*
X176977271Y-60600932D01*
X176807111Y-60671414D01*
X176653972Y-60773738D01*
X176523738Y-60903972D01*
X176421414Y-61057111D01*
X176350932Y-61227271D01*
X176315000Y-61407911D01*
X174447357Y-61407911D01*
X170045259Y-57005813D01*
X170022238Y-56977762D01*
X169910320Y-56885913D01*
X169782633Y-56817663D01*
X169644085Y-56775635D01*
X169536105Y-56765000D01*
X169500000Y-56761444D01*
X169463895Y-56765000D01*
X165800448Y-56765000D01*
X165726262Y-56653972D01*
X165596028Y-56523738D01*
X165442889Y-56421414D01*
X165272729Y-56350932D01*
X165092089Y-56315000D01*
X164907911Y-56315000D01*
X164727271Y-56350932D01*
X164557111Y-56421414D01*
X164403972Y-56523738D01*
X164273738Y-56653972D01*
X164171414Y-56807111D01*
X164162357Y-56828977D01*
X164092089Y-56815000D01*
X163907911Y-56815000D01*
X163727271Y-56850932D01*
X163557111Y-56921414D01*
X163403972Y-57023738D01*
X163273738Y-57153972D01*
X163240726Y-57203378D01*
X163192889Y-57171414D01*
X163022729Y-57100932D01*
X162842089Y-57065000D01*
X162657911Y-57065000D01*
X162477271Y-57100932D01*
X162307111Y-57171414D01*
X162153972Y-57273738D01*
X162023738Y-57403972D01*
X161921414Y-57557111D01*
X161850932Y-57727271D01*
X161815000Y-57907911D01*
X161815000Y-58092089D01*
X161850932Y-58272729D01*
X161921414Y-58442889D01*
X162023738Y-58596028D01*
X162153972Y-58726262D01*
X162307111Y-58828586D01*
X162477271Y-58899068D01*
X162642485Y-58931931D01*
X162704746Y-58994192D01*
X162727762Y-59022238D01*
X162839680Y-59114087D01*
X162967367Y-59182337D01*
X163074166Y-59214734D01*
X163105915Y-59224365D01*
X163250000Y-59238556D01*
X163286105Y-59235000D01*
X167695554Y-59235000D01*
X168765001Y-60304448D01*
X168765001Y-60471823D01*
X168744197Y-60454750D01*
X168045258Y-59755812D01*
X168022238Y-59727762D01*
X167910320Y-59635913D01*
X167782633Y-59567663D01*
X167644085Y-59525635D01*
X167536105Y-59515000D01*
X167500000Y-59511444D01*
X167463895Y-59515000D01*
X166082951Y-59515000D01*
X165942889Y-59421414D01*
X165772729Y-59350932D01*
X165592089Y-59315000D01*
X165407911Y-59315000D01*
X165227271Y-59350932D01*
X165057111Y-59421414D01*
X164903972Y-59523738D01*
X164773738Y-59653972D01*
X164671414Y-59807111D01*
X164600932Y-59977271D01*
X164565000Y-60157911D01*
X164565000Y-60342089D01*
X164600932Y-60522729D01*
X164671414Y-60692889D01*
X164773738Y-60846028D01*
X164903972Y-60976262D01*
X165057111Y-61078586D01*
X165227271Y-61149068D01*
X165407911Y-61185000D01*
X165592089Y-61185000D01*
X165772729Y-61149068D01*
X165942889Y-61078586D01*
X166082951Y-60985000D01*
X167195554Y-60985000D01*
X167515000Y-61304447D01*
X167515001Y-63601887D01*
X167511444Y-63638002D01*
X167525635Y-63782087D01*
X167558467Y-63890318D01*
X167567664Y-63920635D01*
X167635914Y-64048322D01*
X167727763Y-64160240D01*
X167755808Y-64183256D01*
X168696744Y-65124193D01*
X168719760Y-65152238D01*
X168831678Y-65244087D01*
X168959365Y-65312337D01*
X169028837Y-65333411D01*
X169097912Y-65354365D01*
X169241997Y-65368556D01*
X169278102Y-65365000D01*
X169455117Y-65365000D01*
X169596525Y-65576632D01*
X169803368Y-65783475D01*
X169985534Y-65905195D01*
X169868645Y-65974822D01*
X169652412Y-66169731D01*
X169478359Y-66403080D01*
X169353175Y-66665901D01*
X169308524Y-66813110D01*
X169429845Y-67043000D01*
X170623000Y-67043000D01*
X170623000Y-67023000D01*
X170877000Y-67023000D01*
X170877000Y-67043000D01*
X172070155Y-67043000D01*
X172191476Y-66813110D01*
X172146825Y-66665901D01*
X172021641Y-66403080D01*
X171847588Y-66169731D01*
X171631355Y-65974822D01*
X171514466Y-65905195D01*
X171696632Y-65783475D01*
X171903475Y-65576632D01*
X172065990Y-65333411D01*
X172177932Y-65063158D01*
X172235000Y-64776260D01*
X172235000Y-64483740D01*
X172181544Y-64214999D01*
X172925553Y-64214999D01*
X174068069Y-65357515D01*
X174100932Y-65522729D01*
X174171414Y-65692889D01*
X174265001Y-65832951D01*
X174265000Y-66195553D01*
X172335553Y-68125001D01*
X171881353Y-68125001D01*
X172021641Y-67936920D01*
X172146825Y-67674099D01*
X172191476Y-67526890D01*
X172070155Y-67297000D01*
X170877000Y-67297000D01*
X170877000Y-67317000D01*
X170623000Y-67317000D01*
X170623000Y-67297000D01*
X169429845Y-67297000D01*
X169308524Y-67526890D01*
X169353175Y-67674099D01*
X169478359Y-67936920D01*
X169652412Y-68170269D01*
X169868645Y-68365178D01*
X169985534Y-68434805D01*
X169803368Y-68556525D01*
X169596525Y-68763368D01*
X169434010Y-69006589D01*
X169322068Y-69276842D01*
X169265000Y-69563740D01*
X169265000Y-69856260D01*
X169322068Y-70143158D01*
X169434010Y-70413411D01*
X169596525Y-70656632D01*
X169728380Y-70788487D01*
X169655820Y-70810498D01*
X169545506Y-70869463D01*
X169448815Y-70948815D01*
X169394105Y-71015479D01*
X169361473Y-70998037D01*
X169208788Y-70951720D01*
X169089791Y-70940000D01*
X169089788Y-70940000D01*
X169050000Y-70936081D01*
X169010212Y-70940000D01*
X167335513Y-70940000D01*
X164600900Y-68205388D01*
X164575528Y-68174472D01*
X164452189Y-68073251D01*
X164311473Y-67998037D01*
X164158788Y-67951720D01*
X164039791Y-67940000D01*
X164039788Y-67940000D01*
X164000000Y-67936081D01*
X163960212Y-67940000D01*
X163470705Y-67940000D01*
X163442889Y-67921414D01*
X163272729Y-67850932D01*
X163092089Y-67815000D01*
X162907911Y-67815000D01*
X162727271Y-67850932D01*
X162557111Y-67921414D01*
X162403972Y-68023738D01*
X162273738Y-68153972D01*
X162171414Y-68307111D01*
X162125000Y-68419165D01*
X162078586Y-68307111D01*
X161976262Y-68153972D01*
X161846028Y-68023738D01*
X161692889Y-67921414D01*
X161522729Y-67850932D01*
X161342089Y-67815000D01*
X161157911Y-67815000D01*
X160977271Y-67850932D01*
X160807111Y-67921414D01*
X160653972Y-68023738D01*
X160523738Y-68153972D01*
X160421414Y-68307111D01*
X160412357Y-68328977D01*
X160342089Y-68315000D01*
X160157911Y-68315000D01*
X159977271Y-68350932D01*
X159865853Y-68397082D01*
X159828586Y-68307111D01*
X159726262Y-68153972D01*
X159596028Y-68023738D01*
X159442889Y-67921414D01*
X159272729Y-67850932D01*
X159169585Y-67830415D01*
X159149068Y-67727271D01*
X159078586Y-67557111D01*
X158976262Y-67403972D01*
X158846028Y-67273738D01*
X158692889Y-67171414D01*
X158522729Y-67100932D01*
X158342089Y-67065000D01*
X158157911Y-67065000D01*
X157977271Y-67100932D01*
X157807111Y-67171414D01*
X157667049Y-67265000D01*
X156780403Y-67265000D01*
X156828586Y-67192889D01*
X156899068Y-67022729D01*
X156935000Y-66842089D01*
X156935000Y-66657911D01*
X156899068Y-66477271D01*
X156828586Y-66307111D01*
X156780403Y-66235000D01*
X158713895Y-66235000D01*
X158750000Y-66238556D01*
X158786105Y-66235000D01*
X158894085Y-66224365D01*
X159032633Y-66182337D01*
X159160320Y-66114087D01*
X159272238Y-66022238D01*
X159295258Y-65994188D01*
X159499413Y-65790033D01*
X159557111Y-65828586D01*
X159727271Y-65899068D01*
X159907911Y-65935000D01*
X160092089Y-65935000D01*
X160272729Y-65899068D01*
X160442889Y-65828586D01*
X160596028Y-65726262D01*
X160726262Y-65596028D01*
X160828586Y-65442889D01*
X160899068Y-65272729D01*
X160935000Y-65092089D01*
X160935000Y-64907911D01*
X160899068Y-64727271D01*
X160828586Y-64557111D01*
X160726262Y-64403972D01*
X160596028Y-64273738D01*
X160442889Y-64171414D01*
X160272729Y-64100932D01*
X160092089Y-64065000D01*
X159916519Y-64065000D01*
X159899068Y-63977271D01*
X159828586Y-63807111D01*
X159726262Y-63653972D01*
X159596028Y-63523738D01*
X159442889Y-63421414D01*
X159272729Y-63350932D01*
X159092089Y-63315000D01*
X158907911Y-63315000D01*
X158727271Y-63350932D01*
X158557111Y-63421414D01*
X158500000Y-63459574D01*
X158442889Y-63421414D01*
X158272729Y-63350932D01*
X158169585Y-63330415D01*
X158149068Y-63227271D01*
X158078586Y-63057111D01*
X157976262Y-62903972D01*
X157846028Y-62773738D01*
X157692889Y-62671414D01*
X157522729Y-62600932D01*
X157342089Y-62565000D01*
X157157911Y-62565000D01*
X156977271Y-62600932D01*
X156807111Y-62671414D01*
X156667049Y-62765000D01*
X156536094Y-62765000D01*
X156499999Y-62761445D01*
X156463904Y-62765000D01*
X156463895Y-62765000D01*
X156355915Y-62775635D01*
X156217367Y-62817663D01*
X156089680Y-62885913D01*
X155977762Y-62977762D01*
X155954741Y-63005813D01*
X155945554Y-63015000D01*
X154804447Y-63015000D01*
X154495259Y-62705813D01*
X154472239Y-62677763D01*
X154360321Y-62585914D01*
X154232634Y-62517664D01*
X154094086Y-62475636D01*
X153986106Y-62465001D01*
X153950001Y-62461445D01*
X153913896Y-62465001D01*
X148504448Y-62465001D01*
X144681932Y-58642486D01*
X144649068Y-58477271D01*
X144578586Y-58307111D01*
X144476262Y-58153972D01*
X144346028Y-58023738D01*
X144192889Y-57921414D01*
X144022729Y-57850932D01*
X143842089Y-57815000D01*
X143657911Y-57815000D01*
X143477271Y-57850932D01*
X143307111Y-57921414D01*
X143153972Y-58023738D01*
X143023738Y-58153972D01*
X142921414Y-58307111D01*
X142850932Y-58477271D01*
X142815000Y-58657911D01*
X142815000Y-58765000D01*
X138082951Y-58765000D01*
X137942889Y-58671414D01*
X137772729Y-58600932D01*
X137592089Y-58565000D01*
X137407911Y-58565000D01*
X137227271Y-58600932D01*
X137057111Y-58671414D01*
X136903972Y-58773738D01*
X136773738Y-58903972D01*
X136671414Y-59057111D01*
X136600932Y-59227271D01*
X136565000Y-59407911D01*
X136565000Y-59592089D01*
X136600932Y-59772729D01*
X136671414Y-59942889D01*
X136773738Y-60096028D01*
X136903972Y-60226262D01*
X137057111Y-60328586D01*
X137078977Y-60337643D01*
X137065000Y-60407911D01*
X137065000Y-60592089D01*
X137100932Y-60772729D01*
X137171414Y-60942889D01*
X137273738Y-61096028D01*
X137403972Y-61226262D01*
X137557111Y-61328586D01*
X137727271Y-61399068D01*
X137892485Y-61431932D01*
X138454746Y-61994193D01*
X138477762Y-62022238D01*
X138559940Y-62089680D01*
X138589680Y-62114087D01*
X138717366Y-62182337D01*
X138855915Y-62224365D01*
X139000000Y-62238556D01*
X139036105Y-62235000D01*
X142445554Y-62235000D01*
X146104756Y-65894203D01*
X146109335Y-65899782D01*
X146057111Y-65921414D01*
X145903972Y-66023738D01*
X145773738Y-66153972D01*
X145671414Y-66307111D01*
X145600932Y-66477271D01*
X145565000Y-66657911D01*
X145565000Y-66842089D01*
X145600932Y-67022729D01*
X145616762Y-67060948D01*
X145523738Y-67153972D01*
X145421414Y-67307111D01*
X145350932Y-67477271D01*
X145315000Y-67657911D01*
X145315000Y-67842089D01*
X145326289Y-67898840D01*
X144183260Y-66755812D01*
X144160240Y-66727762D01*
X144048322Y-66635913D01*
X143920635Y-66567663D01*
X143782087Y-66525635D01*
X143674107Y-66515000D01*
X143638002Y-66511444D01*
X143601897Y-66515000D01*
X134861096Y-66515000D01*
X134824999Y-66511445D01*
X134788902Y-66515000D01*
X134788895Y-66515000D01*
X134700176Y-66523738D01*
X134680914Y-66525635D01*
X134657842Y-66532634D01*
X134542367Y-66567663D01*
X134414680Y-66635913D01*
X134302762Y-66727762D01*
X134279746Y-66755807D01*
X134020987Y-67014566D01*
X134002652Y-66999519D01*
X134066725Y-66956307D01*
X134238078Y-66783474D01*
X134372421Y-66580533D01*
X134464591Y-66355282D01*
X134468462Y-66317609D01*
X134343731Y-66127000D01*
X133127000Y-66127000D01*
X133127000Y-66147000D01*
X132873000Y-66147000D01*
X132873000Y-66127000D01*
X131656269Y-66127000D01*
X131531538Y-66317609D01*
X131535409Y-66355282D01*
X131627579Y-66580533D01*
X131761922Y-66783474D01*
X131933275Y-66956307D01*
X131997348Y-66999519D01*
X131847498Y-67122498D01*
X131730550Y-67265000D01*
X130394447Y-67265000D01*
X129185344Y-66055897D01*
X129235000Y-65806260D01*
X129235000Y-65513740D01*
X129177932Y-65226842D01*
X129065990Y-64956589D01*
X128903475Y-64713368D01*
X128696632Y-64506525D01*
X128514466Y-64384805D01*
X128631355Y-64315178D01*
X128847588Y-64120269D01*
X129021641Y-63886920D01*
X129146825Y-63624099D01*
X129191476Y-63476890D01*
X129070155Y-63247000D01*
X127877000Y-63247000D01*
X127877000Y-63267000D01*
X127623000Y-63267000D01*
X127623000Y-63247000D01*
X126429845Y-63247000D01*
X126308524Y-63476890D01*
X126353175Y-63624099D01*
X126478359Y-63886920D01*
X126652412Y-64120269D01*
X126868645Y-64315178D01*
X126985534Y-64384805D01*
X126803368Y-64506525D01*
X126596525Y-64713368D01*
X126434010Y-64956589D01*
X126322068Y-65226842D01*
X126265000Y-65513740D01*
X126265000Y-65806260D01*
X126322068Y-66093158D01*
X126434010Y-66363411D01*
X126596525Y-66606632D01*
X126803368Y-66813475D01*
X126977760Y-66930000D01*
X126803368Y-67046525D01*
X126596525Y-67253368D01*
X126434010Y-67496589D01*
X126322068Y-67766842D01*
X126265000Y-68053740D01*
X126265000Y-68346260D01*
X126322068Y-68633158D01*
X126434010Y-68903411D01*
X126596525Y-69146632D01*
X126803368Y-69353475D01*
X126977760Y-69470000D01*
X126803368Y-69586525D01*
X126596525Y-69793368D01*
X126434010Y-70036589D01*
X126322068Y-70306842D01*
X126265000Y-70593740D01*
X126265000Y-70886260D01*
X126322068Y-71173158D01*
X126434010Y-71443411D01*
X126596525Y-71686632D01*
X126803368Y-71893475D01*
X127046589Y-72055990D01*
X127316842Y-72167932D01*
X127603740Y-72225000D01*
X127896260Y-72225000D01*
X128145897Y-72175344D01*
X129260553Y-73290000D01*
X100710000Y-73290000D01*
X100710000Y-61000000D01*
X101607089Y-61000000D01*
X101638657Y-61320516D01*
X101732148Y-61628715D01*
X101883969Y-61912752D01*
X102088286Y-62161714D01*
X102337248Y-62366031D01*
X102621285Y-62517852D01*
X102929484Y-62611343D01*
X103169678Y-62635000D01*
X104830322Y-62635000D01*
X105070516Y-62611343D01*
X105378715Y-62517852D01*
X105662752Y-62366031D01*
X105911714Y-62161714D01*
X106116031Y-61912752D01*
X106267852Y-61628715D01*
X106361343Y-61320516D01*
X106392911Y-61000000D01*
X106361343Y-60679484D01*
X106267852Y-60371285D01*
X106116031Y-60087248D01*
X105911714Y-59838286D01*
X105662752Y-59633969D01*
X105378715Y-59482148D01*
X105070516Y-59388657D01*
X104830322Y-59365000D01*
X103169678Y-59365000D01*
X102929484Y-59388657D01*
X102621285Y-59482148D01*
X102337248Y-59633969D01*
X102088286Y-59838286D01*
X101883969Y-60087248D01*
X101732148Y-60371285D01*
X101638657Y-60679484D01*
X101607089Y-61000000D01*
X100710000Y-61000000D01*
X100710000Y-57135499D01*
X100728320Y-57179727D01*
X100885363Y-57414759D01*
X101085241Y-57614637D01*
X101320273Y-57771680D01*
X101581426Y-57879853D01*
X101858665Y-57935000D01*
X102141335Y-57935000D01*
X102418574Y-57879853D01*
X102679727Y-57771680D01*
X102914759Y-57614637D01*
X103114637Y-57414759D01*
X103271680Y-57179727D01*
X103365000Y-56954432D01*
X103365000Y-57277000D01*
X103421193Y-57593532D01*
X103538058Y-57893020D01*
X103711105Y-58163954D01*
X103933683Y-58395922D01*
X104197239Y-58580010D01*
X104491645Y-58709144D01*
X104619566Y-58740124D01*
X104873000Y-58620777D01*
X104873000Y-56627000D01*
X105127000Y-56627000D01*
X105127000Y-58620777D01*
X105380434Y-58740124D01*
X105508355Y-58709144D01*
X105802761Y-58580010D01*
X106066317Y-58395922D01*
X106288895Y-58163954D01*
X106461942Y-57893020D01*
X106578807Y-57593532D01*
X106635000Y-57277000D01*
X106635000Y-56627000D01*
X105127000Y-56627000D01*
X104873000Y-56627000D01*
X104853000Y-56627000D01*
X104853000Y-56373000D01*
X104873000Y-56373000D01*
X104873000Y-54379223D01*
X105127000Y-54379223D01*
X105127000Y-56373000D01*
X106635000Y-56373000D01*
X106635000Y-55723000D01*
X106578807Y-55406468D01*
X106461942Y-55106980D01*
X106288895Y-54836046D01*
X106066317Y-54604078D01*
X105917311Y-54500000D01*
X109361928Y-54500000D01*
X109361928Y-58500000D01*
X109374188Y-58624482D01*
X109410498Y-58744180D01*
X109469463Y-58854494D01*
X109548815Y-58951185D01*
X109645506Y-59030537D01*
X109755820Y-59089502D01*
X109875518Y-59125812D01*
X110000000Y-59138072D01*
X112000000Y-59138072D01*
X112124482Y-59125812D01*
X112244180Y-59089502D01*
X112354494Y-59030537D01*
X112451185Y-58951185D01*
X112530537Y-58854494D01*
X112589502Y-58744180D01*
X112625812Y-58624482D01*
X112638072Y-58500000D01*
X112638072Y-57606891D01*
X113728519Y-57606891D01*
X113825843Y-57881252D01*
X113974822Y-58131355D01*
X114169731Y-58347588D01*
X114403080Y-58521641D01*
X114665901Y-58646825D01*
X114813110Y-58691476D01*
X115043000Y-58570155D01*
X115043000Y-57377000D01*
X113849186Y-57377000D01*
X113728519Y-57606891D01*
X112638072Y-57606891D01*
X112638072Y-56893109D01*
X113728519Y-56893109D01*
X113849186Y-57123000D01*
X115043000Y-57123000D01*
X115043000Y-55929845D01*
X114813110Y-55808524D01*
X114665901Y-55853175D01*
X114403080Y-55978359D01*
X114169731Y-56152412D01*
X113974822Y-56368645D01*
X113825843Y-56618748D01*
X113728519Y-56893109D01*
X112638072Y-56893109D01*
X112638072Y-54500000D01*
X112625812Y-54375518D01*
X112589502Y-54255820D01*
X112530537Y-54145506D01*
X112451185Y-54048815D01*
X112354494Y-53969463D01*
X112244180Y-53910498D01*
X112124482Y-53874188D01*
X112000000Y-53861928D01*
X110000000Y-53861928D01*
X109875518Y-53874188D01*
X109755820Y-53910498D01*
X109645506Y-53969463D01*
X109548815Y-54048815D01*
X109469463Y-54145506D01*
X109410498Y-54255820D01*
X109374188Y-54375518D01*
X109361928Y-54500000D01*
X105917311Y-54500000D01*
X105802761Y-54419990D01*
X105508355Y-54290856D01*
X105380434Y-54259876D01*
X105127000Y-54379223D01*
X104873000Y-54379223D01*
X104619566Y-54259876D01*
X104491645Y-54290856D01*
X104197239Y-54419990D01*
X103933683Y-54604078D01*
X103711105Y-54836046D01*
X103538058Y-55106980D01*
X103421193Y-55406468D01*
X103365000Y-55723000D01*
X103365000Y-56045568D01*
X103271680Y-55820273D01*
X103114637Y-55585241D01*
X102914759Y-55385363D01*
X102679727Y-55228320D01*
X102418574Y-55120147D01*
X102141335Y-55065000D01*
X101858665Y-55065000D01*
X101581426Y-55120147D01*
X101320273Y-55228320D01*
X101085241Y-55385363D01*
X100885363Y-55585241D01*
X100728320Y-55820273D01*
X100710000Y-55864501D01*
X100710000Y-50710000D01*
X102244604Y-50710000D01*
X102088286Y-50838286D01*
G36*
X183107000Y-56396446D02*
G01*
X183107000Y-57323000D01*
X183127000Y-57323000D01*
X183127000Y-57577000D01*
X183107000Y-57577000D01*
X183107000Y-57843537D01*
X183071011Y-57850368D01*
X182891107Y-57923043D01*
X182875784Y-57931233D01*
X182859088Y-58129480D01*
X182853000Y-58123392D01*
X182853000Y-57577000D01*
X182833000Y-57577000D01*
X182833000Y-57323000D01*
X182853000Y-57323000D01*
X182853000Y-56365000D01*
X182103000Y-56365000D01*
X181893767Y-56410624D01*
X181697455Y-56496191D01*
X181560000Y-56591729D01*
X181560000Y-56539787D01*
X181563919Y-56499999D01*
X181557255Y-56432337D01*
X181548280Y-56341212D01*
X181516061Y-56235000D01*
X182945554Y-56235000D01*
X183107000Y-56396446D01*
G37*
X183107000Y-56396446D02*
X183107000Y-57323000D01*
X183127000Y-57323000D01*
X183127000Y-57577000D01*
X183107000Y-57577000D01*
X183107000Y-57843537D01*
X183071011Y-57850368D01*
X182891107Y-57923043D01*
X182875784Y-57931233D01*
X182859088Y-58129480D01*
X182853000Y-58123392D01*
X182853000Y-57577000D01*
X182833000Y-57577000D01*
X182833000Y-57323000D01*
X182853000Y-57323000D01*
X182853000Y-56365000D01*
X182103000Y-56365000D01*
X181893767Y-56410624D01*
X181697455Y-56496191D01*
X181560000Y-56591729D01*
X181560000Y-56539787D01*
X181563919Y-56499999D01*
X181557255Y-56432337D01*
X181548280Y-56341212D01*
X181516061Y-56235000D01*
X182945554Y-56235000D01*
X183107000Y-56396446D01*
G36*
X162171414Y-69192889D02*
G01*
X162273738Y-69346028D01*
X162403972Y-69476262D01*
X162557111Y-69578586D01*
X162727271Y-69649068D01*
X162907911Y-69685000D01*
X163092089Y-69685000D01*
X163272729Y-69649068D01*
X163442889Y-69578586D01*
X163470705Y-69560000D01*
X163664488Y-69560000D01*
X166399105Y-72294618D01*
X166424472Y-72325528D01*
X166525925Y-72408788D01*
X166547811Y-72426749D01*
X166688526Y-72501963D01*
X166724063Y-72512743D01*
X166841212Y-72548280D01*
X166960209Y-72560000D01*
X166960212Y-72560000D01*
X167000000Y-72563919D01*
X167039788Y-72560000D01*
X168714488Y-72560000D01*
X168949100Y-72794612D01*
X168974472Y-72825528D01*
X169097811Y-72926749D01*
X169238527Y-73001963D01*
X169261928Y-73009062D01*
X169261928Y-73100000D01*
X169274188Y-73224482D01*
X169294063Y-73290000D01*
X163430107Y-73290000D01*
X163523475Y-73196632D01*
X163685990Y-72953411D01*
X163797932Y-72683158D01*
X163855000Y-72396260D01*
X163855000Y-72103740D01*
X163797932Y-71816842D01*
X163685990Y-71546589D01*
X163523475Y-71303368D01*
X163316632Y-71096525D01*
X163073411Y-70934010D01*
X162803158Y-70822068D01*
X162516260Y-70765000D01*
X162223740Y-70765000D01*
X161936842Y-70822068D01*
X161666589Y-70934010D01*
X161423368Y-71096525D01*
X161216525Y-71303368D01*
X161100000Y-71477760D01*
X160983475Y-71303368D01*
X160776632Y-71096525D01*
X160600266Y-70978681D01*
X160644085Y-70974365D01*
X160782633Y-70932337D01*
X160910320Y-70864087D01*
X161022238Y-70772238D01*
X161045258Y-70744188D01*
X161744197Y-70045250D01*
X161772237Y-70022238D01*
X161795250Y-69994197D01*
X161795253Y-69994194D01*
X161864086Y-69910321D01*
X161864087Y-69910320D01*
X161932337Y-69782633D01*
X161962254Y-69684010D01*
X161974365Y-69644086D01*
X161980034Y-69586525D01*
X161985000Y-69536105D01*
X161985000Y-69536098D01*
X161988555Y-69500001D01*
X161985000Y-69463904D01*
X161985000Y-69332951D01*
X162078586Y-69192889D01*
X162125000Y-69080835D01*
X162171414Y-69192889D01*
G37*
X162171414Y-69192889D02*
X162273738Y-69346028D01*
X162403972Y-69476262D01*
X162557111Y-69578586D01*
X162727271Y-69649068D01*
X162907911Y-69685000D01*
X163092089Y-69685000D01*
X163272729Y-69649068D01*
X163442889Y-69578586D01*
X163470705Y-69560000D01*
X163664488Y-69560000D01*
X166399105Y-72294618D01*
X166424472Y-72325528D01*
X166525925Y-72408788D01*
X166547811Y-72426749D01*
X166688526Y-72501963D01*
X166724063Y-72512743D01*
X166841212Y-72548280D01*
X166960209Y-72560000D01*
X166960212Y-72560000D01*
X167000000Y-72563919D01*
X167039788Y-72560000D01*
X168714488Y-72560000D01*
X168949100Y-72794612D01*
X168974472Y-72825528D01*
X169097811Y-72926749D01*
X169238527Y-73001963D01*
X169261928Y-73009062D01*
X169261928Y-73100000D01*
X169274188Y-73224482D01*
X169294063Y-73290000D01*
X163430107Y-73290000D01*
X163523475Y-73196632D01*
X163685990Y-72953411D01*
X163797932Y-72683158D01*
X163855000Y-72396260D01*
X163855000Y-72103740D01*
X163797932Y-71816842D01*
X163685990Y-71546589D01*
X163523475Y-71303368D01*
X163316632Y-71096525D01*
X163073411Y-70934010D01*
X162803158Y-70822068D01*
X162516260Y-70765000D01*
X162223740Y-70765000D01*
X161936842Y-70822068D01*
X161666589Y-70934010D01*
X161423368Y-71096525D01*
X161216525Y-71303368D01*
X161100000Y-71477760D01*
X160983475Y-71303368D01*
X160776632Y-71096525D01*
X160600266Y-70978681D01*
X160644085Y-70974365D01*
X160782633Y-70932337D01*
X160910320Y-70864087D01*
X161022238Y-70772238D01*
X161045258Y-70744188D01*
X161744197Y-70045250D01*
X161772237Y-70022238D01*
X161795250Y-69994197D01*
X161795253Y-69994194D01*
X161864086Y-69910321D01*
X161864087Y-69910320D01*
X161932337Y-69782633D01*
X161962254Y-69684010D01*
X161974365Y-69644086D01*
X161980034Y-69586525D01*
X161985000Y-69536105D01*
X161985000Y-69536098D01*
X161988555Y-69500001D01*
X161985000Y-69463904D01*
X161985000Y-69332951D01*
X162078586Y-69192889D01*
X162125000Y-69080835D01*
X162171414Y-69192889D01*
G36*
X157417000Y-72123000D02*
G01*
X157437000Y-72123000D01*
X157437000Y-72377000D01*
X157417000Y-72377000D01*
X157417000Y-72397000D01*
X157163000Y-72397000D01*
X157163000Y-72377000D01*
X157143000Y-72377000D01*
X157143000Y-72123000D01*
X157163000Y-72123000D01*
X157163000Y-72103000D01*
X157417000Y-72103000D01*
X157417000Y-72123000D01*
G37*
X157417000Y-72123000D02*
X157437000Y-72123000D01*
X157437000Y-72377000D01*
X157417000Y-72377000D01*
X157417000Y-72397000D01*
X157163000Y-72397000D01*
X157163000Y-72377000D01*
X157143000Y-72377000D01*
X157143000Y-72123000D01*
X157163000Y-72123000D01*
X157163000Y-72103000D01*
X157417000Y-72103000D01*
X157417000Y-72123000D01*
G36*
X143931301Y-68582746D02*
G01*
X143842089Y-68565000D01*
X143657911Y-68565000D01*
X143477271Y-68600932D01*
X143307111Y-68671414D01*
X143153972Y-68773738D01*
X143023738Y-68903972D01*
X142921414Y-69057111D01*
X142850932Y-69227271D01*
X142818069Y-69392485D01*
X141581544Y-70629010D01*
X141553499Y-70652026D01*
X141461649Y-70763944D01*
X141461085Y-70765000D01*
X139786094Y-70765000D01*
X139749999Y-70761445D01*
X139713904Y-70765000D01*
X139713895Y-70765000D01*
X139605915Y-70775635D01*
X139476146Y-70815000D01*
X139407911Y-70815000D01*
X139227271Y-70850932D01*
X139057111Y-70921414D01*
X138903972Y-71023738D01*
X138773738Y-71153972D01*
X138671414Y-71307111D01*
X138600932Y-71477271D01*
X138565000Y-71657911D01*
X138565000Y-71765000D01*
X136355684Y-71765000D01*
X136368577Y-71722499D01*
X136385000Y-71555752D01*
X136385000Y-70795867D01*
X137245858Y-69935010D01*
X141444249Y-69935010D01*
X141500000Y-69940501D01*
X141582892Y-69932337D01*
X141722499Y-69918587D01*
X141936447Y-69853686D01*
X142133623Y-69748294D01*
X142306449Y-69606459D01*
X142448284Y-69433633D01*
X142553676Y-69236457D01*
X142618577Y-69022509D01*
X142640491Y-68800010D01*
X142635000Y-68744258D01*
X142635000Y-68694248D01*
X142618577Y-68527501D01*
X142553676Y-68313553D01*
X142448284Y-68116377D01*
X142340465Y-67985000D01*
X143333556Y-67985000D01*
X143931301Y-68582746D01*
G37*
X143931301Y-68582746D02*
X143842089Y-68565000D01*
X143657911Y-68565000D01*
X143477271Y-68600932D01*
X143307111Y-68671414D01*
X143153972Y-68773738D01*
X143023738Y-68903972D01*
X142921414Y-69057111D01*
X142850932Y-69227271D01*
X142818069Y-69392485D01*
X141581544Y-70629010D01*
X141553499Y-70652026D01*
X141461649Y-70763944D01*
X141461085Y-70765000D01*
X139786094Y-70765000D01*
X139749999Y-70761445D01*
X139713904Y-70765000D01*
X139713895Y-70765000D01*
X139605915Y-70775635D01*
X139476146Y-70815000D01*
X139407911Y-70815000D01*
X139227271Y-70850932D01*
X139057111Y-70921414D01*
X138903972Y-71023738D01*
X138773738Y-71153972D01*
X138671414Y-71307111D01*
X138600932Y-71477271D01*
X138565000Y-71657911D01*
X138565000Y-71765000D01*
X136355684Y-71765000D01*
X136368577Y-71722499D01*
X136385000Y-71555752D01*
X136385000Y-70795867D01*
X137245858Y-69935010D01*
X141444249Y-69935010D01*
X141500000Y-69940501D01*
X141582892Y-69932337D01*
X141722499Y-69918587D01*
X141936447Y-69853686D01*
X142133623Y-69748294D01*
X142306449Y-69606459D01*
X142448284Y-69433633D01*
X142553676Y-69236457D01*
X142618577Y-69022509D01*
X142640491Y-68800010D01*
X142635000Y-68744258D01*
X142635000Y-68694248D01*
X142618577Y-68527501D01*
X142553676Y-68313553D01*
X142448284Y-68116377D01*
X142340465Y-67985000D01*
X143333556Y-67985000D01*
X143931301Y-68582746D01*
M02*
